<svg width="224" height="48" viewBox="0 0 224 48" fill="none" xmlns="http://www.w3.org/2000/svg">
<g filter="url(#filter0_d)">
<rect x="4" y="2" width="216" height="40" rx="4" fill="#0057B8"/>
</g>
<path d="M20.0262 21.5153C19.9498 21.8612 19.8798 22.2104 19.797 22.5564C19.4692 23.9306 19.1349 25.3048 18.8071 26.6791C18.7753 26.8104 18.7148 26.8489 18.5875 26.8456C17.9731 26.8424 17.3556 26.836 16.7413 26.8488C16.5566 26.8521 16.4834 26.788 16.4325 26.615C15.9455 24.8916 15.4521 23.1682 14.9587 21.4448C14.6531 20.3749 14.3444 19.305 14.0356 18.235C13.972 18.0108 13.9751 18.0076 14.2011 18.0076C14.7646 18.0044 15.3248 18.0076 15.8882 18.0044C16.0123 18.0044 16.0664 18.0524 16.0983 18.1678C16.4675 19.5548 16.8463 20.9387 17.2124 22.3257C17.3333 22.7806 17.4288 23.2387 17.537 23.6968C17.5498 23.7512 17.5689 23.8057 17.623 23.8633C17.6389 23.8185 17.6548 23.7704 17.6675 23.7256C18.11 21.8965 18.5556 20.0642 18.9917 18.2318C19.0331 18.0621 19.0999 17.998 19.2782 18.0012C19.7938 18.014 20.3063 18.0108 20.822 18.0044C20.9748 18.0012 21.0448 18.046 21.083 18.203C21.5255 20.0513 21.9775 21.8933 22.4263 23.7384C22.4358 23.7768 22.4517 23.8185 22.4963 23.8633C22.5154 23.8153 22.5377 23.7672 22.5504 23.716C22.9292 22.2488 23.3048 20.7817 23.6836 19.3146C23.7823 18.9366 23.8841 18.5618 23.9796 18.1838C24.0115 18.0557 24.0688 17.998 24.2088 18.0012C24.7754 18.0076 25.3452 18.0044 25.9118 18.0044C26.0964 18.0044 26.1091 18.0172 26.0582 18.1966C25.673 19.5452 25.2879 20.8938 24.8995 22.2424C24.4794 23.7096 24.0592 25.1767 23.6454 26.6438C23.6008 26.8008 23.5308 26.8521 23.3685 26.8521C22.7478 26.8424 22.1271 26.8456 21.5064 26.8488C21.3854 26.8488 21.3154 26.82 21.2835 26.6855C20.892 25.0037 20.4941 23.322 20.0962 21.637C20.0867 21.5954 20.0708 21.5569 20.058 21.5185C20.0485 21.5185 20.0389 21.5185 20.0262 21.5153Z" fill="white"/>
<path d="M32.044 25.2599C32.0822 25.1702 32.1076 25.1253 32.1236 25.0805C32.9066 22.7837 33.6897 20.4869 34.4663 18.1869C34.5141 18.0459 34.5809 17.9915 34.7273 18.0011C34.9215 18.0139 35.1189 18.0107 35.3162 18.0011C35.4563 17.9947 35.5263 18.0459 35.5645 18.1837C35.8351 19.1479 36.1152 20.1121 36.3889 21.0763C36.8409 22.6555 37.2929 24.2348 37.7417 25.8172C37.8213 26.0927 37.8977 26.3714 37.9741 26.6501C38.025 26.8327 38.0123 26.8487 37.8309 26.8487C37.6462 26.8519 37.4584 26.8423 37.2738 26.8519C37.1433 26.8583 37.0892 26.8071 37.051 26.6822C36.6531 25.2823 36.2489 23.8824 35.8478 22.4826C35.5868 21.576 35.3289 20.6663 35.0679 19.7597C35.052 19.7021 35.0266 19.6444 34.9915 19.5387C34.9502 19.6348 34.9247 19.686 34.9056 19.7373C34.0971 22.0373 33.2886 24.3373 32.4896 26.6373C32.4323 26.8039 32.3527 26.8583 32.1809 26.8519C31.557 26.8263 31.7193 26.9576 31.5092 26.3682C30.7262 24.1547 29.9527 21.9412 29.1728 19.7277C29.1569 19.6796 29.1346 19.6316 29.0964 19.5387C29.0614 19.6316 29.036 19.686 29.02 19.7437C28.3802 21.97 27.7436 24.1964 27.1038 26.4195C26.951 26.948 27.0497 26.8359 26.5531 26.8487C26.464 26.8519 26.3717 26.8487 26.2826 26.8487C26.0661 26.8455 26.0566 26.8359 26.1139 26.6309C26.2698 26.0767 26.4322 25.5225 26.5913 24.9716C27.0051 23.5236 27.4158 22.0789 27.8296 20.631C28.0651 19.811 28.3007 18.9909 28.5298 18.1676C28.5649 18.0427 28.6222 17.9947 28.7527 18.0011C28.9596 18.0107 29.1665 18.0107 29.3734 18.0011C29.5166 17.9947 29.5803 18.0555 29.6248 18.1869C29.8795 18.9493 30.1405 19.7117 30.4015 20.4741C30.9267 22.0245 31.4551 23.5749 31.9835 25.1253C31.9994 25.1542 32.0122 25.183 32.044 25.2599Z" fill="white"/>
<defs>
<filter id="filter0_d" x="0" y="0" width="224" height="48" filterUnits="userSpaceOnUse" color-interpolation-filters="sRGB">
<feFlood flood-opacity="0" result="BackgroundImageFix"/>
<feColorMatrix in="SourceAlpha" type="matrix" values="0 0 0 0 0 0 0 0 0 0 0 0 0 0 0 0 0 0 127 0"/>
<feOffset dy="2"/>
<feGaussianBlur stdDeviation="2"/>
<feColorMatrix type="matrix" values="0 0 0 0 0 0 0 0 0 0 0 0 0 0 0 0 0 0 0.25 0"/>
<feBlend mode="normal" in2="BackgroundImageFix" result="effect1_dropShadow"/>
<feBlend mode="normal" in="SourceGraphic" in2="effect1_dropShadow" result="shape"/>
</filter>
</defs>
</svg>
