<svg width="58" height="64" viewBox="0 0 58 64" fill="none" xmlns="http://www.w3.org/2000/svg">
<path d="M35.1114 42.2291C35.1114 35.8044 29.8837 30.5774 23.4578 30.5774C17.0319 30.5774 11.8042 35.8043 11.8042 42.2291C11.8042 48.6519 17.0319 53.8773 23.4578 53.8773C29.8837 53.8771 35.1114 48.6519 35.1114 42.2291ZM14.3221 42.2291C14.3221 37.1926 18.4203 33.0951 23.4579 33.0951C28.4954 33.0951 32.5937 37.1926 32.5937 42.2291C32.5937 47.2636 28.4954 51.3595 23.4579 51.3595C18.4203 51.3595 14.3221 47.2636 14.3221 42.2291Z" fill="#00805f"/>
<path d="M56.9818 41.8558C56.7306 41.6182 56.3934 41.4943 56.0472 41.5133C55.8599 41.5237 55.6744 41.529 55.4959 41.529C53.5534 41.529 52.1731 40.9413 51.1518 39.6795C50.9128 39.3841 50.5532 39.2126 50.1733 39.2126H45.6134L45.1493 34.5751C44.8221 31.3262 43.2158 28.3275 40.6268 26.1312C38.9934 24.7457 37.0294 23.7456 34.8879 23.1836C35.1592 22.6681 35.3136 22.0821 35.3136 21.4603C35.3136 20.0005 34.4677 18.7351 33.2411 18.1275L36.8261 7.94396C37.3812 6.36921 37.1492 4.85096 36.1893 3.77858C35.3307 2.81933 34.0103 2.40633 32.7439 2.70083C31.2117 3.05721 30.0191 4.34433 29.4609 6.23883C29.1653 6.84446 28.4871 7.09196 28.0171 6.94133C27.2179 6.68508 27.4586 5.28171 27.5512 4.85771C27.9568 3.00208 27.4104 1.86421 26.8807 1.23646C26.1813 0.407709 25.0671 -0.0401656 23.8194 0.00283437C22.5703 -0.0391656 21.4609 0.407459 20.7618 1.23558C20.2319 1.86346 19.6852 3.00158 20.0909 4.85783C20.1836 5.28171 20.4241 6.68446 19.6254 6.94121C19.1544 7.09271 18.4748 6.84458 18.1774 6.23808C17.6193 4.34421 16.4277 3.05771 14.8966 2.70108C13.6308 2.40658 12.3112 2.81871 11.4523 3.77708C10.4917 4.84921 10.2583 6.36758 10.8127 7.94371L14.4007 18.1277C13.1742 18.7355 12.3287 20.0007 12.3287 21.4605C12.3287 22.0821 12.4831 22.6682 12.7542 23.1836C10.6122 23.7455 8.64794 24.7456 7.01419 26.1312C4.42381 28.328 2.81831 31.327 2.49306 34.5756L0.66806 52.7752C0.49056 54.5431 0.868685 55.957 1.79169 56.9775C3.36206 58.7132 6.16281 58.9525 8.95556 58.9525H18.1701C18.8654 58.9525 19.4291 58.3888 19.4291 57.6936C19.4291 56.9983 18.8653 56.4347 18.1701 56.4347H8.95556C6.97231 56.4347 4.57806 56.3043 3.65894 55.2883C3.22731 54.8111 3.06831 54.0713 3.17319 53.0266L4.99831 34.8266C5.52956 29.5201 10.3019 25.4733 16.2256 25.1912L14.6117 26.8043C14.1198 27.2958 14.1196 28.0928 14.6112 28.5846C14.8569 28.8306 15.1793 28.9535 15.5016 28.9535C15.8234 28.9535 16.1454 28.8307 16.3913 28.585L19.8041 25.174H22.5604V27.5813C22.5604 28.2766 23.1242 28.8402 23.8193 28.8402C24.5146 28.8402 25.0782 28.2766 25.0782 27.5813V25.174H28.1216L31.2509 28.3016C31.4968 28.5472 31.8187 28.67 32.1407 28.67C32.4631 28.67 32.7853 28.547 33.0311 28.301C33.5227 27.8092 33.5224 27.0122 33.0306 26.5207L31.7193 25.2101C37.4989 25.6136 42.1188 29.6112 42.6439 34.8265L43.0909 39.292C42.8813 39.3696 42.6931 39.5016 42.5492 39.6795C41.5282 40.9412 40.1478 41.5288 38.2051 41.5288C38.0268 41.5288 37.8414 41.5236 37.6539 41.5132C37.3108 41.4942 36.9706 41.618 36.7193 41.8557C36.4678 42.0935 36.3256 42.4242 36.3256 42.7702V52.5998C36.3256 52.6065 36.3258 52.613 36.3258 52.6196C36.3458 53.9088 36.6708 55.1951 37.2799 56.4347H28.4443C27.7491 56.4347 27.1854 56.9983 27.1854 57.6936C27.1854 58.3887 27.7492 58.9525 28.4443 58.9525H38.6868C38.7837 58.9525 38.8769 58.9515 38.9712 58.9507C39.0561 59.0488 39.1412 59.1468 39.2301 59.2438C41.0048 61.1798 43.4831 62.7956 46.3969 63.9162C46.5429 63.9725 46.6963 64.0002 46.8486 64.0002C46.8498 64.0002 46.8511 64.0001 46.8524 64.0002C47.0048 64.0002 47.1578 63.9725 47.3041 63.9162C50.2178 62.7956 52.6961 61.1798 54.4708 59.2438C56.3346 57.2107 57.3389 54.9202 57.3751 52.6197C57.3751 52.6131 57.3753 52.6066 57.3753 52.6V42.7703C57.3756 42.4243 57.2331 42.0936 56.9818 41.8558ZM13.3276 5.45758C13.5768 5.17971 13.9499 5.06621 14.3258 5.15346C14.9608 5.30133 15.4914 5.97983 15.7813 7.01508C15.7964 7.06908 15.8152 7.12208 15.8374 7.17358C16.6078 8.96158 18.6102 9.91246 20.3962 9.33821C21.7978 8.88758 23.2031 7.30283 22.5504 4.32021C22.4049 3.65421 22.4529 3.13558 22.6858 2.85983C22.8868 2.62171 23.2774 2.49721 23.7608 2.52033C23.7999 2.52221 23.8388 2.52221 23.8779 2.52033C24.3612 2.49858 24.7556 2.62196 24.9568 2.86046C25.1894 3.13596 25.2374 3.65433 25.0919 4.31996C24.4392 7.30433 25.8454 8.88883 27.2481 9.33883C29.0338 9.91171 31.0342 8.96008 31.8021 7.17208C31.8239 7.12108 31.8424 7.06858 31.8574 7.01508C32.1477 5.97971 32.6784 5.30121 33.3142 5.15346C33.6912 5.06571 34.0643 5.17983 34.3134 5.45808C34.6416 5.82471 34.6918 6.42571 34.4514 7.10758L30.7073 17.7435H16.9347L13.1874 7.10808C12.9478 6.42596 12.9988 5.82446 13.3276 5.45758ZM16.0438 22.6565C15.3837 22.6565 14.8467 22.12 14.8467 21.4606C14.8467 20.8105 15.3949 20.2611 16.0438 20.2611H31.5899C31.5928 20.2611 31.5958 20.2615 31.5987 20.2615C31.5999 20.2615 31.6013 20.2613 31.6026 20.2613C32.2497 20.2636 32.7957 20.8117 32.7957 21.4606C32.7957 22.12 32.2586 22.6565 31.5987 22.6565H30.7552H28.6437C28.6428 22.6565 28.6419 22.6565 28.6411 22.6565H16.8871H16.0438ZM54.8578 52.5896C54.7987 55.9858 51.6737 59.4028 46.8507 61.3872C44.1506 60.2763 41.9834 58.7165 40.5878 56.9626C40.5626 56.9263 40.5357 56.8913 40.5068 56.8581C39.4603 55.508 38.8691 54.0471 38.8437 52.5897V44.0286C41.0009 43.9033 42.7633 43.1322 44.0971 41.7305H44.4686C44.4701 41.7305 44.4714 41.7305 44.4729 41.7305H49.6043C50.9383 43.1323 52.7008 43.9033 54.8578 44.0286V52.5896Z" fill="#00805f"/>
<path d="M44.3193 50.808C43.8423 50.3027 43.0455 50.2797 42.5398 50.7568C42.0342 51.234 42.0112 52.0308 42.4885 52.5364L44.6788 54.8565C44.9167 55.1087 45.2479 55.2512 45.5942 55.2512C45.5999 55.2512 45.6058 55.2512 45.6117 55.251C45.964 55.2462 46.2983 55.0938 46.5332 54.8308L52.1469 48.5434C52.6099 48.0248 52.5649 47.229 52.0465 46.7659C51.5275 46.3027 50.7319 46.348 50.2689 46.8665L45.5683 52.1312L44.3193 50.808Z" fill="#00805f"/>
<path d="M24.5113 48.7069C24.5113 48.3244 24.5113 48.2322 24.5113 47.8461C25.305 47.6584 25.9819 47.276 26.5383 46.6914C27.0983 46.1105 27.3745 45.3347 27.3745 44.3677C27.3745 43.7087 27.2507 43.1596 26.9955 42.7206C26.7402 42.2814 26.4287 41.9732 26.0563 41.7996C25.6842 41.6261 25.2732 41.4737 24.8265 41.3427C24.38 41.2117 23.9688 41.1195 23.5966 41.0629C23.2245 41.0097 22.9125 40.8965 22.6575 40.7299C22.4023 40.5635 22.2746 40.3402 22.2746 40.0675C22.2746 38.7675 24.185 38.9269 25.0284 39.6317C26.2723 40.6802 27.6617 38.7675 26.2228 37.6871L26.0563 37.5384C25.9428 37.4534 25.7446 37.34 25.4608 37.2054C25.1738 37.0672 24.8584 36.961 24.5111 36.8865C24.5111 36.3836 24.5111 36.2525 24.5111 35.7459C24.5111 35.1437 24.0148 34.6514 23.4123 34.6514C22.8099 34.6514 22.3171 35.1437 22.3171 35.7459V36.6207V36.8722C21.5091 37.0281 20.8394 37.432 20.3785 38.0236C19.9108 38.6222 19.6696 39.2882 19.6696 40.032C19.6696 40.776 19.8435 41.3887 20.1908 41.874C20.5381 42.3556 20.9599 42.6994 21.4558 42.8977C21.9521 43.0961 22.4483 43.2519 22.9443 43.3722C23.4443 43.4892 23.8658 43.6237 24.2132 43.7725C24.5605 43.9212 24.7343 44.1304 24.7343 44.403C24.7343 45.1611 24.2733 45.5401 23.3555 45.5401C22.8699 45.5401 22.2781 45.4657 21.8704 45.016C21.725 44.8565 21.6046 44.7077 21.484 44.5839C20.513 43.5672 18.844 44.9805 19.8573 46.3017L20.0984 46.6169C20.258 46.8152 20.545 47.0455 20.9525 47.3076C21.3531 47.5591 21.8031 47.7434 22.2958 47.8566V48.7067C22.2958 49.3089 22.7884 49.8014 23.3944 49.8014C23.997 49.8014 24.5113 49.309 24.5113 48.7069Z" fill="#00805f"/>
<path d="M23.4728 56.4348H23.4513C22.756 56.4348 22.1924 56.9984 22.1924 57.6937C22.1924 58.3888 22.7561 58.9526 23.4513 58.9526H23.4728C24.168 58.9526 24.7316 58.3889 24.7316 57.6937C24.7316 56.9984 24.1679 56.4348 23.4728 56.4348Z" fill="#00805f"/>
</svg>
