<svg width="64" height="54" viewBox="0 0 64 54" fill="none" xmlns="http://www.w3.org/2000/svg">
<path d="M63.9997 31.5752C63.9997 28.4405 61.5179 25.8749 58.414 25.7339V25.2849C58.414 22.1812 56.1645 19.5945 53.2091 19.0611C52.5535 14.4351 50.7162 10.3474 47.8616 7.18787C45.075 4.10336 41.3835 1.92874 37.1864 0.89874C36.5103 0.732615 35.8276 1.14649 35.6616 1.82261C35.4956 2.49874 35.9094 3.18124 36.5855 3.34712C44.2324 5.22374 49.4218 11.0769 50.6664 19.1201C47.8556 19.7644 45.752 22.283 45.752 25.285V37.4766C45.752 40.9647 48.5913 43.8026 52.0811 43.8026C55.573 43.8026 58.414 40.9647 58.414 37.4766V37.4205C61.5179 37.2794 63.9997 34.712 63.9997 31.5752ZM52.0811 41.2816C49.9814 41.2816 48.2732 39.5747 48.2732 37.4766V25.2849C48.2732 23.1875 49.98 21.481 52.0785 21.4796C52.0789 21.4796 52.0792 21.4796 52.0796 21.4796C52.0802 21.4796 52.081 21.4796 52.0817 21.4796C54.1831 21.4799 55.8927 23.1867 55.8927 25.2849V27.0016V35.763C55.8927 35.8575 55.8872 35.9632 55.8805 36.0816C55.8755 36.1696 55.8801 36.2561 55.8927 36.3399V37.4765C55.8927 39.5747 54.1829 41.2816 52.0811 41.2816ZM58.414 34.8956V28.2587C60.1267 28.3959 61.4785 29.8309 61.4785 31.5752C61.4785 33.3215 60.1267 34.7582 58.414 34.8956Z" fill="#00805f"/>
<path d="M28.5378 46.3052H25.1374C23.5274 46.3052 22.1531 47.3326 21.6354 48.7656H15.4101C14.6834 48.7688 14.1687 48.5965 13.8269 48.2416C13.0614 47.4463 13.1305 45.7831 13.1637 44.9837C13.1694 44.8466 13.1741 44.7285 13.1754 44.6337C13.1754 44.6281 13.1755 44.6226 13.1755 44.617V43.0962C16.0635 42.5103 18.2441 39.9533 18.2441 36.8963V24.7046C18.2441 21.7 16.1369 19.1797 13.3224 18.5381C14.5134 10.5757 19.7299 4.89083 27.4785 3.22083C28.1591 3.07421 28.5919 2.40371 28.4451 1.72308C28.2985 1.04246 27.6276 0.609955 26.9473 0.75658C22.6981 1.67233 18.9587 3.75658 16.1332 6.78383C13.2461 9.87708 11.4078 13.9046 10.7811 18.4825C7.83063 19.0182 5.58575 21.6035 5.58575 24.7047V25.1537C2.48225 25.2928 0 27.8593 0 30.9951C0 34.1327 2.48225 36.7008 5.58575 36.8402V36.8963C5.58575 39.9533 7.76638 42.5103 10.6544 43.0962V44.608C10.6532 44.6822 10.6491 44.7735 10.6449 44.8788C10.597 46.0277 10.4976 48.4182 12.0105 49.9898C12.839 50.8505 13.9774 51.2866 15.3905 51.2866C15.3984 51.2866 15.4066 51.2866 15.4146 51.2865H21.635C22.1525 52.7215 23.527 53.7502 25.1374 53.7502H28.5378C30.5921 53.7502 32.2636 52.0796 32.2636 50.0258C32.2635 47.9743 30.5921 46.3052 28.5378 46.3052ZM2.52125 30.9951C2.52125 29.2497 3.87325 27.8138 5.58575 27.6783V34.3155C3.87325 34.1797 2.52125 32.7425 2.52125 30.9951ZM8.107 36.8963V35.7271C8.11588 35.6545 8.11975 35.5803 8.11575 35.5048C8.10988 35.395 8.107 35.2896 8.107 35.1828V26.4216V24.7046C8.107 22.6067 9.81488 20.8998 11.9143 20.8995C11.915 20.8995 11.9158 20.8997 11.9165 20.8997C11.9169 20.8997 11.9173 20.8995 11.9176 20.8995C14.0161 20.901 15.723 22.6073 15.723 24.7046V36.8963C15.723 38.9945 14.0147 40.7015 11.915 40.7015C9.81525 40.7015 8.107 38.9945 8.107 36.8963ZM28.5378 51.2292H25.1374C24.4751 51.2292 23.9364 50.6895 23.9364 50.0258C23.9364 49.3643 24.4751 48.8261 25.1374 48.8261H28.5378C29.2019 48.8261 29.7424 49.3643 29.7424 50.0258C29.7422 50.6895 29.2019 51.2292 28.5378 51.2292Z" fill="#00805f"/>
<path d="M32.1258 2.771H32.1507C32.847 2.771 33.4113 2.2065 33.4113 1.5105C33.4113 0.814375 32.847 0.25 32.1507 0.25H32.1258C31.4296 0.25 30.8652 0.814375 30.8652 1.5105C30.8652 2.2065 31.4296 2.771 32.1258 2.771Z" fill="#00805f"/>
<path d="M34.6154 24.3038C33.8609 23.6491 32.9153 23.3198 31.7748 23.3198C30.7936 23.3198 29.94 23.5993 29.2069 24.1516C28.4736 24.7075 28.1089 25.3447 28.1089 26.0632C28.1089 26.3852 28.2115 26.6648 28.417 26.9021C28.6403 27.1288 28.9058 27.2421 29.2069 27.2421C29.5398 27.2421 29.8303 27.1005 30.0781 26.8208L30.3049 26.5481C30.7334 26.0098 31.208 25.741 31.7251 25.741C32.1111 25.741 32.4335 25.8508 32.6849 26.0702C32.9364 26.2935 33.064 26.5626 33.064 26.888C33.064 27.575 32.6071 27.9997 31.6931 28.1623C31.2186 28.2581 30.8998 28.3853 30.7404 28.5482C30.5774 28.711 30.4995 29.0332 30.4995 29.5147L30.4816 30.6121C30.4816 30.9378 30.5986 31.228 30.836 31.4828C31.084 31.7201 31.3815 31.8405 31.725 31.8405C32.0686 31.8405 32.3626 31.7201 32.6034 31.4758C32.8479 31.2351 32.9683 30.9413 32.9683 30.598V30.0636C33.7651 29.8405 34.3674 29.5326 34.7746 29.1467C35.4228 28.499 35.7451 27.7165 35.7451 26.7891C35.7453 25.7905 35.3664 24.9622 34.6154 24.3038Z" fill="#00805f"/>
<path d="M31.7249 32.6624C31.3494 32.6624 31.0236 32.8005 30.7474 33.073C30.4746 33.3492 30.3364 33.6785 30.3364 34.0677C30.3364 34.443 30.4711 34.7651 30.7402 35.034C31.0094 35.3031 31.3317 35.4377 31.7072 35.4377C32.1073 35.4377 32.4439 35.3031 32.7167 35.034C32.9929 34.7651 33.1276 34.4429 33.1276 34.0677C33.1276 33.6677 32.9894 33.3421 32.7096 33.0837C32.4403 32.804 32.1111 32.6624 31.7249 32.6624Z" fill="#00805f"/>
<path d="M38.8416 19.7092C36.8864 18.3837 34.609 17.6831 32.2556 17.6831C30.838 17.6831 29.4415 17.9397 28.1048 18.4461C25.179 19.5551 22.86 21.7361 21.5748 24.5876C20.2891 27.4399 20.1923 30.6211 21.3013 33.543C21.5458 34.1909 21.848 34.8171 22.2028 35.4116L21.023 40.4498C20.915 40.9109 21.0748 41.3939 21.4365 41.6998C21.6681 41.8955 21.9576 41.9976 22.2505 41.9976C22.415 41.9976 22.5808 41.9654 22.738 41.8995L27.2765 39.9959C28.8358 40.7267 30.5464 41.1105 32.2611 41.1108C32.2613 41.1108 32.2614 41.1108 32.2615 41.1108C33.6781 41.1108 35.0735 40.8539 36.408 40.3476C42.4484 38.0595 45.5019 31.2865 43.2148 25.249C42.3548 22.9815 40.8426 21.0659 38.8416 19.7092ZM35.5144 37.9902C34.466 38.388 33.3715 38.5895 32.2615 38.5895C32.2614 38.5895 32.2614 38.5895 32.2613 38.5895C30.7561 38.5895 29.2538 38.2119 27.9165 37.4977C27.582 37.3189 27.1848 37.3004 26.835 37.4472L24.0411 38.6191L24.7776 35.474C24.8569 35.1356 24.7929 34.7794 24.6008 34.4897C24.22 33.9159 23.9034 33.2979 23.6591 32.6507C22.7886 30.3569 22.8648 27.8614 23.8733 25.6236C24.8819 23.3857 26.702 21.674 28.9981 20.8037C30.0483 20.4059 31.1443 20.2042 32.2556 20.2042C36.0534 20.2042 39.5103 22.5909 40.8571 26.1425C42.6518 30.8795 40.2551 36.1944 35.5144 37.9902Z" fill="#00805f"/>
</svg>
