<svg width="64" height="64" viewBox="0 0 64 64" fill="#00805f" xmlns="http://www.w3.org/2000/svg">
<path d="M62.2315 21.6085L60.1791 19.3018C59.5065 18.5459 58.5765 18.0975 57.5604 18.0391C56.5455 17.9818 55.5728 18.3191 54.8213 18.9899L52.5146 21.0415C52.5144 21.0416 52.5143 21.0417 52.5141 21.0419L50.7168 22.6409V8.47287C50.7168 5.69975 48.4619 3.44388 45.6905 3.44388H33.0071H30.2626C29.7105 1.46 27.8862 0 25.7271 0C23.5696 0 21.7467 1.46 21.1949 3.44388H18.4505H5.83887C3.06737 3.44388 0.812625 5.69987 0.812625 8.47287V28.7553C0.812625 29.4505 1.37625 30.0141 2.0715 30.0141C2.76675 30.0141 3.33037 29.4505 3.33037 28.7553V8.47287C3.33037 7.08812 4.45575 5.9615 5.839 5.9615H17.1919V9.622L9.3695 9.621C7.64463 9.621 6.24137 11.0257 6.24137 12.7524V55.0247C6.24137 56.7495 7.64463 58.1526 9.3695 58.1526H41.9304C43.6572 58.1526 45.0623 56.7494 45.0623 55.0247V41.96L48.1992 39.1698V58.9745C48.1992 60.3573 47.0739 61.4823 45.6906 61.4823H5.83887C4.45562 61.4823 3.33025 60.3573 3.33025 58.9745V38.7351C3.33025 38.0399 2.76662 37.4762 2.07137 37.4762C1.37625 37.4762 0.8125 38.0399 0.8125 38.7351V58.9746C0.812625 61.7456 3.0675 64 5.83887 64H45.6905C48.462 64 50.7168 61.7456 50.7168 58.9746V36.9304L59.6126 29.0179C59.6129 29.0176 59.613 29.0175 59.6133 29.0174L61.9196 26.966C62.6741 26.2948 63.1221 25.3662 63.181 24.3512C63.2399 23.3369 62.9028 22.3627 62.2315 21.6085ZM34.266 5.9615H45.6905C47.0738 5.9615 48.1991 7.08812 48.1991 8.47287V24.8806L45.0621 27.6712V17.2115C45.0621 16.881 44.9275 16.5544 44.6931 16.321L38.3603 9.99288C38.1268 9.75912 37.8008 9.6245 37.4706 9.6245L34.266 9.62412V5.9615ZM40.7626 15.9528H39.3434C39.0105 15.9528 38.7293 15.6716 38.7293 15.339V13.921L40.7626 15.9528ZM19.7094 5.9615H22.2826C22.9779 5.9615 23.5415 5.39787 23.5415 4.70262C23.5415 3.49787 24.5219 2.51763 25.7271 2.51763C26.9342 2.51763 27.9163 3.49787 27.9163 4.70262C27.9163 5.39787 28.4799 5.9615 29.175 5.9615H31.7483V9.62387L19.7094 9.62237V5.9615ZM42.5444 55.0249C42.5444 55.3556 42.2633 55.635 41.9303 55.635H9.3695C9.03862 55.635 8.759 55.3556 8.759 55.0249V12.7525C8.759 12.4197 9.0385 12.1388 9.36925 12.1388L18.403 12.1399C18.4189 12.1404 18.4345 12.1423 18.4505 12.1423H33.0071C33.0109 12.1423 33.0144 12.1418 33.0181 12.1418L36.2115 12.1421V15.3389C36.2115 17.0655 37.6164 18.4702 39.3433 18.4702H42.5443V29.911L30.6059 40.5315C30.6044 40.5329 30.6031 40.5344 30.6016 40.5358C30.4948 40.6318 30.4091 40.7424 30.343 40.8614C30.3406 40.8657 30.3374 40.8695 30.335 40.8739C30.3316 40.8801 30.3293 40.8869 30.326 40.8931C30.3105 40.9229 30.2965 40.9531 30.2836 40.9839C30.2804 40.9916 30.2761 40.9987 30.273 41.0065L27.2269 48.661H13.4131C12.7179 48.661 12.1544 49.2246 12.1544 49.9199C12.1544 50.6151 12.7179 51.1787 13.4131 51.1787H28.0798C28.0801 51.1787 28.0805 51.1787 28.0809 51.1787C28.0823 51.1787 28.0836 51.1785 28.085 51.1785C28.1319 51.1784 28.1781 51.1752 28.2238 51.1701C28.2286 51.1696 28.2336 51.1693 28.2385 51.1686C28.2489 51.1673 28.2594 51.1647 28.2699 51.1631C28.3089 51.1572 28.3472 51.1497 28.385 51.1403C28.3921 51.1385 28.3994 51.1379 28.4065 51.136L37.1899 48.7827C37.19 48.7827 37.1901 48.7826 37.1903 48.7826C37.2776 48.7592 37.3628 48.7254 37.4446 48.6826C37.4503 48.6801 37.4559 48.6777 37.4613 48.6749C37.4666 48.672 37.4716 48.6685 37.4769 48.6652C37.5065 48.6486 37.5355 48.6306 37.564 48.6115C37.5711 48.6069 37.5786 48.603 37.5856 48.5983C37.5886 48.5961 37.5913 48.5936 37.5941 48.5915C37.6295 48.5662 37.6643 48.5392 37.6975 48.5098C37.6985 48.5089 37.6996 48.5081 37.7006 48.5073L37.8442 48.3795L42.5443 44.2004V55.0249H42.5444ZM31.8581 43.8332L33.2104 45.3535C33.2111 45.3544 33.2118 45.3554 33.2125 45.3561C33.2131 45.3569 33.2139 45.3575 33.2146 45.3582L34.5674 46.879L30.178 48.055L31.8581 43.8332ZM48.6588 35.3914C48.6543 35.395 48.6502 35.3991 48.6459 35.4029L36.9681 45.7897L35.9276 44.62L41.592 39.5631C42.1106 39.1001 42.1558 38.3042 41.6927 37.7856C41.2296 37.2669 40.434 37.2219 39.9154 37.6849L34.2542 42.7388L33.2201 41.5762L44.64 31.4179C44.6434 31.4149 44.6461 31.4115 44.6495 31.4085L53.2475 23.7596L54.2998 24.9417L47.4557 31.0212C46.936 31.483 46.8889 32.2788 47.3506 32.7985C47.5994 33.0785 47.945 33.2214 48.2923 33.2214C48.5896 33.2214 48.8881 33.1166 49.1279 32.9036L55.9739 26.8224L56.9986 27.9736L48.6588 35.3914ZM60.6675 24.2055C60.6476 24.5486 60.498 24.8609 60.2463 25.0847L58.8795 26.3004L55.1285 22.0863L56.4963 20.8697C56.7471 20.6456 57.0734 20.5327 57.416 20.5527C57.7599 20.5725 58.0731 20.7226 58.2981 20.9754L60.3505 23.282C60.5749 23.5341 60.6875 23.862 60.6675 24.2055Z" fill="#00805f"/>
<path d="M13.4126 45.0561H23.3118C24.0071 45.0561 24.5706 44.4925 24.5706 43.7972C24.5706 43.102 24.0069 42.5383 23.3118 42.5383H13.4126C12.7173 42.5383 12.1538 43.102 12.1538 43.7972C12.1537 44.4925 12.7173 45.0561 13.4126 45.0561Z" fill="#00805f"/>
<path d="M13.4126 38.9284H28.0803C28.7756 38.9284 29.3391 38.3648 29.3391 37.6695C29.3391 36.9743 28.7754 36.4106 28.0803 36.4106H13.4126C12.7173 36.4106 12.1538 36.9743 12.1538 37.6695C12.1537 38.3648 12.7173 38.9284 13.4126 38.9284Z" fill="#00805f"/>
<path d="M13.4126 32.8022H35.9844C36.6797 32.8022 37.2433 32.2386 37.2433 31.5433C37.2433 30.8481 36.6797 30.2844 35.9844 30.2844H13.4126C12.7173 30.2844 12.1538 30.8481 12.1538 31.5433C12.1538 32.2386 12.7173 32.8022 13.4126 32.8022Z" fill="#00805f"/>
<path d="M13.4126 26.6774H35.9844C36.6797 26.6774 37.2433 26.1138 37.2433 25.4185C37.2433 24.7233 36.6797 24.1597 35.9844 24.1597H13.4126C12.7173 24.1597 12.1538 24.7233 12.1538 25.4185C12.1538 26.1138 12.7173 26.6774 13.4126 26.6774Z" fill="#00805f"/>
<path d="M2.07137 35.0045C2.76662 35.0045 3.33025 34.4408 3.33025 33.7456V33.7242C3.33025 33.029 2.76662 32.4653 2.07137 32.4653C1.37625 32.4653 0.8125 33.029 0.8125 33.7242V33.7456C0.8125 34.4408 1.37612 35.0045 2.07137 35.0045Z" fill="#00805f"/>
<path d="M43.6177 34.4324L43.5997 34.4502C43.1073 34.941 43.1059 35.7381 43.5967 36.2306C43.8427 36.4774 44.1654 36.6007 44.4883 36.6007C44.8098 36.6007 45.1313 36.4784 45.3769 36.2335L45.3949 36.2156C45.8873 35.7249 45.8887 34.9277 45.3979 34.4354C44.9072 33.9431 44.11 33.9415 43.6177 34.4324Z" fill="#00805f"/>
<path d="M13.4126 20.5517H17.3236C18.0188 20.5517 18.5823 19.9881 18.5823 19.2928C18.5823 18.5976 18.0187 18.0339 17.3236 18.0339H13.4126C12.7173 18.0339 12.1538 18.5976 12.1538 19.2928C12.1538 19.9881 12.7173 20.5517 13.4126 20.5517Z" fill="#00805f"/>
</svg>
