<svg width="19" height="17" viewBox="0 0 19 17" fill="none" xmlns="http://www.w3.org/2000/svg">
<path d="M2.99219 16.5586H16.0078C17.3193 16.5586 18.1743 15.5708 18.1743 14.3838C18.1743 14.0186 18.083 13.6533 17.8921 13.313L11.376 1.65869C10.9609 0.911621 10.2388 0.546387 9.5 0.546387C8.76123 0.546387 8.03076 0.919922 7.62402 1.65869L1.10791 13.3213C0.916992 13.6616 0.817383 14.0186 0.817383 14.3838C0.817383 15.5708 1.68066 16.5586 2.99219 16.5586ZM9.5083 10.7646C8.97705 10.7646 8.67822 10.4658 8.65332 9.93457L8.52881 6.0083C8.50391 5.45215 8.91064 5.06201 9.5 5.06201C10.0811 5.06201 10.4961 5.45215 10.4712 6.0083L10.3467 9.92627C10.3218 10.4741 10.0229 10.7646 9.5083 10.7646ZM9.5083 13.6782C8.91064 13.6782 8.4209 13.2715 8.4209 12.6904C8.4209 12.1094 8.90234 11.6943 9.5083 11.6943C10.1143 11.6943 10.5874 12.1094 10.5874 12.6904C10.5874 13.2798 10.106 13.6782 9.5083 13.6782Z" fill="#616161"/>
</svg>
