<svg width="14" height="14" viewBox="0 0 14 14" fill="none" xmlns="http://www.w3.org/2000/svg">
<path d="M5.45801 13.2891C5.89014 13.2891 6.22705 13.1206 6.46143 12.769L13.3169 2.16357C13.4927 1.8999 13.5586 1.66553 13.5586 1.43848C13.5586 0.859863 13.1338 0.442383 12.5405 0.442383C12.1304 0.442383 11.8813 0.588867 11.6323 0.984375L5.42871 10.8135L2.25 6.78516C2.0083 6.48486 1.75928 6.35303 1.40039 6.35303C0.799805 6.35303 0.367676 6.77783 0.367676 7.36377C0.367676 7.62012 0.455566 7.86182 0.667969 8.11816L4.46191 12.791C4.74023 13.1353 5.04785 13.2891 5.45801 13.2891Z" fill="#616161"/>
</svg>
