<svg width="14" height="14" viewBox="0 0 14 14" fill="none" xmlns="http://www.w3.org/2000/svg">
<path d="M1.25635 12.7385C1.68848 13.1633 2.4209 13.156 2.81641 12.7532L6.99854 8.57105L11.1807 12.7532C11.5908 13.1633 12.3159 13.1633 12.7334 12.7385C13.1582 12.3064 13.1655 11.5959 12.748 11.1785L8.57324 6.99634L12.748 2.82153C13.1655 2.40405 13.1655 1.68628 12.7334 1.26148C12.3086 0.836671 11.5908 0.836671 11.1807 1.24683L6.99854 5.42896L2.81641 1.24683C2.4209 0.843995 1.68115 0.829347 1.25635 1.26148C0.831543 1.68628 0.846191 2.4187 1.2417 2.82153L5.43115 6.99634L1.2417 11.1858C0.846191 11.5813 0.831543 12.321 1.25635 12.7385Z" fill="#616161"/>
</svg>
