<svg width="18" height="18" viewBox="0 0 18 18" fill="none" xmlns="http://www.w3.org/2000/svg">
<path 
  d="M8.95264 17.4736C13.5845 17.4736 17.4194 13.6304 17.4194 9.00684C17.4194 4.375 13.5762 0.540039 8.94434 0.540039C4.3208 0.540039 0.48584 4.375 0.48584 9.00684C0.48584 13.6304 4.3291 17.4736 8.95264 17.4736ZM8.95264 16.0625C5.03467 16.0625 1.90527 12.9248 1.90527 9.00684C1.90527 5.08887 5.02637 1.95117 8.94434 1.95117C12.8623 1.95117 16 5.08887 16.0083 9.00684C16.0166 12.9248 12.8706 16.0625 8.95264 16.0625ZM5.10107 9.00684C5.10107 9.41357 5.3833 9.6875 5.80664 9.6875H8.24707V12.1362C8.24707 12.5513 8.5293 12.8418 8.93604 12.8418C9.35107 12.8418 9.6416 12.5596 9.6416 12.1362V9.6875H12.0903C12.5054 9.6875 12.7959 9.41357 12.7959 9.00684C12.7959 8.5918 12.5054 8.30127 12.0903 8.30127H9.6416V5.86084C9.6416 5.4375 9.35107 5.14697 8.93604 5.14697C8.5293 5.14697 8.24707 5.4375 8.24707 5.86084V8.30127H5.80664C5.3833 8.30127 5.10107 8.5918 5.10107 9.00684Z" 
  fill="#616161"/>
</svg>
