<svg width="11" height="11" viewBox="0 0 11 11" fill="none" xmlns="http://www.w3.org/2000/svg">
<path fill-rule="evenodd" clip-rule="evenodd" d="M4.89258 10.7539C5.04883 10.9062 5.26172 11 5.49805 11C5.97852 11 6.36719 10.6113 6.36719 10.1309V6.36719H10.1309C10.6113 6.36719 11 5.97852 11 5.49805C11 5.01953 10.6113 4.63086 10.1309 4.63086H6.36719V0.869141C6.36719 0.628906 6.26953 0.410156 6.11133 0.251953C5.95508 0.0957031 5.73828 0 5.49805 0C5.01953 0 4.63086 0.388672 4.63086 0.869141V4.63086H0.869141C0.611328 4.63086 0.380859 4.74219 0.222656 4.91992C0.0839844 5.07227 0 5.27539 0 5.49805C0 5.97852 0.388672 6.36719 0.869141 6.36719H4.63086V10.1309C4.63086 10.375 4.73047 10.5957 4.89258 10.7539Z" fill="black"/>
</svg>
