<svg version="1" xmlns="http://www.w3.org/2000/svg" width="720" height="720" viewBox="0 0 540.000000 540.000000">
  <path
    d="M251.5 14.1c-7.3 1.5-8 1.7-13.6 3.8-14.2 5.4-27.5 17.2-35.4 31.6-3.1 5.6-6.8 15.6-6 16.3.3.3 0 1.1-.5 1.7-.6.7-1.2 5-1.5 9.6-.6 10.3-.9 11.7-3.3 17.1-4.1 9.1-12.9 14.7-24.1 15.4-6.1.4-14.3 1.4-16.6 2-.5.2-2.1.5-3.4.8-3.3.8-14.3 6-18.5 8.8-4.7 3.2-14.6 12.5-14.6 13.7 0 .5-.4 1.1-.8 1.3-1.5.6-6.8 9.2-9.2 14.8-4.8 11.3-5.2 14.4-5.6 40-.1 13.5-.3 25-.4 25.5 0 .6-.8 1.1-1.7 1.2-7.7.4-12.8 1.8-22.3 6.2-4.9 2.3-17 14.7-20 20.5l-2.5 4.9-8.5.1c-4.7.1-9.2-.1-10-.5-1.3-.6-1.5-5.7-1.4-37.6.1-29.5-.2-37.3-1.3-39.6-.7-1.5-1.9-2.8-2.6-2.8-.6-.1-2.1-.3-3.3-.4-3-.3-5.5 1.9-6.3 5.7-.3 1.8-.6 19.3-.5 38.9l.1 35.5-4.7 1.7c-15.4 5.5-17.5 24.9-3.5 32.9 4 2.3 7.5 2.5 40.3 2.8 1.2 0 2.6.8 2.9 1.8.4.9 2.1 3.9 3.8 6.7 7.4 11.5 17.5 18.5 32 22.2 1.1.3 20.6.6 43.3.7l41.2.2.1-4.6c0-2.5.1-26.6.1-53.7.1-42.7.3-49.8 1.7-54 3.1-9.1 10.2-15.9 19.5-18.7 5.8-1.7 144.2-1.5 150.2.2 5.4 1.6 11.8 6.3 14.8 10.9 2.1 3.1 5.4 10.8 5.6 12.8v107l41.3-.1c22.6-.1 42.2-.5 43.5-.8 1.2-.3 3.1-.8 4.2-1.1 2.8-.6 11.2-4.7 12.8-6.3.7-.6 1.7-1.2 2.1-1.2 1.4 0 12.1-11.2 12.1-12.7 0-.7.4-1.3.8-1.3.5 0 1.6-1.8 2.5-4 1.5-3.9 1.7-4 6.4-4 2.6-.1 11-.1 18.5-.2 13.9-.1 18.2-1 22.8-5 4.8-4.1 7.1-12.9 5.1-19.1-1.9-5.6-8.4-11.2-14.3-12l-2.3-.4-.1-36.9c-.1-20.3-.2-37.6-.3-38.4-.5-4.9-7.3-7.3-11.2-3.9l-2.4 2.1V249l-2.5.1c-15.3.6-19 .2-19-2.2 0-1.9-6.7-11.4-11.1-15.7-5.7-5.6-18.6-11.9-26.4-12.9-3.3-.4-6.3-.6-6.7-.5-.9.2-1-1.1-.9-7.8.2-14.6-.6-41.9-1.3-45.5-5.2-24.6-24.1-45.1-47.6-51.9-6.7-1.9-10.4-2.5-19.6-3-11.7-.7-20.8-6.7-25-16.3-1.6-4-1.9-5.2-2.9-17.3-2.5-30-25-55.3-54.8-61.4-8.2-1.7-30.1-2-37.2-.5zm-3.1 23.5c7.4 7.4-8.1 31.4-22.5 34.8-4.2.9-7.2-2.6-6.7-7.8 1.6-15.2 22.1-34.2 29.2-27zM22 40.8c-7.1.9-14.2 6-17.8 12.7-5.7 10.6-1.1 24.9 9.7 30.4l3.6 1.9.1 33.7c.1 32 .2 33.7 2.1 35.6 2.8 2.9 6.6 3.3 9.4 1l2.4-1.9.2-32.4c0-17.7.2-33.3.2-34.4.1-1.4.9-2.4 2.4-2.8 3.1-.8 9.5-7.2 11.4-11.5 5.9-13.6-2.5-29.4-16.8-31.9-2.4-.4-5.5-.6-6.9-.4zm1.5 8c1.7 1.2 1.6 3.1-.5 7.3-3.6 7-9.7 11-12.5 8.3-4.5-4.6 7.8-19.4 13-15.6zM507.1 41.7c-16.7 4.9-22.2 25.6-10.1 38 1.7 1.7 4.4 3.7 6.2 4.6l3.3 1.6v68.2l2.5 1.9c3.2 2.4 6.5 2.2 9.2-.7 2.2-2.3 2.2-2.9 2.2-35.9l.1-33.6L524 84c18.9-9.7 15-38.7-5.8-42.7-5.2-1-6.7-.9-11.1.4zm7.2 7.7c.7 1.9-1.9 8.5-4.5 11.3-7.1 7.6-13.1 5-8.7-3.9 3.5-7 11.6-11.5 13.2-7.4z"/>
  <path
    d="M213.5 214.9c-5.8 1.4-12 6.4-15.3 12.4-1.5 2.8-1.7 6.9-1.9 35.7-.3 36.1.1 39 5.9 44.9 3.4 3.4 7.7 6 11.2 6.7 1.1.2 3 .6 4.2.8 2.8.6 11.4-1.3 11.4-2.5 0-.5.6-.9 1.4-.9 1.7 0 7.2-5.5 9.4-9.5 1.5-2.6 1.7-7.2 1.7-37.5 0-37.3.1-36.8-5.7-43.1-5.4-5.9-14.5-8.8-22.3-7zm-2.7 15.3c.6.8 1 13.4 1 34.1 0 27-.3 33-1.4 34.2-1.4 1.3-4.2 1.1-4.5-.4-.6-2.8-.3-65.5.3-67.1.8-2.3 3-2.6 4.6-.8zM312.9 215c-6.7 1.9-13.1 8.1-15.3 14.9-2.1 6.6-2.2 63.5 0 70.1 5.1 16 26.8 20.5 38.2 7.9 6.1-6.8 6.2-7.8 5.9-44.2-.2-36.4-.1-35.6-6.6-42.5-5-5.4-15-8.2-22.2-6.2zm-2.2 15.2c.8 1 1.2 65 .5 67.9-.4 1.6-4.3 1.6-5.1.1-.4-1-.8-16.5-.7-34.5.1-28 .3-32.9 1.6-33.7 2-1.3 2.6-1.2 3.7.2zM98.5 335c-.6 1 .3 58.6 1 61 .4 1.4.9 3.6 1.2 5 .3 1.4 1.3 4.4 2.4 6.7 1 2.4 1.9 4.6 1.9 4.9 0 .3 2 3.7 4.5 7.4 12.7 19.1 33.3 30.7 55.2 31.1 4.1.1 8.3 2.6 8.3 5.2.1.7.2 10.2.4 21.2.3 21.9.5 23.4 4.2 30.6 7.3 14.6 23.9 21.9 39 17.3 3.2-.9 6.2-1.8 6.6-1.8.8-.1 8.7-6.5 10.2-8.4.6-.7 1.6-1.8 2.1-2.5 1.2-1.4 2.9-4.8 4.9-10 1.3-3.2 1.5-10.5 1.3-48.5l-.2-44.7-2.6-5.5c-2.6-5.5-8.2-12.1-13-15.2-4.1-2.6-11.8-4.9-18.3-5.3-8.6-.7-10.2-1.1-16-4.1-8.3-4.3-14.2-11.6-16.9-20.5-.8-2.4-1.4-8.6-1.4-13.7s-.3-9.6-.7-9.9c-.7-.7-73.7-1-74.1-.3zM367.9 334.8l-2.7.3-.4 11.7c-.5 13.9-2.5 19-10 26.4-6.5 6.4-14.3 9.7-24.3 10.3-6 .4-9.7 1.3-14.6 3.4-6.6 3-15.3 12-16.6 17.1-.3 1.4-1.1 3.1-1.7 3.9-.8 1-1.1 14.8-1 46.5.1 45 .1 45.1 2.4 50.1 1.3 2.7 2.3 5.3 2.2 5.6-.3 1.7 10.7 11.4 15.7 13.8 4.7 2.2 7 2.6 14.1 2.6 7.3 0 9.3-.4 14.2-2.9 7.3-3.7 12.9-9.3 16.5-16.4 2.8-5.7 2.8-5.9 3.4-29.7.3-13.2.6-24.1.7-24.1 1.4-1.1 7.1-2.3 12.7-2.8 17.7-1.3 37.5-12.4 47.5-26.6 1.3-1.9 2.7-3.7 3-4 1.6-1.5 8.5-17.2 8-18.2-.1-.2.4-1.7 1-3.3.9-2.4 2.2-17 2.1-23.5-.1-.8-.1-6.9-.1-13.5.1-6.6.1-12.7 0-13.5-.2-12.4-.3-13-1.9-13.1-5.6-.2-68.1-.3-70.2-.1z"/>
</svg>
