<svg xmlns="http://www.w3.org/2000/svg" width="24" height="24" viewBox="0 0 24 24">
    <g fill="none" fill-rule="evenodd">
        <g fill="#717782" fill-rule="nonzero">
            <g>
                <g>
                    <g>
                        <g>
                            <path d="M15.75 0c2.004 0 3.641 1.572 3.745 3.55l.005.2v8c0 2.004-1.572 3.641-3.55 3.745l-.2.005h-12c-2.004 0-3.641-1.572-3.745-3.55L0 11.75v-8C0 1.746 1.572.109 3.55.005L3.75 0h12zM18 5.75H1.5v6c0 1.19.925 2.166 2.096 2.245L3.75 14h12c1.19 0 2.166-.925 2.245-2.096L18 11.75v-6zM4.76 10c.414 0 .75.336.75.75 0 .38-.282.693-.648.743l-.112.007c-.414 0-.75-.336-.75-.75 0-.38.282-.693.648-.743L4.76 10zm9.99 0c.414 0 .75.336.75.75 0 .38-.282.693-.648.743l-.102.007h-6c-.414 0-.75-.336-.75-.75 0-.38.282-.693.648-.743L8.75 10h6zm1-8.5h-12c-1.19 0-2.166.925-2.245 2.096L1.5 3.75H18c0-1.243-1.007-2.25-2.25-2.25z" transform="translate(-706.000000, -237.000000) translate(602.000000, 144.000000) translate(88.000000, 81.000000) translate(16.000000, 12.000000) translate(2.250000, 4.250000)"/>
                        </g>
                    </g>
                </g>
            </g>
        </g>
    </g>
</svg>
