<svg xmlns="http://www.w3.org/2000/svg" xmlns:xlink="http://www.w3.org/1999/xlink" viewBox="0 0 72 72">
    <defs>
        <circle id="a" cx="36" cy="36" r="36"/>
        <linearGradient id="c" x1="2.346%" y1="97.654%" y2="0%">
            <stop offset="0%" stop-color="#B24592"/>
            <stop offset="100%" stop-color="#F15F79"/>
        </linearGradient>
        <linearGradient id="d" x1="50%" x2="50%" y1="100%" y2="0%">
            <stop offset="0%"/>
            <stop offset="100%" stop-color="#4B5359"/>
        </linearGradient>
        <linearGradient id="e" x1="50%" x2="50%" y1="100%" y2="0%">
            <stop offset="0%" stop-color="#2C353C"/>
            <stop offset="100%" stop-color="#4B5359"/>
        </linearGradient>
        <path id="f" d="M0 0h108v108H0z"/>
    </defs>
    <g fill="none" fill-rule="evenodd">
        <mask id="b" fill="#fff">
            <use xlink:href="#a"/>
        </mask>
        <g mask="url(#b)">
            <path fill="url(#c)" d="M0 0h108v108H0z" transform="translate(-18 -18)"/>
            <path fill="url(#d)" d="M1132 635h108v108h-108z" transform="translate(-1150 -653)"/>
            <g fill-rule="nonzero">
                <path fill="#FF5252" d="M43.998 36.695a3 3 0 1 1-3.083-5.147c3.117-1.867 4.294-5.795 2.686-9.059-1.721-3.494-5.99-4.953-9.526-3.246a7.016 7.016 0 0 0-2.828 2.468 3 3 0 0 1-5.012-3.298 13.015 13.015 0 0 1 5.231-4.573c6.498-3.138 14.337-.458 17.517 5.998 2.993 6.075.802 13.39-4.985 16.857z"/>
                <path fill="#20AEFF" d="M35.058 42.861a3 3 0 1 1 5.739-1.752c1.105 3.62 4.934 5.735 8.652 4.748 3.793-1.007 6.033-4.854 5.023-8.59a6.95 6.95 0 0 0-1.464-2.753 3 3 0 1 1 4.532-3.933 12.95 12.95 0 0 1 2.725 5.12c1.88 6.955-2.28 14.097-9.276 15.955-6.83 1.814-13.881-2.081-15.931-8.795z"/>
                <path fill="#FFC83C" d="M35.5 31.571a3 3 0 0 1-4.933 3.416c-2.088-3.014-6.202-3.948-9.429-2.102-3.392 1.94-4.55 6.223-2.598 9.573 1.277 2.193 3.618 3.51 6.14 3.522 1.145.005 3.252.005 6.314 0a3 3 0 1 1 .01 6c-3.074.005-5.19.005-6.351 0-4.622-.022-8.937-2.45-11.298-6.502-3.632-6.234-1.476-14.208 4.803-17.8 5.93-3.394 13.482-1.68 17.342 3.893z"/>
            </g>
            <g transform="translate(-1150 -653)">
                <use fill="url(#e)" xlink:href="#f"/>
                <use fill="#000" xlink:href="#f"/>
            </g>
            <g fill-rule="nonzero">
                <path fill="#FF5252" d="M-1087.523-600.91c.042-.037.082-.075.121-.116 4.737-4.945 4.737-12.961 0-17.907-4.74-4.95-12.429-4.95-17.17 0a12.793 12.793 0 0 0-3.324 6.505l-.044.271a25.613 25.613 0 0 0-.147 1.141c-.028.284-.046.541-.053.773-.024.93.68 1.704 1.575 1.73.894.025 1.638-.708 1.663-1.638.003-.134.016-.31.036-.515a16.383 16.383 0 0 1 .124-.962l.027-.171a9.38 9.38 0 0 1 2.438-4.757c3.475-3.628 9.106-3.628 12.581 0 3.337 3.484 3.473 9.048.406 12.701l-.484-.806a1.054 1.054 0 0 0-1.487-.358c-.17.11-.306.268-.395.455l-2.187 4.613c-.264.556-.045 1.23.49 1.505.15.077.316.117.483.116l4.941-.024c.596-.003 1.076-.509 1.073-1.13a1.159 1.159 0 0 0-.164-.589l-.503-.838z"/>
                <path fill="#FFC83C" d="M-1102.095-601.532c-2.23-2.326-5.528-3.304-8.689-2.421-4.793 1.339-7.638 6.46-6.36 11.435.988 3.842 4.194 6.573 7.95 6.883.648.053 6.225.043 14.98-.004.896-.005 1.626.749 1.631 1.683.005.935-.717 1.697-1.613 1.702-9.28.05-14.452.06-15.253-.007-5.113-.422-9.482-4.142-10.828-9.381-1.744-6.785 2.132-13.76 8.653-15.581 4.204-1.175 8.59.072 11.621 3.092l.684-.85a1.052 1.052 0 0 1 1.525-.14c.153.135.268.311.331.51l1.554 4.905c.187.591-.12 1.23-.688 1.426-.16.055-.33.07-.496.045l-4.904-.743c-.591-.09-1-.663-.914-1.28.03-.206.113-.401.242-.562l.574-.712z"/>
                <path fill="#20AEFF" d="M-1091.407-590.755c1.779 3.266 5.4 5.13 9.117 4.525 4.832-.786 8.128-5.43 7.366-10.372a9.34 9.34 0 0 0-.255-1.162c-.93-3.228-3.553-5.656-6.759-6.308-.88-.178-1.452-1.056-1.278-1.96.173-.904 1.027-1.492 1.907-1.313 4.383.89 7.969 4.21 9.243 8.635.15.518.266 1.047.349 1.586 1.043 6.765-3.464 13.117-10.065 14.19-5.397.878-10.65-2.056-12.89-7.064l-1.23.285c-.196.045-.4.034-.59-.033-.566-.2-.866-.833-.671-1.414l1.697-5.063c.066-.195.183-.368.338-.499a1.062 1.062 0 0 1 1.523.156l3.14 3.942c.106.134.18.29.217.46.132.599-.235 1.194-.818 1.33l-.341.079z"/>
            </g>
        </g>
    </g>
</svg>
