<svg xmlns="http://www.w3.org/2000/svg" width="26" height="26" viewBox="0 0 26 26"><path d="m24,13c-1.1,0-2-.9-2-2v-7h-7c-1.1,0-2-.9-2-2s.9-2,2-2h9c1.1,0,2,.9,2,2v9c0,1.1-.9,2-2,2Z" fill="currentColor" fill-rule="evenodd"/><path d="m20,26H2c-1.1,0-2-.9-2-2V6c0-1.1.9-2,2-2h8c1.1,0,2,.9,2,2s-.9,2-2,2h-6v14h14v-6c0-1.1.9-2,2-2s2,.9,2,2v8c0,1.1-.9,2-2,2Z" fill="currentColor" fill-rule="evenodd"/><path d="m12,16c-.51,0-1.02-.2-1.41-.59-.78-.78-.78-2.05,0-2.83L21.59,1.59c.78-.78,2.05-.78,2.83,0,.78.78.78,2.05,0,2.83l-11,11c-.39.39-.9.59-1.41.59Z" fill="currentColor" fill-rule="evenodd"/></svg>