<?xml version="1.0" standalone="no"?>
<!DOCTYPE svg PUBLIC "-//W3C//DTD SVG 20010904//EN"
 "http://www.w3.org/TR/2001/REC-SVG-20010904/DTD/svg10.dtd">
<svg version="1.0" xmlns="http://www.w3.org/2000/svg"
 width="700.000000pt" height="700.000000pt" viewBox="0 0 700.000000 700.000000"
 preserveAspectRatio="xMidYMid meet">
<metadata>
Created by potrace 1.11, written by Peter Selinger 2001-2013
</metadata>
<g transform="translate(0.000000,700.000000) scale(0.100000,-0.100000)"
fill="#000000" stroke="none">
<path d="M1245 4601 c-305 -217 -1039 -739 -1162 -825 -40 -28 -72 -55 -72
-61 0 -16 384 -285 407 -285 4 0 27 -14 52 -31 120 -81 523 -261 760 -340 84
-27 291 -88 320 -94 8 -2 33 -8 55 -14 35 -9 101 -23 220 -46 78 -16 256 -44
310 -50 33 -3 74 -8 90 -10 161 -22 333 -30 610 -29 138 1 284 4 325 7 41 3
93 5 114 6 67 2 29 15 -49 17 -82 2 -225 12 -292 19 -24 3 -62 7 -85 10 -52 5
-125 15 -158 21 -467 81 -822 181 -1208 338 -345 140 -725 350 -825 453 l-27
29 282 199 c155 110 326 230 379 267 l96 67 29 -27 c17 -15 64 -56 105 -92 41
-36 79 -70 85 -76 6 -5 31 -26 54 -45 23 -18 47 -39 54 -45 39 -37 253 -192
371 -269 314 -205 584 -336 927 -449 135 -45 354 -105 443 -122 53 -10 83 -16
118 -25 l38 -10 -5 -217 c-7 -256 -14 -452 -21 -579 l-5 -92 58 -3 c31 -2 110
-2 174 0 l116 3 -3 82 c-8 183 -15 383 -20 570 l-6 198 63 -6 c35 -3 90 -7
123 -10 74 -7 502 -8 530 -2 11 3 55 8 98 12 43 3 88 8 100 10 29 5 136 23
167 29 14 2 36 7 50 10 14 3 36 8 50 10 106 17 381 104 565 178 367 149 775
389 1076 635 135 111 269 232 269 242 -1 3 -31 29 -68 56 -37 28 -74 55 -82
62 -66 52 -196 143 -205 143 -5 -1 -29 -25 -53 -55 -77 -96 -287 -308 -401
-404 -305 -259 -583 -418 -951 -542 -163 -56 -170 -53 -79 34 92 87 161 171
194 237 122 240 8 525 -288 723 -171 114 -439 214 -653 243 -27 3 -52 8 -55
10 -16 9 -183 18 -339 18 -159 0 -285 -6 -365 -19 -16 -3 -47 -7 -67 -10 -93
-13 -120 -17 -233 -42 -402 -86 -652 -240 -706 -434 -13 -49 -15 -161 -2 -183
10 -17 92 -82 159 -124 59 -37 234 -124 234 -116 0 3 -5 14 -10 25 -13 24 -16
121 -5 169 21 99 119 222 243 304 101 66 185 104 342 154 149 48 474 61 640
27 14 -2 39 -7 55 -10 40 -8 135 -35 160 -45 11 -5 53 -23 93 -39 147 -61 290
-171 356 -276 47 -73 60 -111 59 -179 0 -102 -23 -174 -85 -264 -114 -166
-344 -290 -592 -319 -74 -9 -283 -9 -339 1 l-49 7 6 212 c4 117 9 277 12 357
3 80 7 176 8 215 l1 69 -167 1 c-123 1 -169 -3 -172 -12 -3 -6 -3 -45 -1 -85
4 -70 10 -237 21 -560 2 -82 1 -148 -4 -148 -17 0 -159 40 -250 70 -356 117
-696 300 -1012 543 -104 81 -122 95 -209 172 -161 140 -383 380 -511 551 -40
54 -76 102 -79 106 -3 3 -136 -87 -296 -201z"/>
</g>
</svg>
