<svg version="1.1" id="Layer_1" xmlns="http://www.w3.org/2000/svg" x="0" y="0" viewBox="0 0 450 540" xml:space="preserve"><style>.st0{fill:#006900}.st1{fill:#008e00}.st4{fill:#fff}.st5{fill:#ffcb03}.st6{fill:#f2d5a9}.st7{fill:#fb6200}.st8{fill:#1d0cfe}</style><path class="st0" d="M245 396.6v109.9l-7.3 11.7-.2-125.2"/><path d="M237.7 520.9c-.2 0-.5 0-.7-.1-1.2-.3-2-1.4-2-2.6l-.2-125.2c0-1.5 1.2-2.7 2.7-2.7 1.5 0 2.7 1.2 2.7 2.7l.3 115.8 1.9-3.1-.1-109.1c0-1.5 1.2-2.7 2.7-2.7 1.5 0 2.7 1.2 2.7 2.7l.1 109.9c0 .5-.1 1-.4 1.4l-7.3 11.7c-.6.8-1.5 1.3-2.4 1.3z"/><path class="st1" d="M437.5 287.1l.3 169.2H423V299.7l13.9-13.1.6.5v-.6"/><path d="M437.8 459H423c-1.5 0-2.7-1.2-2.7-2.7V300.5l-.1-.6c-.1-.8.2-1.6.8-2.2l13.9-13c.5-.5 1.2-.7 1.8-.7.2 0 .4-.1.6-.1 1.5 0 2.7 1.2 2.7 2.7v.6l.4 169.2c0 .7-.3 1.4-.8 1.9-.4.4-1 .7-1.8.7zm-12.1-5.4h9.4l-.4-161.3-9.1 8.5v152.8z" fill="#191918"/><path d="M376.8 362.2c-1.5 0-2.7-1.2-2.7-2.7v-11.9H225.8v11.9c0 1.5-1.2 2.7-2.7 2.7s-2.7-1.2-2.7-2.7v-14.6c0-1.5 1.2-2.7 2.7-2.7h153.8c1.5 0 2.7 1.2 2.7 2.7v14.6c-.1 1.4-1.3 2.7-2.8 2.7z"/><path class="st1" d="M376.8 344.8v172.8h-14.6V359.4H237.8l-.2.1v158.2H223V344.9h14.6"/><path d="M237.6 520.4H223c-1.5 0-2.7-1.2-2.7-2.7V344.9c0-1.5 1.2-2.7 2.7-2.7h14.6c1.5 0 2.7 1.2 2.7 2.7s-1.2 2.7-2.7 2.7h-11.9V515h9.2V359.5c0-1.1.6-2 1.6-2.5l.2-.1c.4-.2.7-.2 1.1-.2h124.4c1.5 0 2.7 1.2 2.7 2.7v155.5h9.2V344.8c0-1.5 1.2-2.7 2.7-2.7s2.7 1.2 2.7 2.7v172.8c0 1.5-1.2 2.7-2.7 2.7h-14.6c-1.5 0-2.7-1.2-2.7-2.7V362.1H240.3v155.6c0 1.5-1.2 2.7-2.7 2.7z"/><path id="Back_2_" class="st1" d="M443 95.7h-87.1l40 183.4h49.2z"/><path d="M445.1 281.8h-49.2c-1.3 0-2.4-.9-2.6-2.1l-40-183.4c-.2-.8 0-1.6.5-2.3.5-.6 1.3-1 2.1-1H443c1.5 0 2.7 1.2 2.7 2.7l2 183.4c0 .7-.3 1.4-.8 1.9-.4.5-1.1.8-1.8.8zm-47-5.4h44.2l-2-178h-81.1l38.9 178z"/><path id="Seat_2_" class="st1" d="M437.4 286.5l7.7-7.4h-59.8l-110 65.9 101.4-.5 60.7-58"/><path d="M275.3 347.7c-1.2 0-2.3-.8-2.6-2-.3-1.2.2-2.4 1.2-3l110-65.9c.4-.3.9-.4 1.4-.4h59.8c1.1 0 2.1.7 2.5 1.7.4 1 .2 2.2-.6 3l-68.4 65.4c-.5.5-1.2.7-1.9.7l-101.4.5zm101.4-3.2zm9.3-62.7l-100.9 60.4 90.4-.5 60-57.3 2.8-2.7H386zM245 399.3c-.9 0-1.7-.4-2.2-1.2l-7.4-11c-.8-1.2-.5-2.9.7-3.7 1.2-.8 2.9-.5 3.7.7l7.4 11c.8 1.2.5 2.9-.7 3.7-.5.4-1 .5-1.5.5z"/><path class="st0" d="M445.1 279.1l-68.4 65.4v15l.3 158.1 7.3-11.7V352.3l53.2-49.6.3 153.6 7.3-11.7-.1-165.4"/><path d="M377 520.3c-.2 0-.5 0-.7-.1-1.2-.3-2-1.4-2-2.6l-.3-158.1-.1-15c0-.7.3-1.5.8-2l68.4-65.4c1.1-1 2.8-1 3.8.1.6.6.8 1.4.7 2.2l.1 165.1c0 .5-.1 1-.4 1.4l-7.3 11.7c-.6 1-1.9 1.5-3 1.2-1.2-.3-2-1.4-2-2.6l-.3-147.5-47.7 44.8.1 152.4c0 .5-.1 1-.4 1.4l-7.3 11.7c-.6.9-1.4 1.3-2.4 1.3zm2.4-174.7v13.8l.3 148.8 1.9-3.1-.1-152.8c0-.7.3-1.5.9-2l53.2-49.6c.5-.5 1.2-.7 1.8-.7 1.5 0 2.7 1.2 2.7 2.7l.3 144.2 1.9-3.1-.1-158.3-62.8 60.1z"/><path class="st4" d="M330.9 464.8h38.2l21.1 36.9c9.9 31.2-33.8 20.6-39.4 20.3-12.9-3.4-59.1 18.3-65.1-9.6-2-26.6 23.3-14.1 37.4-23.7 12.9-7.8 12.1-13.6 7.8-23.9z"/><path d="M307.7 529.5c-11.7 0-21.9-3.6-24.7-16.6 0-.1 0-.2-.1-.4-1.5-19.7 11.1-20.9 22.2-22 5.9-.5 11.9-1.1 16.4-4.2l.1-.1c11.3-6.7 10.8-10.7 6.8-20.5-.4-.8-.3-1.8.2-2.5.5-.8 1.3-1.2 2.2-1.2H369c1 0 1.9.5 2.3 1.4l21.1 36.9c.1.2.2.3.2.5 2.6 8.2 2 14.6-1.9 19.1-8.2 9.6-27.8 6.6-37.2 5.1-1.4-.2-2.5-.4-3.1-.4-.2 0-.4 0-.5-.1-3.4-.9-10.6.5-18.2 1.9-7.4 1.5-16 3.1-24 3.1zM288.3 512c3.4 15.3 20.5 13.4 42.5 9.2 8.4-1.6 15.7-3 20.3-1.9.8.1 1.8.2 3.3.5 7.1 1.1 26.1 4 32.3-3.3 2.5-2.9 2.8-7.5.9-13.7l-20.2-35.2h-32.7c3.3 9.6 1.9 16-10.3 23.4-5.6 3.8-12.6 4.5-18.8 5-11 1-18.3 1.7-17.3 16z"/><path class="st4" d="M80.4 449.1c-8.7 13.3-26.8 11.5-42.8-3.2-22.8-23.1-48.9 6.7-20.1 29.8 18.8 14.4 27 21.6 36.4 35.6 13.3 12.7 21.3 3.4 31.2-9.4l24.3-27.1-29-25.7z"/><path d="M65.8 519.9c-4.5 0-9-2.2-13.8-6.8-.1-.1-.3-.3-.4-.5-9-13.4-16.8-20.5-35.8-35-10.3-8.3-15.2-18.5-13.3-28 1.3-6.8 6.1-12.2 12.5-14.2 7.9-2.4 16.8.6 24.5 8.3 8.9 8.2 18.7 12.3 26.7 11.3 5-.6 9-3.2 11.9-7.6.4-.7 1.1-1.1 1.9-1.2.8-.1 1.6.1 2.2.7l28.9 25.7c.5.5.9 1.1.9 1.9 0 .7-.2 1.4-.7 2l-24.3 27c-7.1 9.2-12.8 15.8-20.3 16.3-.2.1-.6.1-.9.1zM56 509.4c3.9 3.7 7.3 5.3 10.4 5.1 5.4-.4 10.4-6.5 16.5-14.3 0-.1.1-.1.1-.2l22.5-25.1L80.8 453c-3.6 4.2-8.4 6.8-13.9 7.5-9.6 1.2-21-3.4-31.1-12.7l-.1-.1c-6.2-6.2-13.1-8.8-19.1-7-4.6 1.4-7.9 5.1-8.8 10-1.4 7.5 2.7 15.8 11.4 22.7 19.3 14.9 27.4 22.2 36.8 36z"/><path class="st4" d="M339.4 470l8.5 16"/><path d="M347.9 488c-.7 0-1.4-.4-1.8-1.1l-8.5-16c-.5-1-.1-2.2.8-2.7 1-.5 2.2-.1 2.7.8l8.5 16c.5 1 .1 2.2-.8 2.7-.2.3-.6.3-.9.3z"/><path class="st4" d="M350.7 470l8.5 16"/><path d="M359.2 488c-.7 0-1.4-.4-1.8-1.1l-8.5-16c-.5-1-.1-2.2.8-2.7 1-.5 2.2-.2 2.7.8l8.5 16c.5 1 .1 2.2-.8 2.7-.3.3-.6.3-.9.3z"/><path class="st4" d="M362.4 470l8.5 16"/><path d="M370.9 488c-.7 0-1.4-.4-1.8-1.1l-8.5-16c-.5-1-.1-2.2.8-2.7 1-.5 2.2-.1 2.7.8l8.5 16c.5 1 .1 2.2-.8 2.7-.2.2-.5.3-.9.3z"/><path class="st4" d="M83.9 456.3l-12.2 12.6"/><path d="M71.7 470.9c-.5 0-1-.2-1.4-.6-.8-.8-.8-2.1 0-2.9l12.1-12.5c.8-.8 2.1-.8 2.9 0 .8.8.8 2.1 0 2.9l-12.1 12.5c-.4.4-.9.6-1.5.6z"/><path class="st4" d="M91.1 463.8l-12.2 12.5"/><path d="M78.9 478.3c-.5 0-1-.2-1.4-.6-.8-.8-.8-2.1 0-2.9l12.1-12.5c.8-.8 2.1-.8 2.9 0s.8 2.1 0 2.9l-12.1 12.5c-.4.4-1 .6-1.5.6z"/><path class="st4" d="M98.5 471.5l-12.1 12.6"/><path d="M86.4 486.1c-.5 0-1-.2-1.4-.6-.8-.8-.8-2.1 0-2.9l12.1-12.5c.8-.8 2.1-.8 2.9 0 .8.8.8 2.1 0 2.9l-12.1 12.5c-.5.4-1 .6-1.5.6z"/><path class="st5" d="M360.7 230.4H385c11.9 33.6 26.1 68-23.6 90.1L287 353.8l87.8 118.3H301L227 372l-34.6 25.1-81.4 91.3-44.7-44.7 99-104.3 66.1-45.6 129.3-63.4z"/><path d="M111 491.1c-.7 0-1.4-.3-1.9-.8l-44.7-44.7c-1-1-1.1-2.7 0-3.8l99-104.3.4-.4 66.1-45.6c.1-.1.2-.1.3-.2l129.2-63.5c.4-.2.8-.3 1.2-.3H385c1.1 0 2.2.7 2.5 1.8l1.1 3.2c5.8 16.3 11.8 33.2 10.2 48.8-1.9 17.9-13.8 31.4-36.3 41.4l-71.3 32L377 470.6c.6.8.7 1.9.2 2.8-.5.9-1.4 1.5-2.4 1.5H301c-.9 0-1.7-.4-2.2-1.1l-72.5-97.9-32.2 23.3-81.1 91c-.5.6-1.2.9-2 .9.1 0 0 0 0 0zm-40.9-47.4l40.8 40.8 79.4-89.1.4-.4 34.6-25.1c1.2-.9 2.9-.6 3.8.6l73.2 99h67.2l-84.7-114c-.5-.7-.7-1.5-.4-2.3.2-.8.8-1.4 1.5-1.8l74.4-33.4c45.8-20.3 34.9-51 23.3-83.5l-.5-1.4h-21.8l-128.5 63.1-65.7 45.3-97 102.2z"/><path d="M226.9 374.8c-1 0-1.9-.5-2.4-1.4-7.8-14.4-9.8-26.5-6.1-37.1 4.6-13.2 17.9-23.9 41.6-33.8l42.3-16.3c1.4-.5 3 .2 3.5 1.5.5 1.4-.2 3-1.5 3.5l-42.2 16.3c-21.8 9.1-34.5 19.1-38.5 30.6-3.2 9.1-1.3 19.8 5.7 32.7.7 1.3.2 2.9-1.1 3.7-.4.2-.8.3-1.3.3z"/><path class="st1" d="M28.5 240.9v15.7c0 23.1 75 41.8 167.6 41.8s167.6-18.7 167.6-41.8v-18.2c0-23.1-75-41.8-167.6-41.8S28.5 215.3 28.5 238.3"/><path d="M196.1 301.1c-45 0-87.3-4.4-119.1-12.3-42.3-10.5-51.1-23.3-51.1-32.2v-15.7h5.4v15.7c0 18.9 66.2 39.1 164.9 39.1 98.6 0 164.9-20.2 164.9-39.1v-18.2c0-18.9-66.2-39.1-164.9-39.1-98.6 0-164.9 20.2-164.9 39.1h-5.4c0-8.9 8.9-21.6 51.1-32.2 31.9-7.9 74.2-12.3 119.1-12.3 45 0 87.3 4.4 119.1 12.3 42.3 10.5 51.1 23.3 51.1 32.2v18.2c0 8.9-8.9 21.6-51.1 32.2-31.8 7.9-74.1 12.3-119.1 12.3z"/><path d="M25.8 238.3h5.4v2.5h-5.4z"/><path class="st1" d="M187.4 298.4h20.7v202.7h-20.7z"/><path d="M210.9 503.8h-26.1V295.7h26.1v208.1zm-20.8-5.4h15.3V301.1h-15.3v197.3z"/><path class="st1" d="M187.4 501.1c-5.2 9.2-36 7.5-44.1 22.5 5.1 16.3 103.4 16.9 108.9 0-8.2-15-39-13.3-44.1-22.5h-20.7z"/><path d="M198.4 538.7h-2c-8.6-.1-51.5-1.1-55.7-14.3l-.3-1.1.5-1c5.1-9.5 17.5-12.8 28.3-15.7 6.9-1.9 14.1-3.8 15.8-6.8l.8-1.4h23.8l.8 1.4c1.7 3 8.9 5 15.8 6.8 10.9 2.9 23.2 6.2 28.3 15.7l.6 1-.4 1.1c-1.7 5.1-8.6 8.8-21.1 11.3-9.6 1.9-22.1 3-35.2 3zm-52-15c3.5 4.7 22.2 9.4 50 9.6 29.2.2 49-4.6 52.7-9.6-4.5-6.6-15-9.4-24.3-11.9-7.9-2.1-14.8-4-18.2-8h-17.9c-3.3 4-10.3 5.9-18.2 8-9.1 2.5-19.6 5.3-24.1 11.9zm49.7-240.9c-45 0-87.3-4.4-119.1-12.3-42.3-10.5-51.1-23.3-51.1-32.2h5.4c0 18.9 66.2 39.1 164.9 39.1 98.6 0 164.9-20.2 164.9-39.1h5.4c0 8.9-8.9 21.6-51.1 32.2-32 8-74.3 12.3-119.3 12.3z"/><path class="st4" d="M261.6 267.3l-66-10.8.3-8.8 64.9 11z"/><path d="M262.4 268.2L195 257.1l.3-10.1 66.2 11.2.9 10zm-66.1-12.3l64.6 10.6-.7-7.2-63.7-10.8-.2 7.4z"/><path class="st4" d="M325.1 80l-60.9 6.8c-42.3 1-27.1 73.5-95 79.8l21.5 33.2c47.5 4.7 62.6-57.8 75.8-54.9 4.5 16.5 8.9 33 7.2 55.5l53.8 12.3-2.3 4.8 37.5 17.5c25.3 9.6 56.1-2.3 51.9-29.9-6.6-37.7-15.2-70.3-26.9-94.2-6.4-13.5-31.1-23-62.6-30.9z"/><path d="M380.6 241c-6.3 0-12.7-1.1-18.9-3.5-.1 0-.1 0-.2-.1L324.1 220c-.7-.3-1.2-.9-1.4-1.5-.2-.7-.2-1.4.1-2.1l.8-1.8-50.6-11.5c-1.3-.3-2.2-1.5-2.1-2.8 1.6-21.2-2.4-37.2-6.5-52.4-3.1 1.4-7.7 8.2-11.8 14.2-11.2 16.4-27.9 40.7-56.9 40.7-1.7 0-3.5-.1-5.3-.3-.8-.1-1.6-.5-2-1.2l-21.5-33.2c-.5-.8-.6-1.8-.2-2.6.4-.9 1.2-1.4 2.2-1.5 36.2-3.4 47.8-26.3 58.1-46.6 8.5-16.8 16.6-32.7 37-33.2l60.8-6.8c.3 0 .6 0 1 .1 38.5 9.7 58.4 19.7 64.5 32.4 10.9 22.4 19.8 53.4 27.1 94.9 1.7 11.3-1.9 21.2-10.2 27.9-7 5.4-16.6 8.3-26.6 8.3zm-16.8-8.5c14.2 5.3 30.2 3.7 39.9-4.2 6.9-5.5 9.7-13.4 8.3-22.8-7.2-41-15.9-71.5-26.6-93.5-6.9-14.3-37.7-23.6-60.5-29.4l-60.4 6.8h-.2c-17.2.4-23.9 13.6-32.4 30.3-10 19.7-22.3 43.9-58 49l18.5 28.4c28.3 2.1 44.3-21.2 55.9-38.2 7.2-10.5 12.4-18.1 18.8-16.7 1 .2 1.8 1 2 1.9 4.3 15.8 8.8 32.1 7.5 54.1l51.6 11.8c.8.2 1.5.7 1.8 1.5s.4 1.6 0 2.3l-1.1 2.4 34.9 16.3zM264.2 86.8z"/><path d="M327.5 215.7c-.4 0-.8-.1-1.2-.3-1.3-.7-1.9-2.3-1.2-3.6l15.5-31.2c.6-1.3 2.1-1.8 3.4-1.3l40.5 16.2c1.4.6 2.1 2.1 1.5 3.5-.6 1.4-2.1 2.1-3.5 1.5l-38.2-15.3-14.3 28.9c-.6 1.1-1.5 1.6-2.5 1.6z"/><path d="M370.3 195.2c-1.3 0-2.4-.9-2.7-2.2-.8-4.2-16.3-51.6-18.9-55.5-.9-1-1-2.6-.1-3.6 1-1.1 2.7-1.2 3.8-.2.8.7 2.2 2 11.3 29.4 4.4 13.1 8.8 27.3 9.1 29.1.3 1.5-.7 2.9-2.2 3.1 0-.2-.2-.1-.3-.1zm-21.4-57.6zm-82.5 10.3c-1.2 0-2.3-.8-2.6-2-3.7-13-7.5-17.5-7.6-17.6-1-1.1-.9-2.8.2-3.8s2.8-.9 3.8.2c.5.5 4.7 5.4 8.8 19.7.4 1.4-.4 2.9-1.9 3.3-.2.2-.4.2-.7.2z"/><path class="st5" d="M290.4 167.3c.3 1.3.4 2.6.4 3.9 0 10.8-8.6 19.6-19.2 19.6s-19.2-8.8-19.2-19.6c0-1.1.1-2.1.2-3.2l37.8-.7z"/><path d="M271.5 193.5c-12.1 0-21.9-10-21.9-22.3 0-1.2.1-2.4.3-3.6.2-1.3 1.3-2.2 2.6-2.3l37.8-.8h.1c1.3 0 2.4.9 2.6 2.2.3 1.5.4 3 .4 4.5.1 12.3-9.8 22.3-21.9 22.3zM255 170.7v.5c0 9.3 7.4 16.9 16.5 16.9s16.5-7.6 16.5-16.9V170l-33 .7z"/><ellipse transform="matrix(1 -.00607 .00607 1 -1.015 1.652)" class="st4" cx="271.5" cy="167.9" rx="19" ry="4.7"/><path d="M271 174.6c-5 0-9.8-.5-13.4-1.3-4.8-1.2-7.1-2.9-7.1-5.2 0-6.5 18.8-6.8 21-6.8 5.2 0 10.2.4 13.9 1.3 4.8 1.2 7.1 2.9 7.1 5.2 0 6.5-18.8 6.8-21 6.8h-.5zm-16.1-6.6c1.6 1 7.1 2.6 16.2 2.6h.5c9.3-.1 15-1.7 16.6-2.8-1.6-1-7.1-2.6-16.2-2.6h-.5c-9.3.1-15 1.7-16.6 2.8zm33.6.2z"/><path class="st6" d="M333.7 200.6l7.5-15.2c.2-.4-.1-.9-.5-.9-17.1-1.3-18.7-17.8-31-20.5h-.3c-5.4 1.2-10.7.9-15.6-1.2-.2-.1-.3-.1-.5 0-2.1.9-1.1 5.5 1.4 6.8.4.2.5.8.1 1.1-3.6 3-4.3 4.6-4.6 5.1-.8 1.1 1.3 2.9 2.4 2.5 1.4-.6 7.3-3.7 16.2-3.7l-14.5 4.6c-.1 0-.1.1-.2.1l-9.5 7.3c-.2.2-.3.4-.2.7.6 1.7 2.5 2.2 5.8 1.5.3-.1.7.1.8.5.3 1.2 1 2.1 2.7 2.4.3 0 .5.2.6.5.8 2.5 6.1 3.7 11.8 3.9.5 0 .8 3.2 4.3 4 13.6 2.7 16.1-1.4 22.7 1 .1-.1.4-.2.6-.5z"/><path d="M333.1 203c-.3 0-.6-.1-.9-.2-2.6-1-4.4-.7-7.1-.4-3.2.4-7.7 1-15.3-.5-3.2-.7-4.5-2.8-5.1-4-6.7-.5-10.8-2-12.2-4.6-1.7-.5-2.7-1.5-3.2-2.5-4.7.6-6.4-1.3-7-3.1-.3-1 0-2.2.9-2.9l6.8-5.3c-.5-.3-1-.7-1.3-1.2-1-1.3-1.1-2.8-.3-4l.1-.1c.4-.7 1.2-2.1 3.6-4.2-1.4-1.5-2.1-3.6-2.1-5.3.1-1.9.9-3.3 2.4-3.9.6-.3 1.4-.3 2.1 0 4.3 1.9 9 2.2 14.4 1.1.4-.1.8-.1 1.1 0 6.1 1.3 9.8 5.6 13.4 9.8 4.4 5.1 8.6 10 17.3 10.7.9.1 1.7.6 2.1 1.3.4.8.5 1.7.1 2.5l-7.5 15.2c-.4 1-1.3 1.6-2.3 1.6zm-42.9-16.4c1.2 0 2.3.8 2.6 2.1.1.4.1.6 1.1.8 1 .2 1.8.9 2.2 1.9.2.5 2.4 2.2 9.9 2.5 1.4.1 1.9 1.2 2.2 1.8.4.8.9 1.9 2.5 2.3 6.9 1.4 10.8.9 14 .5 2.6-.3 4.9-.6 7.8.2l6.1-12.4c-9.1-1.4-13.9-6.9-18.1-11.8-3.4-3.9-6.3-7.3-10.9-8.4-5.5 1.1-10.7.8-15.3-.9 0 .2 0 .5.1.8.2.8.7 1.6 1.3 1.8.8.4 1.3 1.2 1.4 2.1.1.9-.3 1.8-1 2.4-2.3 1.9-3.3 3.1-3.7 3.8 2.1-1 8.1-3.6 16.4-3.6 1 0 1.8.7 2 1.7s-.4 1.9-1.4 2.2l-14.3 4.5-7.8 6c.6 0 1.4 0 2.4-.2.1-.1.3-.1.5-.1zm4.6-5.6c-.1 0 0 0 0 0zm-1.1-9.7z"/><path d="M295.2 172.3c-1 0-1.8-.7-2-1.7-.2-1.1.6-2.1 1.7-2.3l11.5-1.8c1.1-.2 2.1.6 2.3 1.7.2 1.1-.6 2.1-1.7 2.3l-11.5 1.8h-.3zm-5.1 18.4c-.7 0-1.5-.4-1.8-1.1-.5-1-.1-2.2.9-2.7l8.8-4.4c.2-.1.4-.2.6-.2l11.4-1.6c1.1-.2 2.1.6 2.3 1.7.2 1.1-.6 2.1-1.7 2.3l-11.1 1.5-8.5 4.3c-.3.1-.6.2-.9.2z"/><path d="M294.1 193.5c-1 0-1.8-.7-2-1.7-.2-1.1.5-2.2 1.6-2.4l8.6-1.6h.1l9.4-1.2c1.1-.1 2.1.6 2.3 1.8.1 1.1-.6 2.1-1.8 2.3l-9.3 1.2-8.6 1.6h-.3z"/><path id="Keyboard_2_" class="st4" d="M124.2 224.7l81.3-8.1-85.1-23.5-11.4 1.5z"/><path d="M124.2 227.4c-1 0-1.9-.6-2.4-1.5l-15.2-30.1c-.4-.8-.4-1.7 0-2.5s1.2-1.3 2-1.4l11.4-1.5c.4 0 .7 0 1.1.1l85.1 23.6c1.3.3 2.1 1.5 2 2.8-.1 1.3-1.1 2.3-2.4 2.5l-81.3 8.1c-.2-.1-.3-.1-.3-.1zm-11.1-30.7l12.7 25.1 65.1-6.5-70.7-19.6-7.1 1z"/><path id="Screen_2_" class="st7" d="M31.2 132l52.9 11.9 40.1 80.8-58-20z"/><path d="M124.2 227.4c-.3 0-.6 0-.9-.1l-58-20c-.7-.2-1.2-.7-1.6-1.4l-35-72.8c-.4-.9-.3-2 .3-2.9.6-.8 1.7-1.2 2.7-1l52.9 11.9c.8.2 1.5.7 1.8 1.4l40 80.8c.5 1 .3 2.2-.4 3-.3.8-1.1 1.1-1.8 1.1zm-56.1-24.8l50.7 17.5-36.5-73.8-46.2-10.4 32 66.7z"/><path id="Left_2_" class="st7" d="M66.2 204.7v8l58.1 21.3-.1-9.3z"/><path d="M124.3 236.7c-.3 0-.6-.1-.9-.2l-58.2-21.3c-1.1-.4-1.8-1.4-1.8-2.5v-8c0-.9.4-1.7 1.1-2.2.7-.5 1.6-.6 2.4-.4l58 20c1.1.4 1.8 1.4 1.8 2.5l.2 9.3c0 .9-.4 1.7-1.1 2.3-.3.3-.9.5-1.5.5zm-55.4-25.9l52.7 19.3-.1-3.4-52.6-18.1v2.2z"/><path id="Right_2_" class="st7" d="M205.5 216.6v8.7l-81.2 8.7-.1-9.3z"/><path d="M124.3 236.7c-.7 0-1.3-.2-1.8-.7-.6-.5-.9-1.2-.9-2l-.2-9.3c0-1.4 1-2.6 2.4-2.7l81.3-8.1c.8-.1 1.5.2 2.1.7.6.5.9 1.2.9 2v8.7c0 1.4-1 2.5-2.4 2.7l-81.1 8.7h-.3zm2.6-9.5l.1 3.8 75.8-8.1v-3.3l-75.9 7.6zm-17.6-72.9c-.8 0-1.6-.4-2.1-1-.9-1.2-.7-2.9.5-3.8l14.9-11.6c1.2-.9 2.9-.7 3.8.5.9 1.2.7 2.9-.5 3.8L111 153.7c-.5.4-1.1.6-1.7.6zm-5.7-7.5c-.3 0-.7-.1-1-.2-1.4-.6-2-2.2-1.4-3.5l7.3-17.4c.6-1.4 2.2-2 3.5-1.4 1.4.6 2 2.2 1.4 3.5l-7.3 17.4c-.4 1-1.4 1.6-2.5 1.6zm10.7 15.2c-1.4 0-2.6-1.1-2.7-2.5-.1-1.5 1-2.8 2.5-2.9l18.8-1.2c1.5-.1 2.8 1 2.9 2.5.1 1.5-1 2.8-2.5 2.9l-18.8 1.2h-.2z"/><path class="st8" d="M203.3 219.1l-79.6 7.7"/><path d="M123.7 227.5c-.3 0-.6-.3-.7-.6 0-.4.2-.7.6-.7l79.6-7.8c.4 0 .7.2.7.6 0 .4-.2.7-.6.7l-79.6 7.8c.1 0 0 0 0 0z"/><path class="st8" d="M191.7 215.1l-69 6.7"/><path d="M122.7 222.5c-.3 0-.6-.3-.7-.6 0-.4.2-.7.6-.7l69-6.7c.4 0 .7.2.7.6 0 .4-.2.7-.6.7l-69 6.7z"/><path class="st8" d="M180.8 211.3l-60.4 5.9"/><path d="M120.4 217.9c-.3 0-.6-.3-.7-.6 0-.4.2-.7.6-.7l60.5-5.9c.4 0 .7.2.7.6 0 .4-.2.7-.6.7l-60.5 5.9z"/><path class="st8" d="M169.2 207.3l-50.8 5"/><path d="M118.4 212.9c-.3 0-.6-.3-.7-.6 0-.4.2-.7.6-.7l50.8-5c.4 0 .7.2.7.6 0 .4-.2.7-.6.7l-50.8 5z"/><path class="st8" d="M158.3 203.6l-42.6 4.1"/><path d="M115.7 208.4c-.3 0-.6-.3-.7-.6 0-.4.2-.7.6-.7l42.6-4.2c.4 0 .7.2.7.6 0 .4-.2.7-.6.7l-42.6 4.2c.1 0 .1 0 0 0z"/><path class="st8" d="M125.2 192.2l-16.2 1.5"/><path d="M109 194.4c-.3 0-.6-.3-.7-.6 0-.4.2-.7.6-.7l16.2-1.6c.4 0 .7.2.7.6 0 .4-.2.7-.6.7l-16.2 1.6z"/><path class="st8" d="M135.8 195.8l-25 2.5"/><path d="M110.8 199c-.3 0-.6-.3-.7-.6 0-.4.2-.7.6-.7l25-2.4c.4 0 .7.2.7.6 0 .4-.2.7-.6.7l-25 2.4c.1 0 0 0 0 0z"/><path class="st8" d="M158.3 203.6l-42.6 4.1"/><path d="M115.7 208.4c-.3 0-.6-.3-.7-.6 0-.4.2-.7.6-.7l42.6-4.2c.4 0 .7.2.7.6 0 .4-.2.7-.6.7l-42.6 4.2c.1 0 .1 0 0 0z"/><path class="st8" d="M146.7 199.6l-33.1 3.2"/><path d="M113.6 203.5c-.3 0-.6-.3-.7-.6 0-.4.2-.7.6-.7l33.1-3.2c.4 0 .7.2.7.6 0 .4-.2.7-.6.7l-33.1 3.2c.1 0 0 0 0 0z"/><path class="st8" d="M107.5 190.6l75.5 26"/><path d="M183 217.3h-.2l-75.5-26c-.4-.1-.5-.5-.4-.9.1-.4.5-.5.9-.4l75.5 26c.4.1.5.5.4.9-.2.2-.5.4-.7.4z"/><path class="st8" d="M109.8 195.3l65.5 22.6"/><path d="M175.3 218.5h-.2L109.6 196c-.4-.1-.5-.5-.4-.9.1-.4.5-.5.9-.4l65.5 22.5c.4.1.5.5.4.9-.2.3-.5.4-.7.4z"/><path class="st8" d="M111.3 200l55.3 19.1"/><path d="M166.6 219.7h-.2l-55.3-19c-.4-.1-.5-.5-.4-.9.1-.4.5-.5.9-.4l55.3 19c.4.1.5.5.4.9-.1.3-.4.4-.7.4z"/><path class="st8" d="M114.2 204.9l43 14.8"/><path d="M157.2 220.4h-.2l-43-14.8c-.4-.1-.5-.5-.4-.9.1-.4.5-.5.9-.4l43 14.8c.4.1.5.5.4.9-.2.2-.4.4-.7.4z"/><path class="st8" d="M116.7 209.9l30 10.4"/><path d="M146.7 220.9h-.2l-30-10.3c-.4-.1-.5-.5-.4-.9.1-.4.5-.5.9-.4l30 10.3c.4.1.5.5.4.9-.2.3-.4.4-.7.4z"/><path class="st8" d="M119.1 214.6l19.9 6.9"/><path d="M139 222.2h-.2l-19.9-6.8c-.4-.1-.5-.5-.4-.9s.5-.5.9-.4l19.9 6.8c.4.1.5.5.4.9-.2.2-.4.4-.7.4z"/><path class="st8" d="M120.3 219.2l9.4 3.3"/><path d="M129.7 223.1h-.2l-9.4-3.2c-.4-.1-.5-.5-.4-.9s.5-.5.9-.4l9.4 3.2c.4.1.5.5.4.9-.2.3-.5.4-.7.4z"/><path class="st6" d="M171.3 169.8c-9.8 3-17.5 3.4-26.8 0l-15.3 8.4-10.9 14.4c4.1 3.9 8.9.3 13.2-3.5l-3.2 12.9c3.8 1 5.9-1.5 7.3-5.1l-1.6 5.6c5.9 1.6 8.8-3.7 10.6-11.3 2.4 3.1 4.3 3.7 20.1.9 14.7 2.1 10.6-10.1 17-5.7l-10.4-16.6z"/><path d="M136.1 204.8c-.8 0-1.7-.1-2.5-.3-.4-.1-.8-.4-1.1-.7-1.4.6-2.9.6-4.6.2-1.1-.3-1.7-1.4-1.5-2.4l1.8-7.2c-3.3 2.1-7.5 3.3-11.2-.3-.7-.7-.8-1.9-.2-2.7l10.9-14.4.6-.6 15.3-8.4c.5-.3 1.1-.3 1.7-.1 8.4 3.1 15.5 3.1 25.5 0 .9-.3 1.8.1 2.3.8l10.5 16.5c.5.8.4 1.9-.3 2.5-.7.7-1.7.8-2.5.2-.6-.4-1-.6-1.1-.6-.2.2-.6.8-.9 1.2-1.7 2.5-4.5 6.7-13.9 5.5-11.5 2-16.2 2.4-19.1.8-1.5 4.6-3.3 7.3-5.7 8.8-1.3.8-2.6 1.2-4 1.2zm-.4-9.9c.2 0 .5 0 .7.1 1 .4 1.6 1.4 1.3 2.5l-.9 3.2c.4-.1.9-.2 1.3-.5 1.9-1.1 3.5-4.2 4.8-9.5.2-.8.8-1.3 1.6-1.5.8-.2 1.6.1 2 .8 1.6 2.1 2.2 2.9 18.2.1h.6c7.1 1 8.8-1.5 10.3-3.7.6-1 1.3-2 2.5-2.6l-7.4-11.6c-9.7 2.8-17.3 2.7-25.7-.2l-14.1 7.7-9.3 12.4c2.1.7 4.7-.7 8.9-4.5.7-.6 1.6-.7 2.4-.2.8.5 1.1 1.4.9 2.2l-2.6 10.5c.9-.4 1.9-1.4 2.9-3.9.1-.8.8-1.3 1.6-1.3z"/><path d="M131 193.1c-.2 0-.3 0-.5-.1-1.1-.3-1.7-1.4-1.4-2.5l3-11.5c.1-.5.4-.9.8-1.2l10.3-7c.9-.6 2.2-.4 2.8.5.6.9.4 2.2-.5 2.8l-9.6 6.5-2.8 10.8c-.4 1.1-1.2 1.7-2.1 1.7z"/><path d="M135.7 198.9c-.2 0-.3 0-.5-.1-1.1-.3-1.7-1.4-1.5-2.5l2.8-11.3c.1-.3.2-.6.5-.9 1.2-1.3 7-7.7 7.4-8 .8-.8 2.1-.8 2.9 0 .8.8.8 2.1 0 2.9-.3.3-4.2 4.6-6.9 7.5l-2.7 10.8c-.3 1-1.1 1.6-2 1.6z"/><path d="M144.7 193.2c-.7 0-1.4-.4-1.7-1l-1.1-1.8c-.3-.5-.4-1.1-.2-1.7.2-.6.6-1 1.2-1.2l9.9-3.6c.1 0 .2-.1.4-.1l7.1-1.1c1.1-.2 2.1.6 2.3 1.7.2 1.1-.6 2.1-1.7 2.3l-6.9 1.1-7.5 2.7c.4.9 0 2-.9 2.5-.2.2-.5.2-.9.2z"/><path d="M146.2 190.4c-.6 0-1.1-.2-1.5-.7-.7-.8-.7-2.1.2-2.9l7.5-6.7c.8-.7 2.1-.7 2.9.2.7.8.7 2.1-.2 2.9l-7.5 6.7c-.5.3-1 .5-1.4.5z"/><path id="Neck_2_" class="st6" d="M325.1 80.2c-6-1.5-11.8-10.2-16.1-18.7l-20.8 27.2c3.2 4.8 5.6 9.4 6.8 13.6.1 0 22.2 1.3 30.1-22.1z"/><path d="M295.7 105h-.8c-1.1-.1-2.1-.8-2.4-1.9-1.1-3.6-3.2-7.8-6.5-12.8-.6-1-.6-2.2.1-3.1L306.9 60c.6-.7 1.5-1.1 2.4-1.1.9.1 1.7.6 2.2 1.5 5.2 10.1 10.3 16.3 14.4 17.3.7.2 1.3.7 1.7 1.3.4.7.4 1.4.2 2.1-4.4 13-13 18.8-19.5 21.4-5.8 2.3-10.8 2.5-12.6 2.5zm-4.2-16.1c2.5 4 4.3 7.5 5.5 10.7 4.9-.3 18.3-2.4 24.6-17.8-4.3-2.3-8.7-7.4-13.1-15.3l-17 22.4z"/><path id="Face_2_" class="st6" d="M297 44.2c3.9-15.2 19.9-5.1 11.2 3.4 0 0 4.9 5.7-1.5 8 4.9 9.1 3.4 17.4-4.4 24.7-10.2 11.5-37.2 14.2-43.5 0l-20.6-41.7 17.6-10.4 30-1 11.2 17z"/><path d="M277.7 92.7c-1.8 0-3.6-.1-5.3-.4-7.7-1.2-13.4-5-15.9-10.8l-20.6-41.6c-.6-1.3-.2-2.8 1-3.5L254.4 26c.4-.2.8-.4 1.3-.4l30-1c.9 0 1.8.4 2.3 1.2l8.4 12.7c2.5-3.9 5.7-4.7 7.3-4.8 3.7-.3 7.3 1.8 8.9 5.1 1.4 2.9.9 6.2-1.1 9 .8 1.4 1.5 3.5.9 5.6-.3 1-.9 2.3-2.3 3.4 3.9 9.3 1.9 18-6 25.5-5.6 6.4-16.3 10.4-26.4 10.4zm-36-53l19.5 39.4s0 .1.1.1c2.3 5.2 7.7 7.1 11.9 7.7 9.7 1.5 21.6-2.2 27.1-8.4l.2-.2c7-6.5 8.2-13.3 3.9-21.5-.4-.7-.4-1.5-.1-2.2.3-.7.9-1.3 1.6-1.6.8-.3 1.4-.7 1.5-1 .2-.7-.5-2-1.1-2.7-.9-1.1-.8-2.7.2-3.7 1.6-1.6 2.1-3.2 1.5-4.6-.6-1.3-2.1-2.1-3.5-2-2.1.2-3.8 2.3-4.7 5.8-.3 1-1.1 1.8-2.2 2-1 .2-2.1-.3-2.7-1.2L284.4 30l-27.8 1-14.9 8.7z"/><path d="M305.4 57.2c-1.4 0-2.4-.4-3.1-.9-1.9-1.2-2.4-3.3-2.4-3.5-.2-1.1.5-2.2 1.5-2.4 1.1-.2 2.2.4 2.4 1.5.3 1 1.1 1.4 2.3 1.1 1.1-.2 2.2.4 2.4 1.5.2 1.1-.4 2.2-1.5 2.4-.5.2-1.1.3-1.6.3z"/><path id="Nose_2_" d="M244.2 57.8c.8-.9 1.7-1.4 2.6-1.4 6.9-.1 18.1 21.2 6.2 24.3-7 1.8-12.9-.7-11.1-5.4 4.7-6.7-1.6-12.4 2.3-17.5z" fill="#ff3500"/><path d="M248.6 83.3c-3.3 0-6-.9-7.6-2.7-1.5-1.6-1.8-3.8-.9-6 .1-.2.1-.3.2-.4 2-2.8 1.5-5.3 1-8.2-.5-2.9-1.1-6.2 1.3-9.3 0-.1.1-.1.1-.1 1.3-1.4 2.6-2.1 4.1-2.1h.1c5.8 0 12.2 9.5 13.2 17 .8 5.8-1.6 9.9-6.6 11.2-1.6.4-3.3.6-4.9.6zm-4.8-7.1c-.3.9 0 1.3.3 1.7 1.1 1.2 4.4 1.9 8.5.8 1.1-.3 4.3-1.1 3.6-6.8-.9-6.7-6.6-13.5-9.2-13.5-.1 0-.5.1-1.1.7-1.2 1.6-1 3.3-.5 6.1.4 3.1 1.1 6.9-1.6 11z"/><path id="Eye_2_" class="st4" d="M263.2 63s3.9-18.2 23.6-10.2c1.2.5-3.2 17.5-23.6 10.2z"/><path d="M272.5 66.8c-2.9 0-6.2-.6-10-1.9-1-.3-1.5-1.3-1.3-2.3.1-.3 1.8-8.3 8.8-12 4.8-2.5 10.7-2.4 17.6.3 1.1.4 2.2 1.8.8 5.5-2.1 5.4-7.3 10.4-15.9 10.4zm-6.8-5.1c6 1.8 11.1 1.4 14.7-1.3 2.8-2 4-4.8 4.4-6.2-5.2-1.8-9.5-1.9-12.9 0-3.6 1.9-5.4 5.4-6.2 7.5zm20.4-7z"/><path id="Eyeball_1_" d="M267.3 55.9s7-.3 10.2 7.9l-.9.1-2.1.3h-2.1l-1.4-.1-1.9-.3-2.2-.5-1.7-.5-.8-.6 2.9-6.3z"/><path id="Hair_2_" d="M308.1 37c-3.3-48.4-72.6-38.3-72.1-3.4l2.2 5.1 32.2-10.3c-2.4 8.7-4.4 13.7 3.4 13.9 6.6.2 4.5-4.7 6.3-7.7 2.4-4 10.8-2 9.8 2.2-2.3 6.3 2.2 9.6 7.5 5.3.4-4.6 5.3-7.6 10.7-5.1z"/><path d="M292.8 46.7c-1.4 0-2.7-.4-3.6-1.1-2-1.5-3.6-4.7-2-9.5-.1-.3-.9-.8-2.3-.9-.9-.1-2.1.1-2.5.8-.3.5-.4 1.3-.6 2.2-.4 2.5-1.3 7.1-8.1 6.9-3.3-.1-5.6-1-6.9-2.8-1.8-2.5-1.4-5.6-.3-9.8L239 41.3c-1.3.4-2.8-.2-3.3-1.5l-2.2-5.1c-.1-.3-.2-.7-.2-1-.1-9 4-17.3 11.7-23.3 6.9-5.4 16.2-8.7 25.8-9.1 18.7-.8 38.2 9.9 40 35.5.1.9-.4 1.9-1.2 2.4-.8.5-1.8.6-2.7.2-1.8-.8-3.7-.9-5-.1-1.1.6-1.8 1.7-1.9 3-.1.7-.4 1.4-1 1.8-2.2 2-4.4 2.6-6.2 2.6zm-8.2-16.9c1.3 0 2.6.3 3.8.7 3.2 1.3 4.8 4 4 6.9 0 .1 0 .2-.1.2-.8 2.2-.4 3.3-.1 3.5.3.2 1.2.2 2.5-.7.6-2.5 2.1-4.6 4.4-5.9 1.7-1 3.7-1.4 5.8-1.3-3.2-20.5-19.9-27.3-34-26.7-15.9.7-32.2 10.7-32.3 26.3l1 2.3 29.9-9.5c.9-.3 2-.1 2.7.6.7.7 1 1.7.7 2.7-.2.7-.4 1.3-.5 1.9-.9 3.2-2 7.2-1.3 8 .1.2.9.6 2.7.6 2.3.1 2.3-.1 2.7-2.4.2-1.2.5-2.7 1.3-4 1.4-2.2 4.1-3.2 6.8-3.2zM284.1 80.6c-2 0-4-.5-5.7-1.8-.9-.7-1-2-.3-2.8.7-.9 2-1 2.8-.3 2.1 1.7 5.7 1 8.2-.5 2-1.2 3.2-2.9 2.9-4.2-.2-1.1.5-2.2 1.6-2.4 1.1-.2 2.2.5 2.4 1.6.6 3-1.3 6.2-4.8 8.4-1.9 1.2-4.5 2-7.1 2z"/><path class="st8" d="M261.6 258.7v8.6l39.4-39-.1-8.5z"/><path d="M261.6 269.4c-.3 0-.5-.1-.8-.2-.8-.3-1.2-1.1-1.2-1.9v-8.6c0-.5.2-1.1.6-1.4l39.3-38.9c.6-.6 1.4-.7 2.2-.4.8.3 1.2 1 1.2 1.9v8.5c0 .5-.2 1.1-.6 1.4L263 268.9c-.3.3-.8.5-1.4.5zm2.1-9.8v2.9l35.3-35v-2.8l-35.3 34.9z"/><path d="M260.8 264.3h-.2L195 253.5c-.7-.1-1.2-.8-1.1-1.6.1-.7.8-1.2 1.6-1.1l65.6 10.8c.7.1 1.2.8 1.1 1.6-.2.6-.7 1.1-1.4 1.1z"/><g><path class="st8" d="M195.9 247.7l65.7 11 39.3-38.9-60.4-8.3z"/><path d="M261.6 260.7h-.3l-65.8-11c-.8-.1-1.4-.7-1.6-1.5-.2-.8.1-1.6.7-2.1l44.6-36.2c.4-.4 1-.5 1.6-.4l60.5 8.3c.8.1 1.4.6 1.6 1.4s.1 1.5-.5 2.1l-39.3 38.9c-.4.3-.9.5-1.5.5zm-61-14.2l60.3 10.1 35.6-35.3-55.5-7.7-40.4 32.9z"/></g><path d="M261.6 269.4h-.3l-65.9-10.9c-1.1-.2-1.9-1.2-1.7-2.3.2-1.1 1.2-1.9 2.3-1.7l63.6 10.5v-4.5l-64.1-10.7c-1.1-.2-1.8-1.2-1.7-2.3.2-1.1 1.2-1.8 2.3-1.7l65.8 11c1 .2 1.7 1 1.7 2l-.1 8.6c0 .6-.3 1.2-.7 1.5-.3.3-.8.5-1.2.5z"/><g><path class="st8" d="M287.2 255.4l2.4 4.2 36.7-24-2.3-4.3z"/><path d="M289.6 260.9h-.3c-.4-.1-.7-.3-.9-.7l-2.3-4.2c-.3-.6-.1-1.4.4-1.8l36.7-24c.3-.2.7-.3 1.1-.2.4.1.7.3.9.7l2.3 4.2c.3.6.1 1.4-.4 1.8l-36.7 24c-.3.2-.6.2-.8.2zm-.6-5.1l1 1.9 34.5-22.5-1-1.9-34.5 22.5z"/></g><g><path class="st4" d="M279.9 263l9.7-3.4-2.4-4.2z"/><path d="M279.9 264.3c-.5 0-.9-.2-1.1-.6-.3-.5-.3-1.2.2-1.7l7.4-7.6c.3-.3.7-.5 1.2-.4.4.1.8.3 1 .7l2.3 4.2c.2.3.2.8.1 1.1-.1.4-.4.7-.8.8l-9.7 3.4c-.3.1-.5.1-.6.1zm7-6.7l-2.1 2.2 2.8-1-.7-1.2z"/></g></svg>