<svg width="160" height="160" viewBox="0 0 160 160" fill="none" xmlns="http://www.w3.org/2000/svg">
<path d="M138.282 32.7432H86.719C85.4758 32.7432 84.2835 33.237 83.4044 34.1161C82.5254 34.9952 82.0315 36.1875 82.0315 37.4307V83.9541C82.0222 84.8507 82.2751 85.7304 82.7592 86.4852C83.2432 87.2399 83.9373 87.8367 84.7561 88.2022C85.5619 88.5782 86.4581 88.7173 87.3399 88.6031C88.2218 88.489 89.053 88.1264 89.7366 87.5576L99.0237 79.7354L138.282 79.6182C139.525 79.6182 140.717 79.1243 141.596 78.2452C142.475 77.3662 142.969 76.1739 142.969 74.9307V37.4307C142.969 36.1875 142.475 34.9952 141.596 34.1161C140.717 33.237 139.525 32.7432 138.282 32.7432ZM121.875 63.2119H103.125C102.504 63.2119 101.908 62.965 101.468 62.5254C101.028 62.0859 100.782 61.4898 100.782 60.8682C100.782 60.2466 101.028 59.6504 101.468 59.2109C101.908 58.7713 102.504 58.5244 103.125 58.5244H121.875C122.497 58.5244 123.093 58.7713 123.533 59.2109C123.972 59.6504 124.219 60.2466 124.219 60.8682C124.219 61.4898 123.972 62.0859 123.533 62.5254C123.093 62.965 122.497 63.2119 121.875 63.2119ZM121.875 53.8369H103.125C102.504 53.8369 101.908 53.59 101.468 53.1504C101.028 52.7109 100.782 52.1148 100.782 51.4932C100.782 50.8716 101.028 50.2754 101.468 49.8359C101.908 49.3963 102.504 49.1494 103.125 49.1494H121.875C122.497 49.1494 123.093 49.3963 123.533 49.8359C123.972 50.2754 124.219 50.8716 124.219 51.4932C124.219 52.1148 123.972 52.7109 123.533 53.1504C123.093 53.59 122.497 53.8369 121.875 53.8369Z" fill="#78C4BC"/>
<line x1="17.5" y1="120" x2="142.5" y2="120" stroke="#C7E7E2" stroke-width="2.5"/>
<line x1="42.5" y1="125" x2="117.5" y2="125" stroke="#C7E7E2" stroke-width="2.5"/>
<path d="M62.3242 100.4L71.7871 108.311C72.1286 108.593 72.5431 108.773 72.9827 108.83C73.4223 108.886 73.8689 108.817 74.2707 108.63C74.6725 108.442 75.013 108.145 75.2527 107.773C75.4924 107.4 75.6215 106.967 75.625 106.523V60C75.625 59.3784 75.3781 58.7823 74.9385 58.3427C74.499 57.9032 73.9029 57.6562 73.2812 57.6562H21.7188C21.0971 57.6562 20.501 57.9032 20.0615 58.3427C19.6219 58.7823 19.375 59.3784 19.375 60V97.5C19.375 98.1216 19.6219 98.7178 20.0615 99.1573C20.501 99.5968 21.0971 99.8438 21.7188 99.8438H60.8301C61.3788 99.8439 61.9092 100.041 62.3242 100.4Z" fill="white" stroke="#333333" stroke-width="3.51563" stroke-linecap="round" stroke-linejoin="round"/>
<path d="M47.5 81.6797C45.882 81.6797 44.5703 80.368 44.5703 78.75C44.5703 77.132 45.882 75.8203 47.5 75.8203C49.118 75.8203 50.4297 77.132 50.4297 78.75C50.4297 80.368 49.118 81.6797 47.5 81.6797Z" fill="#78C4BC"/>
<path d="M33.4375 81.6797C31.8195 81.6797 30.5078 80.368 30.5078 78.75C30.5078 77.132 31.8195 75.8203 33.4375 75.8203C35.0555 75.8203 36.3672 77.132 36.3672 78.75C36.3672 80.368 35.0555 81.6797 33.4375 81.6797Z" fill="#78C4BC"/>
<path d="M61.5625 81.6797C59.9445 81.6797 58.6328 80.368 58.6328 78.75C58.6328 77.132 59.9445 75.8203 61.5625 75.8203C63.1805 75.8203 64.4922 77.132 64.4922 78.75C64.4922 80.368 63.1805 81.6797 61.5625 81.6797Z" fill="#78C4BC"/>
</svg>
