<svg xmlns="http://www.w3.org/2000/svg" xmlns:xlink="http://www.w3.org/1999/xlink" width="31px" height="30px" viewBox="0 0 31 30"><title>Group 4</title><g id="Page-1" stroke="none" stroke-width="1" fill="none" fill-rule="evenodd"><g id="Artboard-1" transform="translate(-401.000000, -1740.000000)"><g id="Group-4" transform="translate(401.833300, 1740.418800)"><path d="M29.026,14.546 C29.026,22.58 22.528,29.092 14.513,29.092 C6.498,29.092 0,22.58 0,14.546 C0,6.512 6.498,4.54747351e-13 14.513,4.54747351e-13 C22.528,4.54747351e-13 29.026,6.512 29.026,14.546 Z" id="Stroke-226" stroke="#8F855C" stroke-width="0.5"></path><path d="M24.0575,7.0621 C23.8615,7.4091 23.5335,7.4761 23.1795,7.4511 C22.9395,7.4351 22.7005,7.3841 22.4635,7.3341 C22.3535,7.3111 22.2915,7.3131 22.2285,7.4281 C22.0215,7.7991 21.7235,7.8811 21.3715,7.6421 C21.1425,7.4861 20.9505,7.2781 20.7335,7.0871 C20.7155,7.1241 20.6875,7.1821 20.6595,7.2381 C20.5025,7.5481 20.2385,7.6791 19.9175,7.5511 C19.6515,7.4431 19.4085,7.2771 19.1375,7.1271 C19.0075,7.3381 18.8075,7.5151 18.5055,7.5251 C18.1855,7.5351 17.9185,7.3961 17.6555,7.2161 C17.6675,7.1891 17.6725,7.1641 17.6865,7.1481 C18.3805,6.3381 19.2065,5.7361 20.2735,5.5201 C21.1905,5.3331 22.0465,5.5301 22.8305,6.0081 C23.2625,6.2721 23.6495,6.6091 24.0575,6.9121 L24.0575,7.0621 Z" id="Fill-228" fill="#8F855C"></path><path d="M14.3355,17.7542 C14.1305,17.7542 13.9415,17.7592 13.7525,17.7532 C13.3935,17.7412 13.2215,17.4392 13.3985,17.1262 C13.4465,17.0412 13.5115,16.9592 13.5865,16.8982 C14.1815,16.4162 14.7865,15.9472 15.3745,15.4572 C15.5105,15.3442 15.6165,15.1862 15.5825,14.9692 C15.5365,14.6742 15.5175,14.3752 15.4915,14.0782 C15.4725,13.8552 15.4795,13.8512 15.7165,13.9182 C15.7165,13.6912 15.7205,13.4702 15.7135,13.2492 C15.7125,13.2072 15.6665,13.1282 15.6505,13.1302 C15.5825,13.1412 15.5075,13.1632 15.4525,13.2042 C15.3185,13.3042 15.3225,13.3092 15.2305,13.2102 C15.2535,13.1822 15.2755,13.1512 15.3025,13.1262 C15.4185,13.0212 15.5345,12.9002 15.7105,12.9742 C15.8835,13.0472 15.8665,13.2082 15.8675,13.3582 C15.8685,13.5762 15.8025,13.8372 15.8995,13.9982 C15.9975,14.1572 16.2615,14.2162 16.4525,14.3182 C16.5185,14.3532 16.5865,14.3842 16.6515,14.4192 C16.8075,14.5032 16.8115,14.5572 16.6625,14.6442 C16.4155,14.7892 16.1615,14.9212 15.9205,15.0762 C15.7865,15.1632 15.6755,15.2842 15.5375,15.4042 C15.6045,15.4592 15.6325,15.4812 15.6595,15.5042 C15.7975,15.6242 15.8025,15.7172 15.6685,15.8462 C15.3585,16.1432 15.0455,16.4382 14.7355,16.7362 C14.6795,16.7892 14.6325,16.8522 14.5815,16.9102 C14.5905,16.9232 14.5995,16.9362 14.6085,16.9492 C14.6685,16.9272 14.7325,16.9112 14.7905,16.8822 C15.4235,16.5642 16.0575,16.2472 16.6875,15.9222 C16.9215,15.8012 17.1115,15.8092 17.3225,15.9742 C17.5965,16.1902 17.7315,16.5562 17.5935,16.8952 C17.4875,17.1532 17.3405,17.4212 17.1425,17.6102 C16.5195,18.2022 15.8585,18.7562 15.1105,19.1882 C14.8405,19.3442 14.5375,19.4562 14.2365,19.5462 C13.8115,19.6732 13.3975,19.5202 12.9905,19.4172 C11.9965,19.1682 11.0065,18.9052 10.0165,18.6392 C9.6775,18.5482 9.3705,18.5742 9.0465,18.7362 C8.0295,19.2442 7.0025,19.7332 5.9705,20.2122 C5.7445,20.3172 5.4875,20.3662 5.2395,20.4042 C5.1585,20.4172 5.0125,20.3332 4.9805,20.2582 C4.9435,20.1702 4.9585,20.0052 5.0205,19.9402 C5.1735,19.7802 5.3535,19.6382 5.5435,19.5252 C6.1795,19.1472 6.8245,18.7822 7.4675,18.4162 C7.8995,18.1692 8.3475,17.9472 8.7665,17.6812 C9.1985,17.4072 9.6475,17.3802 10.1285,17.4732 C11.2205,17.6822 12.3135,17.8882 13.4075,18.0882 C13.4985,18.1042 13.6075,18.0862 13.6945,18.0502 C13.9105,17.9632 14.1195,17.8562 14.3355,17.7542 M16.4935,14.5892 C16.4945,14.5652 16.4955,14.5412 16.4975,14.5172 C16.2205,14.3772 15.9425,14.2372 15.6525,14.0902 C15.7015,14.5762 15.7015,14.5762 16.1495,14.6182 C16.1675,14.6202 16.1865,14.6232 16.2045,14.6222 C16.3015,14.6112 16.3975,14.6002 16.4935,14.5892" id="Fill-230" fill="#8F855C"></path><path d="M22.1206,21.307 C22.4726,21.384 22.8006,21.449 23.1246,21.531 C23.1956,21.55 23.2496,21.632 23.3126,21.684 C23.2486,21.736 23.1916,21.821 23.1206,21.835 C22.7006,21.918 22.2806,22.011 21.8556,22.049 C20.9786,22.129 20.0996,22.112 19.2246,22.015 C18.9596,21.986 18.6966,21.932 18.4376,21.866 C18.3346,21.84 18.2466,21.75 18.1516,21.689 C18.2436,21.625 18.3266,21.525 18.4266,21.504 C18.8036,21.427 19.1836,21.365 19.5656,21.318 C19.8246,21.286 20.0886,21.294 20.3486,21.27 C20.4016,21.265 20.4806,21.203 20.4936,21.153 C20.7346,20.232 20.9296,19.3 20.9896,18.348 C21.0386,17.566 21.0876,16.779 21.0566,15.997 C20.9686,13.711 20.3626,11.583 18.9966,9.711 C18.5516,9.099 18.0356,8.55 17.4606,8.057 C17.3476,7.961 17.1936,7.855 17.2906,7.691 C17.3906,7.522 17.5726,7.594 17.7146,7.648 C18.1866,7.829 18.5466,8.168 18.8866,8.525 C19.9016,9.592 20.6026,10.855 21.1386,12.215 C21.7206,13.694 22.0546,15.231 22.1936,16.813 C22.3206,18.265 22.2946,19.713 22.1206,21.158 C22.1166,21.196 22.1136,21.233 22.1136,21.27 C22.1136,21.288 22.1206,21.306 22.1206,21.307" id="Fill-232" fill="#8F855C"></path><path d="M14.3077,21.2739 C14.0157,21.2159 13.5937,21.1409 13.1767,21.0449 C12.1597,20.8129 11.1457,20.5709 10.1297,20.3319 C9.8777,20.2729 9.6277,20.1969 9.3717,20.1589 C9.2637,20.1419 9.1357,20.1839 9.0317,20.2319 C7.8877,20.7639 6.7477,21.3029 5.6047,21.8379 C5.3567,21.9539 5.1257,21.8769 5.0217,21.6559 C4.9177,21.4369 5.0107,21.2089 5.2617,21.0909 C6.3147,20.5989 7.3717,20.1169 8.4197,19.6139 C8.7497,19.4549 9.0717,19.2999 9.4457,19.3309 C9.6247,19.3449 9.8037,19.3729 9.9787,19.4139 C11.2647,19.7209 12.5497,20.0289 13.8337,20.3429 C14.2077,20.4349 14.5857,20.5029 14.9537,20.3639 C15.1757,20.2799 15.4007,20.1609 15.5757,20.0039 C16.6647,19.0259 17.7397,18.0319 18.8227,17.0459 C18.9067,16.9699 19.0107,16.8949 19.1177,16.8659 C19.3077,16.8139 19.4837,16.9129 19.5667,17.0829 C19.6497,17.2499 19.6167,17.4319 19.4637,17.5749 C19.1777,17.8429 18.8857,18.1059 18.5967,18.3709 C17.7777,19.1189 16.9567,19.8649 16.1417,20.6169 C15.6597,21.0619 15.0857,21.2549 14.3077,21.2739" id="Fill-234" fill="#8F855C"></path><path d="M16.768,7.3254 C16.618,8.0674 16.27,8.3294 15.561,8.2514 C15.526,8.4004 15.495,8.5514 15.455,8.6994 C15.431,8.7894 15.401,8.8784 15.361,8.9614 C15.165,9.3754 14.857,9.4854 14.443,9.2924 C14.415,9.2794 14.388,9.2664 14.352,9.2494 C14.332,9.4934 14.327,9.7274 14.292,9.9564 C14.214,10.4614 13.907,10.6494 13.425,10.4854 C13.31,10.4464 13.288,10.5114 13.236,10.5714 C13.032,10.8054 12.835,11.0464 12.613,11.2614 C12.516,11.3554 12.371,11.4154 12.237,11.4544 C11.938,11.5414 11.757,11.3944 11.792,11.0934 C11.904,10.1184 12.185,9.2064 12.851,8.4544 C13.461,7.7654 14.248,7.3974 15.147,7.2974 C15.619,7.2454 16.102,7.2874 16.58,7.2894 C16.64,7.2904 16.699,7.3114 16.768,7.3254" id="Fill-236" fill="#8F855C"></path><path d="M15.2687,6.2742 C14.7357,6.4652 14.2617,6.2742 13.8417,5.8652 C13.7887,5.8142 13.6917,5.7952 13.6127,5.7862 C13.2307,5.7452 12.8457,5.7232 12.4657,5.6722 C12.3557,5.6572 12.2557,5.5682 12.1087,5.4912 C13.1367,4.9312 14.1347,4.5352 15.2567,4.9362 C16.1757,5.2652 16.7067,5.9852 17.1017,6.8852 C16.5227,6.8192 15.9767,6.7902 15.4807,6.5372 C15.3957,6.4932 15.3477,6.3762 15.2687,6.2742" id="Fill-238" fill="#8F855C"></path><path d="M18.1756,13.5274869 C18.8066,13.5245 19.3236,14.0385 19.3306,14.6755 C19.3376,15.2945 18.8116,15.8275 18.1826,15.8385 C17.5506,15.8495 17.0136,15.3185 17.0145986,14.6825 C17.0166,14.0305 17.5186,13.5305 18.1756,13.5274869" id="Fill-240" fill="#8F855C"></path><path d="M18.845,8.7512 C18.572,9.4632 17.92,9.7472 17.339,10.1112 C17.317,10.1032 17.295,10.0962 17.272,10.0882 C17.321,9.7882 17.344,9.4812 17.421,9.1882 C17.729,8.0172 18.595,7.3302 19.807,7.2772 C19.993,7.2692 20.18,7.2812 20.367,7.2732 C20.504,7.2682 20.556,7.3482 20.535,7.4562 C20.513,7.5662 20.475,7.6982 20.397,7.7672 C20.237,7.9102 20.05,8.0242 19.866,8.1372 C19.791,8.1832 19.746,8.2152 19.752,8.3172 C19.769,8.6412 19.648,8.7682 19.318,8.7782 C19.164,8.7822 19.01,8.7612 18.845,8.7512" id="Fill-242" fill="#8F855C"></path><path d="M15.6524,14.0905 C15.9424,14.2375 16.2204,14.3775 16.4974,14.5175 C16.4964,14.5415 16.4944,14.5655 16.4934,14.5885 C16.3974,14.5995 16.3014,14.6115 16.2054,14.6215 C16.1864,14.6235 16.1674,14.6205 16.1494,14.6185" id="Fill-244" fill="#8F855C"></path></g></g></g></svg>