<svg xmlns="http://www.w3.org/2000/svg" xmlns:xlink="http://www.w3.org/1999/xlink" width="31px" height="30px" viewBox="0 0 31 30"><title>Group 5</title><g id="Page-1" stroke="none" stroke-width="1" fill="none" fill-rule="evenodd"><g id="Artboard-1" transform="translate(-490.000000, -1740.000000)"><g id="Group-5" transform="translate(490.831200, 1740.418800)"><path d="M29.026,14.546 C29.026,22.58 22.528,29.092 14.513,29.092 C6.498,29.092 0,22.58 0,14.546 C0,6.512 6.498,4.54747351e-13 14.513,4.54747351e-13 C22.528,4.54747351e-13 29.026,6.512 29.026,14.546 Z" id="Stroke-102" stroke="#8F855C" stroke-width="0.5"></path><path d="M14.7953,4.1876 C14.8003,4.7576 14.8373,5.3306 14.7983,5.8976 C14.7673,6.3556 14.8923,6.6906 15.2473,6.9856 C15.5913,7.2716 15.8893,7.6136 16.2063,7.9316 C16.3183,8.0446 16.4073,8.1636 16.3293,8.3346 C16.2553,8.4986 16.1183,8.52862619 15.9543,8.52862619 C14.9823,8.5256 14.0113,8.5256 13.0393,8.52862619 C12.8753,8.5296 12.7303,8.5026 12.6623,8.3376 C12.5933,8.1676 12.6743,8.0386 12.7963,7.9186 C13.2243,7.4966 13.6493,7.0706 14.0703,6.6416 C14.1233,6.5876 14.1733,6.5006 14.1733,6.4286 C14.1803,5.6816 14.1763,4.9346 14.1753,4.1876 L14.7953,4.1876 Z M13.7493,7.8916 L15.2213,7.8916 C14.9763,7.6446 14.7263,7.3926 14.4903,7.1546 C14.2533,7.3906 14.0053,7.6376 13.7493,7.8916 L13.7493,7.8916 Z" id="Fill-106" fill="#8F855C"></path><path d="M15.4457,20.9117 C15.7167,20.9117 15.9717,20.9107 16.2257,20.9117 C16.5747,20.9137 16.6657,21.0067 16.6667,21.3597 C16.6677,21.6937 16.6687,22.0287 16.6657,22.3627 C16.6637,22.6717 16.5547,22.7827 16.2517,22.7827 C15.0787,22.7837 13.9057,22.7847 12.7327,22.7827 C12.4417,22.7827 12.3217,22.6627 12.3197,22.3737 C12.3167,22.0217 12.3167,21.6687 12.3197,21.3167 C12.3217,21.0347 12.4347,20.9177 12.7167,20.9127 C12.9887,20.9077 13.2617,20.9117 13.5467,20.9117 L13.5467,14.4157 L13.3247,14.4157 C12.2187,14.4157 11.1127,14.4157 10.0067,14.4147 C9.6187,14.4147 9.5397,14.3337 9.5387,13.9427 C9.5387,13.5957 9.5367,13.2497 9.5407,12.9027 C9.5427,12.6747 9.6587,12.5597 9.8867,12.5447 C9.9347,12.5417 9.9837,12.5437 10.0317,12.5437 C13.0107,12.5437 15.9887,12.5437 18.9667,12.5437 C19.3667,12.5437 19.4597,12.6377 19.4597,13.0377 C19.4607,13.3537 19.4607,13.6697 19.4597,13.9857 C19.4587,14.3027 19.3527,14.4137 19.0347,14.4147 C17.9157,14.4167 16.7977,14.4157 15.6787,14.4157 L15.4457,14.4157 L15.4457,20.9117 Z M18.8297,13.7737 C18.8297,13.6377 18.8187,13.5107 18.8327,13.3857 C18.8517,13.2147 18.7847,13.1747 18.6197,13.1747 C15.8677,13.1797 13.1167,13.1787 10.3647,13.1787 C10.3007,13.1787 10.2377,13.1847 10.1727,13.1887 L10.1727,13.7737 L18.8297,13.7737 Z M14.2017,20.9017 L14.7917,20.9017 L14.7917,14.4327 L14.2017,14.4327 L14.2017,20.9017 Z M12.9637,22.1417 L16.0237,22.1417 L16.0237,21.5527 L12.9637,21.5527 L12.9637,22.1417 Z" id="Fill-108" fill="#8F855C"></path><path d="M9.5422,18.7526 C8.6792,18.7526 7.8482,18.7526 6.9882,18.7526 C6.6012,20.1066 6.2092,21.4776 5.8132,22.8636 C5.6102,22.8066 5.4212,22.7536 5.2092,22.6936 C5.6082,21.2946 6.0052,19.9066 6.4052,18.5036 C5.8222,18.1436 5.7022,17.5616 5.6412,16.9376 C5.5492,15.9776 5.4292,15.0196 5.3272,14.0606 C5.3012,13.8146 5.2632,13.5596 5.2992,13.3186 C5.3672,12.8586 5.7662,12.5566 6.2312,12.5615388 C6.6732,12.5656 7.0602,12.8866 7.1312,13.3396 C7.2512,14.0996 7.3532,14.8636 7.4632,15.6256 C7.5222,16.0396 7.5822,16.4536 7.6442,16.8826 L8.5442,16.8826 C8.9572,16.8826 9.3712,16.8806 9.7842,16.8826 C10.2632,16.8846 10.6332,17.1496 10.7452,17.5686 C10.8642,18.0106 10.6842,18.4006 10.2592,18.6576 C10.2052,18.6896 10.1672,18.7906 10.1662,18.8596 C10.1612,20.0936 10.1622,21.3276 10.1622,22.5616 L10.1622,22.7706 L9.5422,22.7706 L9.5422,18.7526 Z M8.5022,18.1216 C8.9392,18.1216 9.3762,18.1236 9.8132,18.1206 C10.0092,18.1196 10.1392,18.0036 10.1502,17.8346 C10.1612,17.6686 10.0402,17.5406 9.8452,17.5166 C9.7852,17.5086 9.7242,17.5106 9.6632,17.5106 C8.9412,17.5106 8.2182,17.5116 7.4962,17.5106 C7.1732,17.5096 7.0882,17.4396 7.0392,17.1216 C6.9952,16.8346 6.9592,16.5456 6.9182,16.2576 C6.7852,15.3286 6.6522,14.3986 6.5162,13.4696 C6.4862,13.2666 6.3502,13.1656 6.1622,13.1906 C5.9972,13.2116 5.8872,13.3596 5.9022,13.5476 C5.9102,13.6626 5.9262,13.7766 5.9392,13.8906 C6.0592,14.9696 6.1912,16.0466 6.2942,17.1266 C6.3642,17.8616 6.8482,18.1596 7.3912,18.1266 C7.7602,18.1036 8.1312,18.1216 8.5022,18.1216 L8.5022,18.1216 Z" id="Fill-110" fill="#8F855C"></path><path d="M21.3501,16.8823 C21.5161,15.7083 21.6771,14.5623 21.8411,13.4163 C21.9081,12.9423 22.2391,12.6133 22.6821,12.5693 C23.1241,12.5253 23.5321,12.7653 23.6551,13.1923 C23.7131,13.3943 23.7071,13.6243 23.6861,13.8363 C23.5911,14.7663 23.4791,15.6933 23.3741,16.6213 C23.3471,16.8623 23.3181,17.1033 23.2941,17.3453 C23.2511,17.7783 23.0611,18.1363 22.7211,18.4023 C22.6061,18.4923 22.6001,18.5663 22.6351,18.6893 C23.0081,19.9803 23.3751,21.2733 23.7441,22.5663 C23.7541,22.6003 23.7611,22.6353 23.7751,22.6913 C23.5811,22.7483 23.3931,22.8043 23.1781,22.8673 C22.7851,21.4903 22.3931,20.1213 22.0021,18.7533 L19.4671,18.7533 L19.4671,22.7673 L18.8411,22.7673 C18.8381,22.7013 18.8301,22.6313 18.8301,22.5613 C18.8301,21.3273 18.8291,20.0943 18.8311,18.8603 C18.8321,18.7563 18.8161,18.6883 18.7071,18.6313 C18.3211,18.4293 18.1381,18.0113 18.2361,17.6023 C18.3351,17.1883 18.6951,16.8903 19.1341,16.8853 C19.8021,16.8773 20.4711,16.8823 21.1391,16.8823 L21.3501,16.8823 Z M20.4841,18.1223 C20.8911,18.1223 21.2981,18.1233 21.7061,18.1213 C22.2561,18.1193 22.6211,17.7703 22.6781,17.2193 C22.7521,16.5013 22.8411,15.7853 22.9201,15.0673 C22.9771,14.5543 23.0331,14.0413 23.0781,13.5283 C23.0961,13.3293 22.9921,13.2103 22.8251,13.1903 C22.6421,13.1683 22.5191,13.2533 22.4781,13.4563 C22.4371,13.6643 22.4111,13.8753 22.3811,14.0853 C22.2381,15.0813 22.1001,16.0783 21.9521,17.0743 C21.8921,17.4773 21.8421,17.5103 21.4331,17.5103 C20.6971,17.5103 19.9621,17.5083 19.2271,17.5123 C18.9761,17.5133 18.8371,17.6333 18.8421,17.8273 C18.8481,18.0173 18.9821,18.1213 19.2261,18.1213 C19.6451,18.1223 20.0641,18.1223 20.4841,18.1223 L20.4841,18.1223 Z" id="Fill-112" fill="#8F855C"></path></g></g></g></svg>