<svg xmlns="http://www.w3.org/2000/svg" xmlns:xlink="http://www.w3.org/1999/xlink" width="30px" height="30px" viewBox="0 0 30 30"><title>Group 3</title><g id="Page-1" stroke="none" stroke-width="1" fill="none" fill-rule="evenodd"><g id="Artboard-1" transform="translate(-293.000000, -1740.000000)"><g id="Group-3" transform="translate(293.448600, 1740.418800)"><path d="M29.026,14.546 C29.026,22.58 22.528,29.092 14.513,29.092 C6.498,29.092 0,22.58 0,14.546 C0,6.512 6.498,4.54747351e-13 14.513,4.54747351e-13 C22.528,4.54747351e-13 29.026,6.512 29.026,14.546 Z" id="Stroke-116" stroke="#8F855C" stroke-width="0.5"></path><path d="M14.5127,10.709 C12.9067,10.709 11.5017,10.976 10.7427,11.374 C11.5017,11.772 12.9067,12.039 14.5127,12.039 C16.1197,12.039 17.5237,11.772 18.2837,11.374 C17.5237,10.976 16.1197,10.709 14.5127,10.709 M11.8467,11.374 C12.2957,11.139 13.5637,11.03 14.5127,11.03 C15.4617,11.03 16.7307,11.139 17.1787,11.374 C16.7307,11.609 15.4617,11.718 14.5127,11.718 C13.5637,11.718 12.2957,11.609 11.8467,11.374" id="Fill-118" fill="#8F855C"></path><path d="M9.49768543,12.8786 L9.49768543,20.4946 C9.4947,21.9656 9.9547,22.3886 11.0397,22.5726 C12.1257,22.7566 13.3257,22.9856 13.8547,23.5286 C14.5167,24.2096 14.5127,24.5896 14.5127,24.5896 C14.5127,24.5896 14.5087,24.2096 15.1707,23.5286 C15.6997,22.9856 16.8997,22.7566 17.9857,22.5726 C19.0707,22.3886 19.5307,21.9656 19.5287065,20.4946 L19.5287065,12.8786 L9.49768543,12.8786 Z M18.6137,20.9546 C18.6287,21.6896 18.3347,21.8556 17.7097,22.0206 C17.0837,22.1866 16.5187,22.1546 15.6857,22.3516 C14.6007,22.6096 14.5127,23.4386 14.5127,23.4386 C14.5127,23.4386 14.4247,22.6096 13.3397,22.3516 C12.5067,22.1546 11.9417,22.1866 11.3167,22.0206 C10.6907,21.8556 10.3967,21.6896 10.4117,20.9546 L10.4117,13.7246 L18.6137,13.7246 L18.6137,20.9546 Z" id="Fill-120" fill="#8F855C"></path><polygon id="Fill-123" fill="#8F855C" points="10.3684 15.3652 18.6584 15.3652 18.6584 14.9362 10.3684 14.9362"></polygon><polygon id="Fill-124" fill="#8F855C" points="10.3104 16.9622 18.7164 16.9622 18.7164 16.5022 10.3104 16.5022"></polygon><polygon id="Fill-125" fill="#8F855C" points="10.3104 18.5452 18.7164 18.5452 18.7164 18.0842 10.3104 18.0842"></polygon><polygon id="Fill-126" fill="#8F855C" points="10.3104 20.1102 18.7164 20.1102 18.7164 19.6822 10.3104 19.6822"></polygon><polygon id="Fill-127" fill="#8F855C" points="10.3104 21.6922 18.7164 21.6922 18.7164 21.2642 10.3104 21.2642"></polygon><path d="M14.7244,14.2643 C14.7674,14.2643 14.8024,14.2293 14.8024,14.1863 L14.8024,14.1163 C14.8024,14.0733 14.7674,14.0383 14.7244,14.0383 L14.3014,14.0383 C14.2574,14.0383 14.2234,14.0733 14.2234,14.1163 L14.2234,14.1863 C14.2234,14.2293 14.2574,14.2643 14.3014,14.2643 L14.7244,14.2643 Z" id="Fill-128" fill="#8F855C"></path><path d="M14.7247,14.2643 C14.7677,14.2643 14.8037,14.2293 14.8037,14.1863 L14.8037,14.1163 C14.8037,14.0733 14.7677,14.0383 14.7247,14.0383 L14.3017,14.0383 C14.2577,14.0383 14.2227,14.0733 14.2227,14.1163 L14.2227,14.1863 C14.2227,14.2293 14.2577,14.2643 14.3017,14.2643 L14.7247,14.2643 Z" id="Fill-130" fill="#8F855C"></path><path d="M14.725,14.2643 C14.768,14.2643 14.803,14.2293 14.803,14.1863 L14.803,14.1163 C14.803,14.0733 14.768,14.0383 14.725,14.0383 L14.302,14.0383 C14.258,14.0383 14.223,14.0733 14.223,14.1163 L14.223,14.1863 C14.223,14.2293 14.258,14.2643 14.302,14.2643 L14.725,14.2643 Z" id="Fill-132" fill="#8F855C"></path><path d="M14.609,11.5428 C14.679,11.5428 14.736,11.4868 14.736,11.4168 L14.736,11.3058 C14.736,11.2358 14.679,11.1788 14.609,11.1788 L14.416,11.1788 C14.346,11.1788 14.29,11.2358 14.29,11.3058 L14.29,11.4168 C14.29,11.4868 14.346,11.5428 14.416,11.5428 L14.609,11.5428 Z" id="Fill-134" fill="#8F855C"></path><path d="M14.5913,11.5084 C14.6473,11.5084 14.6933,11.4634 14.6933,11.4064 L14.6933,11.3164 C14.6933,11.2604 14.6473,11.2134 14.5913,11.2134 L14.4353,11.2134 C14.3773,11.2134 14.3323,11.2604 14.3323,11.3164 L14.3323,11.4064 C14.3323,11.4634 14.3773,11.5084 14.4353,11.5084 L14.5913,11.5084 Z" id="Fill-136" fill="#8F855C"></path><path d="M14.5699,11.469 C14.6109,11.469 14.6449,11.435 14.6449,11.394 L14.6449,11.328 C14.6449,11.287 14.6109,11.254 14.5699,11.254 L14.4559,11.254 C14.4149,11.254 14.3819,11.287 14.3819,11.328 L14.3819,11.394 C14.3819,11.435 14.4149,11.469 14.4559,11.469 L14.5699,11.469 Z" id="Fill-138" fill="#8F855C"></path><path d="M14.4349,11.5084 C14.3779,11.5084 14.3329,11.4634 14.3329,11.4064 L14.3329,11.3164 C14.3329,11.2604 14.3779,11.2134 14.4349,11.2134 L14.5909,11.2134 C14.6479,11.2134 14.6939,11.2604 14.6939,11.3164 L14.6939,11.4064 C14.6939,11.4634 14.6479,11.5084 14.5909,11.5084 L14.4349,11.5084 Z" id="Fill-140" fill="#8F855C"></path><path d="M14.4558,11.469 C14.4148,11.469 14.3808,11.435 14.3808,11.394 L14.3808,11.328 C14.3808,11.287 14.4148,11.254 14.4558,11.254 L14.5698,11.254 C14.6108,11.254 14.6448,11.287 14.6448,11.328 L14.6448,11.394 C14.6448,11.435 14.6108,11.469 14.5698,11.469 L14.4558,11.469 Z" id="Fill-142" fill="#8F855C"></path><path d="M14.7252,14.2643 C14.7672,14.2643 14.8032,14.2293 14.8032,14.1863 L14.8032,14.1163 C14.8032,14.0733 14.7672,14.0383 14.7252,14.0383 L14.3022,14.0383 C14.2582,14.0383 14.2232,14.0733 14.2232,14.1163 L14.2232,14.1863 C14.2232,14.2293 14.2582,14.2643 14.3022,14.2643 L14.7252,14.2643 Z" id="Fill-144" fill="#8F855C"></path><path d="M14.7242,14.2643 C14.7682,14.2643 14.8032,14.2293 14.8032,14.1863 L14.8032,14.1163 C14.8032,14.0733 14.7682,14.0383 14.7242,14.0383 L14.3012,14.0383 C14.2582,14.0383 14.2232,14.0733 14.2232,14.1163 L14.2232,14.1863 C14.2232,14.2293 14.2582,14.2643 14.3012,14.2643 L14.7242,14.2643 Z" id="Fill-146" fill="#8F855C"></path><path d="M14.7243,14.2643 C14.7673,14.2643 14.8033,14.2293 14.8033,14.1863 L14.8033,14.1163 C14.8033,14.0733 14.7673,14.0383 14.7243,14.0383 L14.3013,14.0383 C14.2573,14.0383 14.2233,14.0733 14.2233,14.1163 L14.2233,14.1863 C14.2233,14.2293 14.2573,14.2643 14.3013,14.2643 L14.7243,14.2643 Z" id="Fill-148" fill="#8F855C"></path><path d="M14.7252,14.6145 C14.7682,14.6145 14.8032,14.5795 14.8032,14.5365 L14.8032,14.4665 C14.8032,14.4235 14.7682,14.3885 14.7252,14.3885 L14.3022,14.3885 C14.2582,14.3885 14.2232,14.4235 14.2232,14.4665 L14.2232,14.5365 C14.2232,14.5795 14.2582,14.6145 14.3022,14.6145 L14.7252,14.6145 Z" id="Fill-150" fill="#8F855C"></path><path d="M14.7251,14.6145 C14.7681,14.6145 14.8031,14.5795 14.8031,14.5365 L14.8031,14.4665 C14.8031,14.4235 14.7681,14.3885 14.7251,14.3885 L14.3021,14.3885 C14.2581,14.3885 14.2231,14.4235 14.2231,14.4665 L14.2231,14.5365 C14.2231,14.5795 14.2581,14.6145 14.3021,14.6145 L14.7251,14.6145 Z" id="Fill-152" fill="#8F855C"></path><path d="M14.7249,14.6145 C14.7679,14.6145 14.8029,14.5795 14.8029,14.5365 L14.8029,14.4665 C14.8029,14.4235 14.7679,14.3885 14.7249,14.3885 L14.3019,14.3885 C14.2589,14.3885 14.2229,14.4235 14.2229,14.4665 L14.2229,14.5365 C14.2229,14.5795 14.2589,14.6145 14.3019,14.6145 L14.7249,14.6145 Z" id="Fill-154" fill="#8F855C"></path><path d="M14.7243,14.6145 C14.7673,14.6145 14.8033,14.5795 14.8033,14.5365 L14.8033,14.4665 C14.8033,14.4235 14.7673,14.3885 14.7243,14.3885 L14.3013,14.3885 C14.2583,14.3885 14.2233,14.4235 14.2233,14.4665 L14.2233,14.5365 C14.2233,14.5795 14.2583,14.6145 14.3013,14.6145 L14.7243,14.6145 Z" id="Fill-156" fill="#8F855C"></path><path d="M14.7245,14.6145 C14.7675,14.6145 14.8025,14.5795 14.8025,14.5365 L14.8025,14.4665 C14.8025,14.4235 14.7675,14.3885 14.7245,14.3885 L14.3015,14.3885 C14.2575,14.3885 14.2235,14.4235 14.2235,14.4665 L14.2235,14.5365 C14.2235,14.5795 14.2575,14.6145 14.3015,14.6145 L14.7245,14.6145 Z" id="Fill-158" fill="#8F855C"></path><path d="M14.725,14.6145 C14.768,14.6145 14.803,14.5795 14.803,14.5365 L14.803,14.4665 C14.803,14.4235 14.768,14.3885 14.725,14.3885 L14.302,14.3885 C14.258,14.3885 14.223,14.4235 14.223,14.4665 L14.223,14.5365 C14.223,14.5795 14.258,14.6145 14.302,14.6145 L14.725,14.6145 Z" id="Fill-160" fill="#8F855C"></path><path d="M14.7244,17.4868 C14.7674,17.4868 14.8024,17.4518 14.8024,17.4078 L14.8024,17.3388 C14.8024,17.2958 14.7674,17.2608 14.7244,17.2608 L14.3014,17.2608 C14.2574,17.2608 14.2234,17.2958 14.2234,17.3388 L14.2234,17.4078 C14.2234,17.4518 14.2574,17.4868 14.3014,17.4868 L14.7244,17.4868 Z" id="Fill-162" fill="#8F855C"></path><path d="M14.7247,17.4868 C14.7677,17.4868 14.8037,17.4518 14.8037,17.4078 L14.8037,17.3388 C14.8037,17.2958 14.7677,17.2608 14.7247,17.2608 L14.3017,17.2608 C14.2577,17.2608 14.2227,17.2958 14.2227,17.3388 L14.2227,17.4078 C14.2227,17.4518 14.2577,17.4868 14.3017,17.4868 L14.7247,17.4868 Z" id="Fill-164" fill="#8F855C"></path><path d="M14.725,17.4868 C14.768,17.4868 14.803,17.4518 14.803,17.4078 L14.803,17.3388 C14.803,17.2958 14.768,17.2608 14.725,17.2608 L14.302,17.2608 C14.258,17.2608 14.223,17.2958 14.223,17.3388 L14.223,17.4078 C14.223,17.4518 14.258,17.4868 14.302,17.4868 L14.725,17.4868 Z" id="Fill-166" fill="#8F855C"></path><path d="M14.7252,17.4868 C14.7672,17.4868 14.8032,17.4518 14.8032,17.4078 L14.8032,17.3388 C14.8032,17.2958 14.7672,17.2608 14.7252,17.2608 L14.3022,17.2608 C14.2582,17.2608 14.2232,17.2958 14.2232,17.3388 L14.2232,17.4078 C14.2232,17.4518 14.2582,17.4868 14.3022,17.4868 L14.7252,17.4868 Z" id="Fill-168" fill="#8F855C"></path><path d="M14.7242,17.4868 C14.7682,17.4868 14.8032,17.4518 14.8032,17.4078 L14.8032,17.3388 C14.8032,17.2958 14.7682,17.2608 14.7242,17.2608 L14.3012,17.2608 C14.2582,17.2608 14.2232,17.2958 14.2232,17.3388 L14.2232,17.4078 C14.2232,17.4518 14.2582,17.4868 14.3012,17.4868 L14.7242,17.4868 Z" id="Fill-170" fill="#8F855C"></path><path d="M14.7243,17.4868 C14.7673,17.4868 14.8033,17.4518 14.8033,17.4078 L14.8033,17.3388 C14.8033,17.2958 14.7673,17.2608 14.7243,17.2608 L14.3013,17.2608 C14.2573,17.2608 14.2233,17.2958 14.2233,17.3388 L14.2233,17.4078 C14.2233,17.4518 14.2573,17.4868 14.3013,17.4868 L14.7243,17.4868 Z" id="Fill-172" fill="#8F855C"></path><path d="M14.7252,17.8367 C14.7682,17.8367 14.8032,17.8017 14.8032,17.7587 L14.8032,17.6897 C14.8032,17.6457 14.7682,17.6107 14.7252,17.6107 L14.3022,17.6107 C14.2582,17.6107 14.2232,17.6457 14.2232,17.6897 L14.2232,17.7587 C14.2232,17.8017 14.2582,17.8367 14.3022,17.8367 L14.7252,17.8367 Z" id="Fill-174" fill="#8F855C"></path><path d="M14.7251,17.8367 C14.7681,17.8367 14.8031,17.8017 14.8031,17.7587 L14.8031,17.6897 C14.8031,17.6457 14.7681,17.6107 14.7251,17.6107 L14.3021,17.6107 C14.2581,17.6107 14.2231,17.6457 14.2231,17.6897 L14.2231,17.7587 C14.2231,17.8017 14.2581,17.8367 14.3021,17.8367 L14.7251,17.8367 Z" id="Fill-176" fill="#8F855C"></path><path d="M14.7249,17.8367 C14.7679,17.8367 14.8029,17.8017 14.8029,17.7587 L14.8029,17.6897 C14.8029,17.6457 14.7679,17.6107 14.7249,17.6107 L14.3019,17.6107 C14.2589,17.6107 14.2229,17.6457 14.2229,17.6897 L14.2229,17.7587 C14.2229,17.8017 14.2589,17.8367 14.3019,17.8367 L14.7249,17.8367 Z" id="Fill-178" fill="#8F855C"></path><path d="M14.7243,17.8367 C14.7673,17.8367 14.8033,17.8017 14.8033,17.7587 L14.8033,17.6897 C14.8033,17.6457 14.7673,17.6107 14.7243,17.6107 L14.3013,17.6107 C14.2583,17.6107 14.2233,17.6457 14.2233,17.6897 L14.2233,17.7587 C14.2233,17.8017 14.2583,17.8367 14.3013,17.8367 L14.7243,17.8367 Z" id="Fill-180" fill="#8F855C"></path><path d="M14.7245,17.8367 C14.7675,17.8367 14.8025,17.8017 14.8025,17.7587 L14.8025,17.6897 C14.8025,17.6457 14.7675,17.6107 14.7245,17.6107 L14.3015,17.6107 C14.2575,17.6107 14.2235,17.6457 14.2235,17.6897 L14.2235,17.7587 C14.2235,17.8017 14.2575,17.8367 14.3015,17.8367 L14.7245,17.8367 Z" id="Fill-182" fill="#8F855C"></path><path d="M14.725,17.8367 C14.768,17.8367 14.803,17.8017 14.803,17.7587 L14.803,17.6897 C14.803,17.6457 14.768,17.6107 14.725,17.6107 L14.302,17.6107 C14.258,17.6107 14.223,17.6457 14.223,17.6897 L14.223,17.7587 C14.223,17.8017 14.258,17.8367 14.302,17.8367 L14.725,17.8367 Z" id="Fill-184" fill="#8F855C"></path><path d="M14.7244,20.6335 C14.7674,20.6335 14.8024,20.5985 14.8024,20.5555 L14.8024,20.4855 C14.8024,20.4425 14.7674,20.4085 14.7244,20.4085 L14.3014,20.4085 C14.2574,20.4085 14.2234,20.4425 14.2234,20.4855 L14.2234,20.5555 C14.2234,20.5985 14.2574,20.6335 14.3014,20.6335 L14.7244,20.6335 Z" id="Fill-186" fill="#8F855C"></path><path d="M14.7247,20.6335 C14.7677,20.6335 14.8037,20.5985 14.8037,20.5555 L14.8037,20.4855 C14.8037,20.4425 14.7677,20.4085 14.7247,20.4085 L14.3017,20.4085 C14.2577,20.4085 14.2227,20.4425 14.2227,20.4855 L14.2227,20.5555 C14.2227,20.5985 14.2577,20.6335 14.3017,20.6335 L14.7247,20.6335 Z" id="Fill-188" fill="#8F855C"></path><path d="M14.725,20.6335 C14.768,20.6335 14.803,20.5985 14.803,20.5555 L14.803,20.4855 C14.803,20.4425 14.768,20.4085 14.725,20.4085 L14.302,20.4085 C14.258,20.4085 14.223,20.4425 14.223,20.4855 L14.223,20.5555 C14.223,20.5985 14.258,20.6335 14.302,20.6335 L14.725,20.6335 Z" id="Fill-190" fill="#8F855C"></path><path d="M14.7252,20.6335 C14.7672,20.6335 14.8032,20.5985 14.8032,20.5555 L14.8032,20.4855 C14.8032,20.4425 14.7672,20.4085 14.7252,20.4085 L14.3022,20.4085 C14.2582,20.4085 14.2232,20.4425 14.2232,20.4855 L14.2232,20.5555 C14.2232,20.5985 14.2582,20.6335 14.3022,20.6335 L14.7252,20.6335 Z" id="Fill-192" fill="#8F855C"></path><path d="M14.7242,20.6335 C14.7682,20.6335 14.8032,20.5985 14.8032,20.5555 L14.8032,20.4855 C14.8032,20.4425 14.7682,20.4085 14.7242,20.4085 L14.3012,20.4085 C14.2582,20.4085 14.2232,20.4425 14.2232,20.4855 L14.2232,20.5555 C14.2232,20.5985 14.2582,20.6335 14.3012,20.6335 L14.7242,20.6335 Z" id="Fill-194" fill="#8F855C"></path><path d="M14.7243,20.6335 C14.7673,20.6335 14.8033,20.5985 14.8033,20.5555 L14.8033,20.4855 C14.8033,20.4425 14.7673,20.4085 14.7243,20.4085 L14.3013,20.4085 C14.2573,20.4085 14.2233,20.4425 14.2233,20.4855 L14.2233,20.5555 C14.2233,20.5985 14.2573,20.6335 14.3013,20.6335 L14.7243,20.6335 Z" id="Fill-196" fill="#8F855C"></path><path d="M14.7252,20.9837 C14.7682,20.9837 14.8032,20.9497 14.8032,20.9057 L14.8032,20.8357 C14.8032,20.7937 14.7682,20.7587 14.7252,20.7587 L14.3022,20.7587 C14.2582,20.7587 14.2232,20.7937 14.2232,20.8357 L14.2232,20.9057 C14.2232,20.9497 14.2582,20.9837 14.3022,20.9837 L14.7252,20.9837 Z" id="Fill-198" fill="#8F855C"></path><path d="M14.7251,20.9837 C14.7681,20.9837 14.8031,20.9497 14.8031,20.9057 L14.8031,20.8357 C14.8031,20.7937 14.7681,20.7587 14.7251,20.7587 L14.3021,20.7587 C14.2581,20.7587 14.2231,20.7937 14.2231,20.8357 L14.2231,20.9057 C14.2231,20.9497 14.2581,20.9837 14.3021,20.9837 L14.7251,20.9837 Z" id="Fill-200" fill="#8F855C"></path><path d="M14.7249,20.9837 C14.7679,20.9837 14.8029,20.9497 14.8029,20.9057 L14.8029,20.8357 C14.8029,20.7937 14.7679,20.7587 14.7249,20.7587 L14.3019,20.7587 C14.2589,20.7587 14.2229,20.7937 14.2229,20.8357 L14.2229,20.9057 C14.2229,20.9497 14.2589,20.9837 14.3019,20.9837 L14.7249,20.9837 Z" id="Fill-202" fill="#8F855C"></path><path d="M14.7243,20.9837 C14.7673,20.9837 14.8033,20.9497 14.8033,20.9057 L14.8033,20.8357 C14.8033,20.7937 14.7673,20.7587 14.7243,20.7587 L14.3013,20.7587 C14.2583,20.7587 14.2233,20.7937 14.2233,20.8357 L14.2233,20.9057 C14.2233,20.9497 14.2583,20.9837 14.3013,20.9837 L14.7243,20.9837 Z" id="Fill-204" fill="#8F855C"></path><path d="M14.7245,20.9837 C14.7675,20.9837 14.8025,20.9497 14.8025,20.9057 L14.8025,20.8357 C14.8025,20.7937 14.7675,20.7587 14.7245,20.7587 L14.3015,20.7587 C14.2575,20.7587 14.2235,20.7937 14.2235,20.8357 L14.2235,20.9057 C14.2235,20.9497 14.2575,20.9837 14.3015,20.9837 L14.7245,20.9837 Z" id="Fill-206" fill="#8F855C"></path><path d="M14.725,20.9837 C14.768,20.9837 14.803,20.9497 14.803,20.9057 L14.803,20.8357 C14.803,20.7937 14.768,20.7587 14.725,20.7587 L14.302,20.7587 C14.258,20.7587 14.223,20.7937 14.223,20.8357 L14.223,20.9057 C14.223,20.9497 14.258,20.9837 14.302,20.9837 L14.725,20.9837 Z" id="Fill-208" fill="#8F855C"></path><path d="M10.6834,9.3111 C10.8544,9.5431 10.9844,9.7201 10.9844,9.7201 C10.5284,9.8941 10.2904,9.9371 10.3664,10.2191 C10.4424,10.5001 10.4314,10.4791 10.6694,11.0961 C10.8324,10.9881 11.4524,10.7361 12.1534,10.6091 C12.0774,10.5011 11.8654,10.2651 11.7134,10.3191 C11.5614,10.3731 11.4354,10.3881 11.3154,10.4321 C11.1964,10.4751 11.0094,10.2901 11.0204,10.1171 C11.0314,9.9441 11.2804,9.8831 11.4544,9.8071 C11.6274,9.7321 12.1464,9.6381 12.4184,9.6051 C12.5264,9.6881 12.5974,9.9331 12.6414,10.0201 C12.6844,10.1071 12.5734,10.1281 12.4534,10.1711 C12.3344,10.2151 12.4364,10.3631 12.5224,10.5471 C12.7074,10.5041 13.3244,10.4351 13.5664,10.4391 C13.7064,10.4411 13.5414,10.0491 13.4654,9.9951 C13.3894,9.9401 13.1984,10.0291 13.0254,9.9861 C12.8774,9.9501 12.7794,9.5681 12.7794,9.5681 C12.9854,9.5131 14.0504,9.4531 14.4844,9.4741 C14.9174,9.4961 14.9004,9.6121 14.9764,9.9371 C14.9924,10.0061 14.8634,9.9841 14.7334,9.9731 C14.6034,9.9621 13.9664,9.9651 13.8594,9.9621 C13.6634,9.9561 13.7584,10.4161 13.8634,10.4141 C14.1494,10.3851 15.0554,10.3741 16.1064,10.4821 C16.1824,10.3951 16.1564,10.2011 16.1454,10.1361 C16.1344,10.0711 16.0524,10.0671 15.7704,10.0451 C15.4884,10.0241 15.4374,10.0301 15.3724,9.9221 C15.3074,9.8141 15.2634,9.5501 15.2204,9.5071 C15.5234,9.5181 16.1204,9.6011 16.5434,9.6881 C16.9664,9.7741 16.8104,10.0491 16.7454,10.1241 C16.6794,10.2001 16.5394,10.1601 16.4414,10.1391 C16.3444,10.1171 16.3234,10.4281 16.3014,10.5151 C16.6044,10.5541 16.8434,10.5981 17.0954,10.6631 C17.2944,10.7141 17.3004,10.3301 17.1924,10.2191 C17.1334,10.1561 17.0994,10.0961 17.1314,9.8471 C17.2944,9.8791 17.6334,9.9581 17.9584,10.0891 C18.2834,10.2191 18.1574,10.5981 17.9844,10.5441 C17.8114,10.4901 17.7744,10.5001 17.5974,10.4751 C17.4404,10.4521 17.4424,10.5761 17.5184,10.7601 C18.0174,10.9231 18.2334,11.0311 18.3634,11.0961 C18.5044,10.7711 18.6364,10.4151 18.6564,10.2401 C18.6814,10.0301 18.7754,9.9261 18.0274,9.7201 C18.0764,9.6571 18.1984,9.4961 18.3384,9.3111 L16.9954,9.3111 C17.0744,9.3701 17.1484,9.3801 17.3634,9.3911 C17.4384,9.3961 17.5294,9.4821 17.4214,9.5901 C17.1274,9.5111 16.5954,9.3961 15.9434,9.3121 L12.5724,9.3111 C12.5884,9.3511 12.5984,9.3731 12.5984,9.3731 C12.5984,9.3731 12.0644,9.4351 11.5984,9.5431 C11.5264,9.4931 11.4034,9.3941 11.3554,9.3111 L10.6834,9.3111 Z" id="Fill-210" fill="#8F855C"></path><path d="M11.3749,9.3111 C11.3509,9.2701 11.3459,9.2331 11.3749,9.2071 C11.4619,9.1311 11.7119,9.2981 11.8309,9.3091 C11.9499,9.3201 12.0759,9.2321 12.0759,9.2321 L10.7319,7.8891 C10.8909,7.5711 10.7319,6.5991 9.8219,6.6211 C9.0129,6.6391 8.7889,7.4051 8.8899,7.7591 C8.9489,7.9701 9.1499,8.6581 10.0929,8.5061 C10.2649,8.7241 10.5099,9.0521 10.7029,9.3121 L11.3749,9.3111 Z M15.9629,9.3111 C15.0969,9.2001 14.0189,9.1431 13.0079,9.2981 C12.9319,9.1781 12.8889,9.0561 12.8889,9.0561 C12.9609,9.0061 13.1449,8.9041 13.2419,9.0231 C13.3479,9.1521 13.6189,9.1421 13.7589,9.0091 C13.6179,8.8251 12.4989,7.5421 12.4989,7.5421 C12.9429,7.2601 13.0699,7.0361 13.0159,6.4831 C12.9609,5.9311 12.3179,5.6231 11.8809,5.7321 C11.5489,5.8131 10.9949,6.1781 11.1479,6.9131 C11.2759,7.5281 11.8919,7.6181 11.8919,7.6181 C12.0149,7.9581 12.4749,9.0391 12.5909,9.3111 L15.9629,9.3111 Z M18.3569,9.3111 C18.6249,8.9571 18.9579,8.5171 18.9579,8.5171 C19.7269,8.7451 20.6739,7.7021 19.8239,6.8481 C19.4299,6.4521 17.9819,6.5121 18.2749,7.9211 C18.1229,8.0841 16.9559,9.2621 16.9559,9.2621 C16.9769,9.2811 16.9959,9.2971 17.0139,9.3111 L18.3569,9.3111 Z M16.5229,9.2181 C16.6419,8.9581 17.1799,7.5961 17.1799,7.5961 C17.6349,7.4991 17.8739,7.1081 17.8949,6.7621 C17.9169,6.4151 17.7609,5.9421 17.2519,5.7581 C16.7429,5.5741 16.1979,5.9021 16.0459,6.3031 C15.8949,6.7041 15.9989,7.3331 16.5519,7.5491 C16.3569,7.7771 15.2869,9.0091 15.2869,9.0091 C15.4499,9.0631 15.5279,9.0921 15.7169,8.9251 C15.9339,8.7331 16.0569,8.7811 16.0569,8.7811 C16.0139,8.9441 15.9379,9.1281 16.5229,9.2181 L16.5229,9.2181 Z M15.1689,9.0161 C15.1759,8.7491 15.1139,8.6551 14.8429,8.1561 C14.7299,7.8931 14.7129,7.9211 14.7339,7.2711 C15.0919,7.2391 15.5449,6.7811 15.4929,6.3171 C15.4389,5.8441 15.4689,5.6351 15.6419,5.4071 C15.7949,5.2061 16.2239,4.6531 16.3319,4.5181 C16.4179,4.4101 16.6809,3.9301 16.1249,3.1571 C15.9729,2.9511 15.8289,2.8171 15.8829,2.6651 C15.9369,2.5141 15.9339,2.3731 15.7609,2.1671 C15.6949,2.4161 15.6199,2.6441 15.2509,2.5901 C14.8829,2.5351 14.8829,2.6651 14.7849,2.7091 C14.6879,2.7521 14.6329,2.7841 14.4929,2.6331 C14.3519,2.4811 13.4169,1.5891 13.3409,1.5131 C13.2649,1.4381 13.1199,1.3871 13.3549,1.6791 C13.5479,1.9211 14.2509,2.8241 14.3049,2.9101 C14.3589,2.9971 14.4059,3.0771 14.2649,3.1751 C14.1239,3.2721 13.8799,3.5061 13.8059,3.6051 C13.6719,3.7821 13.6149,3.9471 13.7559,4.0671 C13.8969,4.1861 14.0379,4.2151 14.5359,3.9871 C15.0349,3.7601 15.4029,3.7921 15.3159,4.1501 C15.2289,4.5071 15.0349,4.6051 15.0239,4.7781 C14.6989,4.7031 14.5899,4.6671 14.3079,4.7971 C14.0699,4.8151 14.0699,4.6921 13.9689,4.6051 C13.8879,4.5351 13.7299,4.3881 13.2529,4.5181 C12.7769,4.6481 12.7149,4.6921 12.7259,4.8441 C12.7369,4.9951 13.0259,4.9891 13.0619,4.8441 C13.1009,4.6921 13.4919,4.6231 13.6439,4.7431 C13.7959,4.8621 13.8859,5.0821 13.9829,5.1901 C14.0809,5.2991 14.1779,5.2341 14.3409,5.2011 C14.5029,5.1691 14.8069,5.1721 14.9259,5.2121 C15.0559,5.2551 15.2189,5.5101 14.8759,5.4251 C14.4719,5.3241 14.1199,5.3971 13.8209,5.6891 C13.4919,6.0071 13.3509,6.9611 14.3039,7.2751 C14.3339,7.7771 14.3459,7.9391 14.2039,8.1381 C14.0359,8.4241 13.8629,8.7811 13.8819,8.9871 C14.1089,9.0091 14.2369,8.9951 14.3149,8.8031 C14.4199,8.5461 14.5329,8.5141 14.5329,8.5141 C14.6149,8.5711 14.6219,8.6281 14.7129,8.7911 C14.8179,8.9811 14.8869,9.0161 15.1689,9.0161 L15.1689,9.0161 Z M13.6749,5.5271 C13.5779,5.6511 13.5899,5.8301 13.4519,5.7071 C13.3139,5.5821 13.1099,5.3611 12.9249,5.3331 C12.7459,5.3051 12.4969,5.3721 12.4149,5.4141 C12.3319,5.4551 12.3729,5.4961 12.3039,5.5101 C12.2349,5.5241 12.0709,5.6161 12.0009,5.4271 C11.9599,5.3171 12.1259,5.2401 12.2629,5.2071 C12.4839,5.1521 12.6669,5.1231 12.8839,5.0701 C13.1179,5.0141 13.2839,5.1241 13.4349,5.1931 C13.6159,5.2751 13.6449,5.2791 13.7139,5.3341 C13.7839,5.3891 13.7989,5.4311 13.7579,5.4581 C13.7159,5.4861 13.6749,5.5271 13.6749,5.5271 L13.6749,5.5271 Z" id="Fill-212" fill="#8F855C"></path></g></g></g></svg>