<svg xmlns="http://www.w3.org/2000/svg" xmlns:xlink="http://www.w3.org/1999/xlink" width="31px" height="30px" viewBox="0 0 31 30"><title>Group 2</title><g id="Page-1" stroke="none" stroke-width="1" fill="none" fill-rule="evenodd"><g id="Artboard-1" transform="translate(-180.000000, -1740.000000)"><g id="Group-2" transform="translate(181.113600, 1740.418800)"><path d="M29.026,14.546 C29.026,22.58 22.528,29.092 14.513,29.092 C6.498,29.092 0,22.58 0,14.546 C0,6.512 6.498,4.54747351e-13 14.513,4.54747351e-13 C22.528,4.54747351e-13 29.026,6.512 29.026,14.546 Z" id="Stroke-214" stroke="#8F855C" stroke-width="0.5"></path><path d="M13.213,20.1755 C12.901,20.2495 12.579,20.3295 12.257,20.4025 C11.169,20.6505 10.071,20.8115 8.952,20.7895 C7.796,20.7675 6.682,20.5435 5.624,20.0685 C5.363,19.9515 5.25,19.8065 5.267,19.6045 C5.288,19.3615 5.478,19.1425 5.717,19.0765 C5.868,19.0345 6.002,19.0755 6.136,19.1355 C6.708,19.3915 7.304,19.5705 7.923,19.6735 C8.629,19.7895 9.338,19.7935 10.047,19.7215 C11.097,19.6155 12.109,19.3415 13.112,19.0305 C13.151,19.0185 13.202,18.9715 13.206,18.9365 C13.246,18.4995 13.336,18.0735 13.481,17.6585 C13.483,17.6525 13.479,17.6445 13.477,17.6225 C13.409,17.6375 13.342,17.6505 13.276,17.6675 C12.272,17.9315 11.259,18.1525 10.223,18.2515 C8.699,18.3955 7.215,18.2535 5.791,17.6565 C5.698,17.6165 5.603,17.5795 5.513,17.5335 C5.293,17.4185 5.214,17.1995 5.304,16.9675 C5.432,16.6375 5.767,16.4855 6.085,16.6305 C7.533,17.2875 9.041,17.4125 10.597,17.1645 C11.637,16.9985 12.637,16.6855 13.644,16.3885 C14.036,16.2725 14.388,16.1275 14.608,15.7625 C17.425,12.7485 22.195,13.7885 23.631,17.4615 C24.608,19.9595 23.598,22.7735 21.269,24.1105 C18.341,25.7915 14.564,24.3645 13.486,21.1655 C13.378,20.8465 13.305,20.5145 13.213,20.1755 M18.601,15.0044966 C16.166,15.0015 14.194,16.9775 14.1879906,19.4265 C14.183,21.8275 16.173,23.8115 18.589,23.8135034 C21.002,23.8165 22.994,21.8355 22.9970034,19.4315 C23,16.9915 21.03,15.0075 18.601,15.0044966" id="Fill-216" fill="#8F855C"></path><path d="M13.4337,5.3946 C13.6127,5.6846 13.7317,5.9716 13.7787,6.2846 C13.7967,6.4036 13.8097,6.5256 13.8087,6.6456 C13.8047,6.9316 13.5877,7.1486 13.3147,7.1516 C13.0407,7.1546 12.8327,6.9436 12.7997,6.6606 C12.7777,6.4736 12.7237,6.2896 12.6777,6.1056 C12.6677,6.0626 12.6347,6.0246 12.6037,5.9686 C12.5777,6.0006 12.5577,6.0216 12.5437,6.0456 C12.4297,6.2486 12.3877,6.4686 12.3877,6.6986 C12.3877,8.9436 12.3867,11.1886 12.3907,13.4336 C12.3917,13.5486 12.3587,13.5976 12.2457,13.6226 C11.9987,13.6786 11.7547,13.7486 11.5097,13.8116 C11.4727,13.8216 11.4347,13.8266 11.3837,13.8366 L11.3837,13.0946 L8.8357,13.0946 L8.8357,14.1226 C8.6647,14.1106 8.5067,14.1036 8.3497,14.0866 C8.2137,14.0726 8.0797,14.0406 7.9447,14.0286 C7.8457,14.0196 7.8277,13.9736 7.8277,13.8846 C7.8307,13.1776 7.8287,12.4706 7.8277,11.7646 C7.8277,10.1086 7.8317,8.4536 7.82566643,6.7986 C7.8237,6.3056 7.9107,5.8416 8.1857,5.4276 C8.6367,4.7476 9.2707,4.3876 10.0887,4.3706 C10.5647,4.3606 11.0417,4.3676 11.5177,4.3676 C11.8667,4.3676 12.1977,4.4436 12.5147,4.5906 C12.5617,4.6126 12.6367,4.6096 12.6847,4.5876 C12.9947,4.4426 13.3187,4.3696 13.6587,4.3686 C14.1467,4.3666 14.6347,4.3676 15.1227,4.3686 C16.3357,4.3706 17.3727,5.4196 17.3617867,6.6306 C17.3587,6.9226 17.1487,7.1436 16.8687,7.1506 C16.5947,7.1576 16.3707,6.9536 16.3607,6.6626 C16.3377,5.9286 15.8317,5.5206 15.4057,5.4176 C15.3117,5.3956 15.2137,5.3786 15.1177,5.3776 C14.6297,5.3736 14.1407,5.3746 13.6527,5.3756 C13.5877,5.3766 13.5227,5.3866 13.4337,5.3946 L13.4337,5.3946 Z M11.3757,9.2286 C11.3347,9.2266 11.3087,9.2236 11.2817,9.2236 C10.5017,9.2226 9.7207,9.2236 8.9407,9.22057799 C8.8497,9.2196 8.8307,9.2526 8.8307,9.3356 C8.8327,10.2136 8.8317,11.0916 8.8327,11.9696 C8.8327,12.0036 8.8387,12.0366 8.8417,12.0696 L11.3757,12.0696 L11.3757,9.2286 Z M11.7537,5.3926 C11.6617,5.3866 11.5857,5.3766 11.5087,5.3756 C11.0557,5.3746 10.6037,5.3756 10.1507,5.3756 C9.3907,5.3756 8.8347,5.9286 8.8327,6.6886 C8.8307,7.1526 8.8317,7.6166 8.8327,8.0816 C8.8327,8.1226 8.8367,8.1636 8.8387,8.2036 L11.3787,8.2036 C11.3787,7.6826 11.3767,7.1716 11.3787,6.6616 C11.3807,6.2676 11.4727,5.8966 11.6637,5.5516 C11.6897,5.5046 11.7167,5.4576 11.7537,5.3926 L11.7537,5.3926 Z" id="Fill-218" fill="#8F855C"></path><path d="M22.7505,15.2595 C22.5965,15.2405 22.4755,15.1745 22.3625,15.0845 C21.8695,14.6905 21.3395,14.3565 20.7515,14.1215 C19.8725,13.7685 18.9625,13.7095 18.0355,13.8485 C17.1325,13.9825 16.2675,14.2645 15.4045,14.5475 C14.1355,14.9625 12.8555,15.3335 11.5415,15.5805 C10.5335,15.7705 9.5175,15.8675 8.4905,15.7995 C7.4845,15.7325 6.5185,15.5015 5.5965,15.0885 C5.3105,14.9595 5.2065,14.7595 5.2925,14.5055 C5.3935,14.2095 5.6935,14.0275 5.9715,14.1085 C6.1275,14.1545 6.2765,14.2275 6.4285,14.2875 C7.5805,14.7455 8.7745,14.8765 10.0025,14.7515 C11.2525,14.6245 12.4485,14.2705 13.6385,13.8925 C14.6835,13.5615 15.7225,13.2105 16.7955,12.9795 C17.6075,12.8045 18.4275,12.7075 19.2595,12.7605 C20.4975,12.8395 21.6185,13.2575 22.6325,13.9665 C22.7955,14.0805 22.9515,14.2045 23.1125,14.3215 C23.5125,14.6135 23.3235,15.0125 23.0345,15.1645 C22.9475,15.2095 22.8455,15.2285 22.7505,15.2595" id="Fill-220" fill="#8F855C"></path><path d="M18.7055,22.6846 C18.2135,22.6846 17.7215,22.6876 17.2295,22.6836 C16.7735,22.6806 16.4405,22.4146 16.3555,21.9896 C16.3415,21.9216 16.3415,21.8506 16.3415,21.7806 C16.3405,20.8086 16.3435,19.8356 16.3394832,18.8636 C16.3375,18.4556 16.5145,18.1726 16.8875,18.0056 C16.9195,17.9916 16.9485,17.9306 16.9485,17.8906 C16.9535,17.4926 16.9515,17.0946 16.9515,16.6966 C16.9525,16.1036 17.3115,15.7536 17.9055,15.7575661 C18.4485,15.7626 18.9905,15.7586 19.5335,15.7586 C20.0955,15.7596 20.4585,16.1196 20.4595,16.6796 C20.4605,17.0816 20.4605,17.4846 20.4585,17.8866 C20.4585,17.9506 20.4715,17.9886 20.5405,18.0176 C20.8785,18.1616 21.0645,18.4256 21.0675,18.7916 C21.0755,19.8066 21.0765,20.8216 21.0685,21.8366 C21.0645,22.3356 20.6955,22.6786 20.1815,22.6836 C19.6895,22.6876 19.1975,22.6846 18.7055,22.6846 L18.7055,22.6846 Z M17.1855,21.8316 L20.2185,21.8316 L20.2185,18.7966 L17.1855,18.7966 L17.1855,21.8316 Z M17.8045,17.9416 L19.6085,17.9416 L19.6085,16.6086 L17.8045,16.6086 L17.8045,17.9416 Z" id="Fill-222" fill="#8F855C"></path><path d="M18.5346,20.5675 C18.5346,20.5285 18.5326,20.4895 18.5346,20.4505 C18.5446,20.3095 18.5316,20.1945 18.4006,20.0875 C18.2246,19.9445 18.2516,19.6605 18.4226,19.5075 C18.6006,19.3485 18.8606,19.3635 19.0176,19.5425 C19.1756,19.7215 19.1576,19.9865 18.9656,20.1325 C18.8926,20.1885 18.8746,20.2455 18.8766,20.3275 C18.8806,20.5035 18.8796,20.6785 18.8776,20.8535 C18.8766,20.9875 18.8156,21.0555 18.7046,21.0545109 C18.5986,21.0525 18.5396,20.9865 18.5366,20.8595 C18.5346,20.7625 18.5366,20.6645 18.5366,20.5675 L18.5346,20.5675 Z" id="Fill-224" fill="#8F855C"></path></g></g></g></svg>