<svg xmlns="http://www.w3.org/2000/svg" xmlns:xlink="http://www.w3.org/1999/xlink" width="30px" height="30px" viewBox="0 0 30 30"><title>Group</title><g id="Page-1" stroke="none" stroke-width="1" fill="none" fill-rule="evenodd"><g id="Artboard-1" transform="translate(-85.000000, -1740.000000)"><g id="Group" transform="translate(85.400400, 1740.418800)"><path d="M29.026,14.546 C29.026,22.58 22.528,29.092 14.513,29.092 C6.498,29.092 0,22.58 0,14.546 C0,6.512 6.498,4.54747351e-13 14.513,4.54747351e-13 C22.528,4.54747351e-13 29.026,6.512 29.026,14.546 Z" id="Stroke-104" stroke="#8F855C" stroke-width="0.5"></path><path d="M14.0705,23.0061 C13.7495,22.9571 13.4265,22.9191 13.1075,22.8581 C11.5475,22.5611 10.2185,21.8331 9.1265,20.6811 C8.1185,19.6171 7.4775,18.3601 7.2055,16.9201 C7.0485,16.0901 7.0345,15.2551 7.1785,14.4201 C7.2145,14.2081 7.3065,14.1321 7.4795,14.1551 C7.6545,14.1781 7.7175,14.2941 7.7035,14.5111 C7.6725,14.9831 7.6185,15.4571 7.6345,15.9291 C7.6785,17.2901 8.1305,18.5201 8.9295,19.6161 C10.0295,21.1241 11.5075,22.0541 13.3445,22.3671 C17.0295,22.9951 20.4245,20.6301 21.2045,17.2051 C21.8565,14.3401 20.9735,11.9641 18.7175,10.0931 C18.6615,10.0461 18.5995,10.0071 18.5385,9.9631 C18.2965,10.1521 18.0645,10.3341 17.8155,10.5301 C17.8725,10.5721 17.9235,10.6111 17.9755,10.6491 C19.3435,11.6391 20.1815,12.9651 20.4595,14.6301 C20.9855,17.7801 18.8605,20.8281 15.7215,21.4571 C15.1245,21.5771 14.5265,21.6101 13.9215,21.5591 C13.7155,21.5421 13.6105,21.4351 13.6285,21.2581 C13.6455,21.0871 13.7705,21.0101 13.9805,21.0301 C16.7295,21.2841 19.2065,19.5011 19.8415,16.8811 C20.0495,16.0261 20.0495,15.0801 19.8645,14.3921 C19.4475,14.6241 19.0385,14.8551 18.7335,15.2311 C18.4645,15.5631 18.4865,15.9541 18.5195,16.3421 C18.5365,16.5501 18.5825,16.7561 18.6105,16.9631 C18.6515,17.2661 18.5905,17.5541 18.4535,17.8221 C18.1215,18.4701 17.6465,18.9721 16.9355,19.1971 C16.3935,19.3681 15.9535,19.1401 15.7975,18.5951 C15.7155,18.3091 15.6815,18.0031 15.6675,17.7041 C15.6385,17.0771 15.6385,16.4471 15.6265,15.8191 C15.6265,15.8001 15.6265,15.7821 15.6245,15.7631 C15.5895,15.2591 15.5125,15.2131 15.0215,15.2771 C14.5725,15.3361 14.1145,15.4061 13.6655,15.3781 C12.9345,15.3341 12.4665,14.8481 12.3315,14.1171 C12.2125,13.4731 12.4455,12.9471 12.8565,12.4751 C12.9685,12.3451 13.0785,12.2121 13.1635,12.1101 C12.8525,12.0241 12.4745,11.9481 12.1195,11.8131 C11.7655,11.6771 11.4345,11.4821 11.0695,11.3001 C10.5395,11.7211 10.1025,12.2591 9.7335,12.8641 C9.5225,13.2081 9.4295,13.5001 9.7255,13.8611 C9.9435,14.1281 10.0645,14.4731 10.2525,14.7691 C10.3185,14.8731 10.4435,14.9541 10.5595,15.0091 C10.7365,15.0931 10.9335,15.1321 11.1125,15.2131 C11.5435,15.4071 11.6975,15.7411 11.5565,16.1941 C11.4815,16.4341 11.3755,16.6641 11.2765,16.8951 C11.1965,17.0811 11.1105,17.2651 11.0175,17.4461 C10.8745,17.7271 10.8645,17.9771 11.0365,18.2741 C11.3285,18.7801 11.4175,19.3461 11.3485,19.9331 C11.3425,19.9881 11.3875,20.0761 11.4355,20.1041 C11.7435,20.2831 12.0555,20.4561 12.3725,20.6191 C12.5845,20.7281 12.6535,20.8331 12.5865,20.9981 C12.5175,21.1691 12.3785,21.2081 12.1515,21.1031 C10.1135,20.1621 8.8695,18.5971 8.5635,16.3651 C8.2795,14.2921 8.9645,12.5351 10.4845,11.1021 C10.5335,11.0561 10.5845,11.0111 10.6475,10.9531 C10.5745,10.8881 10.5075,10.8271 10.4405,10.7671 C9.5235,9.9391 8.8215,8.9491 8.2605,7.8531 C8.1915,7.7171 8.1905,7.5851 8.3095,7.4831 C9.5105,6.4491 10.8295,5.6351 12.4095,5.3221 C13.8465,5.0381 15.1125,5.4261 16.2385,6.3321 C16.2725,6.3591 16.3055,6.3871 16.3385,6.4151 C16.5235,6.5681 16.5515,6.6921 16.4315,6.8351 C16.3115,6.9771 16.1975,6.9601 15.9965,6.8221 C15.6425,6.5791 15.2875,6.3331 14.9125,6.1251 C14.5105,5.9031 14.0615,5.8101 13.6045,5.7671 C13.5465,5.7611 13.4865,5.7661 13.3965,5.7661 C13.6085,6.0581 13.8025,6.3251 13.9985,6.5921 C14.5045,7.2831 15.0125,7.9721 15.5155,8.6651 C15.5905,8.7701 15.6725,8.8351 15.8055,8.8601 C16.5235,8.9931 17.2395,9.1351 17.9965,9.2391 C17.7065,8.8231 17.4175,8.4071 17.1275,7.9911 C17.1025,7.9561 17.0715,7.9251 17.0475,7.8901 C16.9505,7.7491 16.9655,7.6071 17.0855,7.5131 C17.2065,7.4191 17.3565,7.4351 17.4615,7.5631 C17.5675,7.6911 17.6735,7.8201 17.7635,7.9601 C18.0405,8.3891 18.3075,8.8241 18.5825,9.2551 C18.6275,9.3261 18.6785,9.3971 18.7415,9.4521 C19.1425,9.8061 19.5485,10.1551 19.9525,10.5051 C19.9695,10.5201 19.9895,10.5331 20.0235,10.5581 C19.8975,9.9361 19.8605,9.3311 20.0075,8.7271 C20.2065,7.9141 20.7095,7.3151 21.3675,6.8321 C22.0455,6.3341 22.8045,6.0081 23.6125,5.7871 C23.7785,5.7411 23.8925,5.7931 23.9695,5.9331 C24.3865,6.6871 24.6885,7.4821 24.7985,8.3421 C24.8055,8.3961 24.8235,8.4481 24.8355,8.5011 L24.8355,9.2781 C24.8245,9.3061 24.8055,9.3321 24.8025,9.3601 C24.7405,9.9201 24.5285,10.4171 24.1785,10.8551 C23.6215,11.5541 22.8845,12.0001 22.0745,12.3411 C21.8385,12.4401 21.5945,12.5221 21.3585,12.6101 C21.3575,12.6341 21.3535,12.6471 21.3565,12.6571 C21.3665,12.6871 21.3785,12.7151 21.3895,12.7431 C21.9415,14.1151 22.0785,15.5231 21.8075,16.9791 C21.2645,19.9011 18.9155,22.2791 15.9755,22.8551 C15.6515,22.9191 15.3225,22.9561 14.9955,23.0061 L14.0705,23.0061 Z M19.7265,13.8461 C19.3095,12.6381 18.5735,11.6881 17.5235,10.9751 C17.3725,10.8731 17.2685,10.8801 17.1165,10.9751 C16.2905,11.4891 15.4085,11.8711 14.4425,12.0371 C14.3465,12.0541 14.2425,12.0641 14.1625,12.1111 C13.9895,12.2161 13.8265,12.3391 13.6635,12.4601 C13.3635,12.6831 13.1025,12.9431 12.9445,13.2891 C12.5745,14.1001 13.0825,14.8991 13.9645,14.8661 C14.3995,14.8491 14.8315,14.7641 15.2655,14.7181 C15.6725,14.6741 15.9185,14.8151 16.0365,15.2111 C16.1165,15.4791 16.1585,15.7641 16.1705,16.0441 C16.1935,16.5371 16.1665,17.0311 16.1865,17.5241 C16.1985,17.8291 16.2365,18.1381 16.3005,18.4371 C16.3545,18.6911 16.5295,18.7681 16.7795,18.6971 C16.8505,18.6761 16.9195,18.6481 16.9855,18.6161 C17.8095,18.2221 18.1805,17.4831 18.0115,16.5561 C17.8385,15.6081 18.1175,14.8551 18.9475,14.3321 C19.2015,14.1711 19.4585,14.0141 19.7265,13.8461 L19.7265,13.8461 Z M17.8835,9.8121 C17.7985,9.7891 17.7515,9.7721 17.7035,9.7631 C17.0465,9.6361 16.3885,9.5161 15.7335,9.3801 C15.5855,9.3491 15.4815,9.3731 15.3625,9.4611 C14.8215,9.8671 14.2725,10.2651 13.7275,10.6651 C13.3815,10.9191 13.0355,11.1721 12.6685,11.4421 C13.1085,11.5721 13.5295,11.6051 13.9515,11.5651 C15.4435,11.4211 16.6855,10.7071 17.8835,9.8121 L17.8835,9.8121 Z M9.2385,14.0541 C8.9085,15.2801 8.9755,16.4411 9.4175,17.5781 C9.7195,18.3581 10.1755,19.0361 10.8245,19.6241 C10.8355,19.1741 10.7525,18.7841 10.5365,18.4511 C10.2935,18.0791 10.3175,17.7251 10.4845,17.3511 C10.6345,17.0141 10.8005,16.6841 10.9445,16.3451 C11.1725,15.8131 11.1485,15.7371 10.5855,15.5851 C10.1455,15.4671 9.8505,15.2171 9.6535,14.8181 C9.5315,14.5721 9.3915,14.3341 9.2385,14.0541 L9.2385,14.0541 Z M10.6715,10.2581 C11.0585,10.6211 11.4655,10.9151 11.9125,11.1551 C12.0305,11.2191 12.1095,11.1981 12.2095,11.1241 C12.8415,10.6551 13.4785,10.1921 14.1135,9.7261 C14.3385,9.5611 14.5625,9.3951 14.7935,9.2231 C14.7635,9.2051 14.7535,9.1961 14.7425,9.1941 C14.0805,9.0611 13.4185,8.9281 12.7555,8.8011 C12.7085,8.7921 12.6445,8.8131 12.6035,8.8431 C11.9625,9.3091 11.3235,9.7801 10.6715,10.2581 L10.6715,10.2581 Z M14.8595,8.6691 C14.7905,8.5711 14.7535,8.5161 14.7145,8.4621 C14.1475,7.6881 13.5795,6.9141 13.0125,6.1401 C12.7515,5.7831 12.7485,5.7721 12.3195,5.8781 C11.9855,5.9611 11.6585,6.0751 11.3055,6.1821 C11.7015,6.7231 12.0925,7.2091 12.4275,7.7301 C12.6885,8.1351 12.9975,8.4011 13.4935,8.4031 C13.5055,8.4031 13.5175,8.4111 13.5295,8.4131 C13.9565,8.4961 14.3825,8.5781 14.8595,8.6691 L14.8595,8.6691 Z M21.5165,11.9891 C22.3135,11.6931 23.0145,11.3291 23.5795,10.7401 C23.9595,10.3451 24.2045,9.8821 24.2735,9.3121 C23.6225,9.5801 22.9875,9.8391 22.3555,10.1061 C22.3045,10.1271 22.2665,10.2021 22.2425,10.2601 C22.0545,10.7001 21.8715,11.1431 21.6865,11.5841 C21.6355,11.7061 21.5845,11.8281 21.5165,11.9891 L21.5165,11.9891 Z M20.9375,8.0211 C20.1925,8.8551 20.3525,10.4891 21.0215,11.7971 C21.2655,11.2131 21.5055,10.6411 21.7425,10.0681 C21.7545,10.0391 21.7485,9.9961 21.7355,9.9651 C21.4715,9.3191 21.2055,8.6731 20.9375,8.0211 L20.9375,8.0211 Z M8.9795,8.0651 C9.3655,8.7421 9.7895,9.3361 10.2955,9.8771 C10.8525,9.4691 11.3925,9.0721 11.9695,8.6481 C10.9585,8.4511 9.9965,8.2631 8.9795,8.0651 L8.9795,8.0651 Z M23.2595,6.4481 C22.5205,6.7191 21.8725,7.0481 21.3185,7.5571 C21.5595,8.1411 21.7975,8.7181 22.0515,9.3341 C22.4575,8.3631 22.8495,7.4261 23.2595,6.4481 L23.2595,6.4481 Z M12.0755,8.1281 C11.6395,7.5341 11.2335,6.9801 10.8005,6.3901 C10.2205,6.7601 9.6515,7.1231 9.0825,7.4871 C9.0915,7.5081 9.1005,7.5291 9.1085,7.5501 C10.0825,7.7401 11.0555,7.9291 12.0755,8.1281 L12.0755,8.1281 Z M22.5835,9.4361 C23.1565,9.1991 23.6835,8.9831 24.2065,8.7601 C24.2465,8.7431 24.2905,8.6691 24.2865,8.6251 C24.2695,8.4231 24.2465,8.2211 24.2075,8.0231 C24.1145,7.5591 23.9625,7.1131 23.7435,6.6611 C23.3565,7.5871 22.9805,8.4861 22.5835,9.4361 L22.5835,9.4361 Z" id="Fill-114" fill="#8F855C"></path></g></g></g></svg>