<svg id="Pdf-2" xmlns="http://www.w3.org/2000/svg" xmlns:xlink="http://www.w3.org/1999/xlink" width="32" height="32" viewBox="0 0 32 32">
  <defs>
    <clipPath id="clip-path">
      <rect id="Rect치ngulo_551" data-name="Rect치ngulo 551" width="32" height="32" transform="translate(4800 12807)" fill="#fff"/>
    </clipPath>
    <linearGradient id="linear-gradient" x1="0.5" x2="0.5" y2="1" gradientUnits="objectBoundingBox">
      <stop offset="0" stop-color="#009fda"/>
      <stop offset="1" stop-color="#009fda"/>
    </linearGradient>
  </defs>
  <g id="Pdf" transform="translate(-4800 -12807)" clip-path="url(#clip-path)">
    <g id="off" transform="translate(-7271.758 10341.082)">
      <path id="Sustracci칩n_9" data-name="Sustracci칩n 9" d="M5.225,31.351H3.919A3.919,3.919,0,0,1,0,27.432V3.929A3.919,3.919,0,0,1,3.919.01L15.747,0,18.24,2.623H3.919A1.306,1.306,0,0,0,2.613,3.929v23.5a1.306,1.306,0,0,0,1.306,1.306H5.225Zm20.9-18.276H23.513V7.882l2.613,2.554v2.637Z" transform="translate(12071.321 2466.242)" fill="url(#linear-gradient)"/>
      <path id="Trazado_500" data-name="Trazado 500" d="M0,0,5.217,5.145l5.233,5.3H0Z" transform="translate(12086.996 2466.254)" fill="url(#linear-gradient)"/>
      <text id="PDF-2-2" data-name="PDF" transform="translate(12079.195 2492.38)" fill="#009fda" font-size="12" font-family="Arial-BoldMT, Arial" font-weight="700"><tspan x="0" y="0">PDF</tspan></text>
    </g>
  </g>
</svg>
