<svg id="XLS-2" xmlns="http://www.w3.org/2000/svg" xmlns:xlink="http://www.w3.org/1999/xlink" width="32" height="32" viewBox="0 0 32 32">
  <defs>
    <clipPath id="clip-path">
      <rect id="Rect치ngulo_551" data-name="Rect치ngulo 551" width="32" height="32" transform="translate(4890 12741)" fill="#fff" stroke="#707070" stroke-width="1"/>
    </clipPath>
    <linearGradient id="linear-gradient" x1="0.5" x2="0.5" y2="1" gradientUnits="objectBoundingBox">
      <stop offset="0" stop-color="#009fda"/>
      <stop offset="1" stop-color="#009fda"/>
    </linearGradient>
  </defs>
  <g id="XLS" transform="translate(-4890 -12741)" clip-path="url(#clip-path)">
    <g id="XLS-2-2" data-name="XLS" transform="translate(4889.563 12741.324)">
      <path id="Sustracci칩n_11" data-name="Sustracci칩n 11" d="M5.225,31.351H3.919A3.919,3.919,0,0,1,0,27.432V3.929A3.919,3.919,0,0,1,3.919.01L15.747,0,18.24,2.623H3.919A1.306,1.306,0,0,0,2.613,3.929v23.5a1.306,1.306,0,0,0,1.306,1.306H5.225Zm20.9-18.276H23.513V7.882l2.613,2.554v2.637Z" fill="url(#linear-gradient)"/>
      <path id="Trazado_515" data-name="Trazado 515" d="M0,0,5.217,5.145l5.233,5.3H0Z" transform="translate(15.675 0.012)" fill="url(#linear-gradient)"/>
      <text id="XLS-3" data-name="XLS" transform="translate(7.874 26.137)" fill="#009fda" font-size="12" font-family="Arial-BoldMT, Arial" font-weight="700"><tspan x="0" y="0">XLS</tspan></text>
    </g>
  </g>
</svg>
