<?xml version="1.0" encoding="UTF-8"?>
<svg viewBox="0 0 61.964 41.309" xmlns="http://www.w3.org/2000/svg">
    <g transform="translate(-1056.5 -2681.3)" fill="#0dbe98" data-name="Groupe 265">
        <path transform="translate(1058.5 2683.3)" d="M2.59,2.59V34.719H55.374V2.59H2.59M2.59-2H55.374a4.59,4.59,0,0,1,4.59,4.59V34.719a4.59,4.59,0,0,1-4.59,4.59H2.59A4.59,4.59,0,0,1-2,34.719V2.59A4.59,4.59,0,0,1,2.59-2Z" data-name="Rectangle 9"/>
        <path transform="translate(2.419 1.218)" d="m1086.3 2706a2.29 2.29 0 0 1-1.364-0.449l-26.58-19.646 2.728-3.691 25.152 18.591 22.9-18.529 2.887 3.568-24.281 19.646a2.293 2.293 0 0 1-1.442 0.51z" data-name="Tracé 27"/>
    </g>
</svg>
