<?xml version="1.0" encoding="UTF-8"?>
<svg viewBox="0 0 65 67" xmlns="http://www.w3.org/2000/svg">
<defs>
<clipPath id="a">
<rect width="25.394" height="24.262" fill="#fff" data-name="Rectangle 77"/>
</clipPath>
</defs>
<g transform="translate(.061 .179)" data-name="Groupe 260">
<ellipse transform="translate(-.061 -.179)" cx="32.5" cy="33.5" rx="32.5" ry="33.5" fill="#0dbe98" data-name="Ellipse 3"/>
<g transform="translate(20.685 18.388)" data-name="Groupe 200">
<g clip-path="url(#a)" fill="#fff" data-name="Groupe 200">
<path transform="translate(-75.107 -64.349)" d="M100.5,87.952c0,.486-.117.669-.635.657-1.457-.033-2.917-.029-4.374,0-.467.008-.593-.151-.591-.6q.022-4.271-.006-8.543a5.755,5.755,0,0,0-.2-1.379,2.6,2.6,0,0,0-4.3-1.15,3.387,3.387,0,0,0-1.039,2.623c0,2.813-.011,5.625.01,8.439,0,.475-.126.621-.607.61-1.457-.03-2.917-.022-4.374,0-.394,0-.544-.092-.543-.519q.022-7.683,0-15.367c0-.414.133-.548.534-.545q2.239.02,4.478,0c.378,0,.528.126.505.518-.029.5-.007,1-.007,1.505A5.65,5.65,0,0,1,92.7,71.987c3.543-.674,6.782.817,7.575,5.046a14.115,14.115,0,0,1,.211,2.48c.025,2.813,0,5.626.019,8.439" data-name="Tracé 143"/>
<path transform="translate(0 -.002)" d="M6.221,2.949A2.935,2.935,0,0,1,3.074,5.791,2.933,2.933,0,0,1,0,2.868,2.943,2.943,0,0,1,3.132,0a2.9,2.9,0,0,1,3.09,2.947" data-name="Tracé 144"/>
<path transform="translate(-2.617 -67.286)" d="M8.522,90.869c.005.519-.135.693-.672.679-1.441-.036-2.882-.028-4.323,0-.444.007-.607-.108-.606-.579q.022-7.633,0-15.266c0-.42.122-.593.56-.588q2.239.027,4.48,0c.447-.005.556.185.554.6-.013,2.536-.006,5.071-.006,7.608,0,2.518-.012,5.037.01,7.555" data-name="Tracé 145"/>
<path transform="translate(-75.112 -64.35)" d="M89.358,74.2A5.648,5.648,0,0,1,92.7,71.988c3.542-.674,6.781.817,7.575,5.046a14.184,14.184,0,0,1,.211,2.481c.025,2.813,0,5.626.019,8.439,0,.486-.117.669-.636.657-1.458-.033-2.917-.029-4.374,0-.466.009-.592-.151-.59-.6q.021-4.271-.007-8.543a5.748,5.748,0,0,0-.2-1.379,2.6,2.6,0,0,0-4.3-1.151,3.386,3.386,0,0,0-1.039,2.623c0,2.813-.011,5.626.01,8.439,0,.476-.126.621-.607.611-1.458-.03-2.916-.022-4.374,0-.393,0-.543-.091-.542-.519q.021-7.683,0-15.367c0-.414.134-.549.534-.545q2.239.02,4.479,0c.378,0,.528.126.505.517-.029.5-.007,1-.007,1.506" data-name="Tracé 146"/>
<path transform="translate(-2.618 -67.284)" d="M8.513,83.311c0,2.518-.013,5.037.011,7.555,0,.519-.136.692-.672.679-1.44-.036-2.882-.027-4.323,0-.443.007-.607-.108-.606-.579q.022-7.633,0-15.267c0-.419.122-.592.56-.587q2.24.026,4.48,0c.447-.005.557.185.555.6-.013,2.536-.006,5.072-.006,7.607" data-name="Tracé 147"/>
<path transform="translate(0)" d="M6.221,2.947A2.934,2.934,0,0,1,3.074,5.789,2.932,2.932,0,0,1,0,2.866,2.944,2.944,0,0,1,3.132,0,2.9,2.9,0,0,1,6.221,2.947" data-name="Tracé 148"/>
</g>
</g>
</g>
</svg>
