<?xml version="1.0" encoding="UTF-8"?>
<svg viewBox="0 0 65 65" xmlns="http://www.w3.org/2000/svg">
<g transform="translate(-.032 .179)" data-name="Groupe 259">
<circle transform="translate(.032 -.179)" cx="32.5" cy="32.5" r="32.5" fill="#0dbe98" data-name="Ellipse 8"/>
<path transform="translate(-9.135 -1.879)" d="M34.954,52.979c-1.138-4.106-.229-7.738.661-11.371.3-1.211.573-2.427.875-3.636a13.536,13.536,0,0,0,.341-5.233,9.126,9.126,0,0,1,1.046-4.687,2.652,2.652,0,0,1,3.38-1.261,2.544,2.544,0,0,1,1.785,3.1,51.565,51.565,0,0,1-1.308,5.349c-.639,2.35-.36,3.592,1.065,4.4a3.878,3.878,0,0,0,4.918-1.3,11.77,11.77,0,0,0,2.051-11.1,6.646,6.646,0,0,0-2.7-3.35,8.993,8.993,0,0,0-9.5.051,8.4,8.4,0,0,0-4.412,8,11.523,11.523,0,0,0,.962,3.181c.148.44.583.894.513,1.273a13.1,13.1,0,0,1-.833,2.265,6.426,6.426,0,0,1-2.037-.842c-2.869-2.675-3.031-6.05-2.09-9.548,1.392-5.173,6.16-8.658,12.169-9.068,5.661-.385,10.457,2.3,12.52,7.011S54.6,38.316,50.6,41.534c-2.464,1.983-7.009,3.2-10.479.03-1.083,4.037-1.9,8.123-5.166,11.415" fill="#fff" data-name="Tracé 142"/>
</g>
</svg>
