<?xml version="1.0" encoding="UTF-8"?>
<svg viewBox="0 0 65 65" xmlns="http://www.w3.org/2000/svg">
<g transform="translate(-.124 .179)" data-name="Groupe 262">
<circle transform="translate(.124 -.179)" cx="32.5" cy="32.5" r="32.5" fill="#0dbe98" data-name="Ellipse 5"/>
<path transform="translate(-314.21 15.846)" d="M359.543,9.765c.019.272.019.545.019.815a17.731,17.731,0,0,1-17.609,17.853h-.238a17.733,17.733,0,0,1-9.642-2.817,12.9,12.9,0,0,0,1.522.078,12.566,12.566,0,0,0,7.782-2.681,6.286,6.286,0,0,1-5.865-4.358,7.908,7.908,0,0,0,1.184.1,6.627,6.627,0,0,0,1.651-.213,6.276,6.276,0,0,1-5.031-6.15v-.078a6.318,6.318,0,0,0,2.837.8,6.284,6.284,0,0,1-1.943-8.394,17.835,17.835,0,0,0,12.939,6.567,7.1,7.1,0,0,1-.156-1.438,6.281,6.281,0,0,1,10.86-4.293,12.358,12.358,0,0,0,3.982-1.522,6.257,6.257,0,0,1-2.759,3.464,12.589,12.589,0,0,0,3.615-.971,13.5,13.5,0,0,1-3.146,3.244Z" fill="#fff" data-name="Tracé 139"/>
</g>
</svg>
