<?xml version="1.0" standalone="no"?>
<!DOCTYPE svg PUBLIC "-//W3C//DTD SVG 20010904//EN"
 "http://www.w3.org/TR/2001/REC-SVG-20010904/DTD/svg10.dtd">
<svg version="1.0" xmlns="http://www.w3.org/2000/svg"
 width="150.000000pt" height="150.000000pt" viewBox="0 0 150.000000 150.000000"
 preserveAspectRatio="xMidYMid meet">
<metadata>
Created by potrace 1.14, written by Peter Selinger 2001-2017
</metadata>
<g transform="translate(0.000000,150.000000) scale(0.100000,-0.100000)"
fill="#000000" stroke="none">
<path d="M72 1376 c-47 -26 -54 -76 -19 -139 13 -23 73 -127 134 -232 60 -104
124 -215 141 -245 160 -288 366 -626 387 -638 28 -14 67 -8 89 16 12 14 110
179 208 352 44 76 331 575 349 604 63 107 109 197 109 214 0 12 -10 33 -23 48
l-24 27 -667 1 c-393 1 -674 -3 -684 -8z m781 -393 c72 -123 91 -163 79 -164
-84 -4 -382 -3 -382 2 0 3 14 26 30 52 17 26 30 49 30 51 0 2 24 43 53 92 29
49 59 101 66 117 8 15 18 24 22 20 4 -5 50 -81 102 -170z"/>
</g>
</svg>
