<svg width="162" height="160" viewBox="0 0 162 160" fill="none" xmlns="http://www.w3.org/2000/svg">
  <rect x="5" y="5" width="150" height="150" rx="75" fill="white" fill-opacity="0.03" stroke="#141415" stroke-width="10"/>
  <rect x="2" y="26.0029" width="160" height="100" rx="10" fill="url(#paint0_linear_3401_21327)"/>
  <rect x="15.9883" y="41.3525" width="125" height="32" rx="4" transform="rotate(-15 15.9883 41.3525)" fill="#2E3032"/>
  <path d="M140.007 67.2578C141.608 67.6866 142.558 69.3316 142.129 70.932L133.329 103.774C132.9 105.374 131.255 106.324 129.655 105.895L95.1228 96.6421C93.5224 96.2132 92.5726 94.5682 93.0014 92.9678L101.801 60.1263C102.23 58.5259 103.875 57.5762 105.476 58.005L140.007 67.2578Z" fill="#2E3032" stroke="#49BC74" stroke-width="2"/>
  <path d="M102.896 90.5517C102.694 90.6981 102.406 90.6208 102.304 90.3931L100.295 85.8894C100.162 85.5915 100.435 85.2763 100.753 85.3614L106.755 86.9697C107.073 87.0549 107.153 87.4647 106.889 87.6562L102.896 90.5517Z" fill="#8DD294"/>
  <path d="M104.702 86.4194L102.807 85.9117L104.309 80.3058C104.447 79.7897 104.983 79.4851 105.507 79.6253C106.03 79.7655 106.342 80.2974 106.204 80.8135L104.702 86.4194Z" fill="#8DD294"/>
  <path d="M108.191 67.0914L107.444 69.8805L111.115 70.8643L110.941 71.5134L107.27 70.5296L106.462 73.5419L105.712 73.3408L107.614 66.2412L112.483 67.5457L112.309 68.1948L108.191 67.0914Z" fill="#6D6E6F"/>
  <path d="M117.492 73.8775L113.03 72.6817C112.922 73.2471 113.014 73.7538 113.307 74.2019C113.602 74.6432 114.043 74.9427 114.632 75.1003C114.963 75.1891 115.283 75.2131 115.591 75.1725C115.901 75.1251 116.188 75.0136 116.452 74.838L116.733 75.4133C116.42 75.6339 116.065 75.7705 115.666 75.8232C115.275 75.8778 114.866 75.848 114.44 75.7338C113.893 75.5871 113.436 75.3417 113.072 74.9977C112.716 74.6487 112.475 74.2363 112.349 73.7604C112.223 73.2846 112.23 72.7863 112.369 72.2657C112.509 71.745 112.745 71.3084 113.079 70.9557C113.419 70.6049 113.816 70.367 114.27 70.2422C114.731 70.1192 115.208 70.1239 115.701 70.2561C116.195 70.3884 116.607 70.622 116.938 70.957C117.268 71.2919 117.49 71.6955 117.602 72.1678C117.717 72.6333 117.703 73.1297 117.562 73.6571L117.492 73.8775ZM115.536 70.8748C115.022 70.7371 114.545 70.7868 114.104 71.0239C113.672 71.2561 113.362 71.6295 113.174 72.1442L116.957 73.1579C117.051 72.6178 116.965 72.1384 116.701 71.7196C116.445 71.2959 116.056 71.0143 115.536 70.8748Z" fill="#6D6E6F"/>
  <path d="M124.006 75.6228L119.543 74.427C119.435 74.9923 119.527 75.499 119.82 75.9471C120.115 76.3885 120.557 76.688 121.145 76.8456C121.476 76.9344 121.796 76.9584 122.104 76.9177C122.414 76.8703 122.701 76.7588 122.965 76.5833L123.246 77.1585C122.933 77.3791 122.578 77.5158 122.18 77.5685C121.788 77.623 121.38 77.5932 120.954 77.4791C120.406 77.3324 119.95 77.087 119.585 76.7429C119.23 76.394 118.989 75.9815 118.863 75.5057C118.736 75.0298 118.743 74.5316 118.883 74.0109C119.022 73.4903 119.259 73.0536 119.592 72.701C119.933 72.3501 120.33 72.1123 120.784 71.9875C121.244 71.8645 121.721 71.8691 122.215 72.0014C122.708 72.1336 123.12 72.3673 123.451 72.7022C123.782 73.0372 124.003 73.4408 124.116 73.913C124.23 74.3785 124.217 74.8749 124.075 75.4023L124.006 75.6228ZM122.049 72.6201C121.535 72.4824 121.058 72.5321 120.618 72.7692C120.186 73.0013 119.876 73.3748 119.687 73.8895L123.47 74.9031C123.564 74.3631 123.479 73.8836 123.214 73.4649C122.958 73.0412 122.57 72.7596 122.049 72.6201Z" fill="#6D6E6F"/>
  <path d="M28.5936 51.4202C28.0849 51.5565 27.5716 51.6112 27.0536 51.5844C26.5404 51.5493 26.1149 51.4425 25.7772 51.2638L25.9327 50.4146C26.2524 50.5774 26.6317 50.6794 27.0706 50.7205C27.5143 50.7535 27.9486 50.713 28.3736 50.5991C28.9338 50.449 29.3274 50.2435 29.5543 49.9826C29.7794 49.7152 29.8497 49.4237 29.7651 49.1082C29.703 48.8764 29.5757 48.7103 29.3832 48.6101C29.1954 48.5016 28.9785 48.439 28.7324 48.4221C28.4927 48.4035 28.1571 48.4002 27.7255 48.4124C27.184 48.4263 26.7391 48.4144 26.3908 48.3766C26.0489 48.3371 25.7317 48.2219 25.439 48.0312C25.151 47.8323 24.9492 47.5171 24.8336 47.0856C24.737 46.725 24.7432 46.3748 24.8523 46.035C24.9679 45.6935 25.1955 45.384 25.5353 45.1066C25.8751 44.8292 26.3316 44.6137 26.9047 44.4602C27.3039 44.3532 27.7105 44.2994 28.1245 44.2989C28.5385 44.2984 28.9098 44.3577 29.2385 44.4767L29.1268 45.3348C28.7951 45.2304 28.4562 45.1763 28.1101 45.1724C27.7622 45.1621 27.4338 45.1984 27.1247 45.2812C26.5773 45.4279 26.1919 45.6381 25.9685 45.9119C25.7515 46.184 25.6853 46.4778 25.7699 46.7934C25.832 47.0252 25.9602 47.1944 26.1544 47.3011C26.3469 47.4014 26.5671 47.4632 26.8149 47.4865C27.0674 47.5017 27.4022 47.5017 27.8191 47.4866C28.3606 47.4726 28.8023 47.4854 29.1442 47.5249C29.4861 47.5645 29.8001 47.6805 30.0864 47.873C30.3791 48.0637 30.5823 48.3716 30.6962 48.7966C30.7911 49.1508 30.7817 49.5018 30.6678 49.8498C30.5523 50.1914 30.3214 50.5017 29.9752 50.7808C29.6273 51.0535 29.1667 51.2666 28.5936 51.4202ZM36.4152 46.5292C36.4341 46.6 36.4527 46.6951 36.4709 46.8144L32.3174 47.9274C32.4962 48.3626 32.7901 48.6738 33.1991 48.861C33.6129 49.04 34.0709 49.0622 34.5732 48.9276C35.1849 48.7637 35.6223 48.4256 35.8854 47.9134L36.5578 48.3751C36.3984 48.7077 36.1639 48.9914 35.8541 49.2263C35.5508 49.4594 35.1866 49.6329 34.7616 49.7468C34.2207 49.8917 33.7116 49.9108 33.2344 49.804C32.7554 49.6908 32.3465 49.4656 32.0077 49.1284C31.6754 48.7896 31.4419 48.369 31.3073 47.8667C31.1745 47.3709 31.164 46.894 31.276 46.4361C31.3944 45.9765 31.6174 45.5854 31.9451 45.2629C32.2776 44.9323 32.6885 44.7014 33.1779 44.5703C33.6673 44.4391 34.1321 44.4354 34.5725 44.559C35.0175 44.6744 35.3997 44.9032 35.7192 45.2455C36.0452 45.5861 36.2771 46.014 36.4152 46.5292ZM33.3875 45.3527C32.9432 45.4717 32.6059 45.707 32.3757 46.0586C32.152 46.4084 32.073 46.8092 32.1388 47.2609L35.423 46.3809C35.2559 45.9633 34.9847 45.6598 34.6096 45.4704C34.2392 45.2729 33.8318 45.2336 33.3875 45.3527ZM36.4605 41.5477L37.3877 41.2992L39.3082 48.4664L38.3809 48.7149L36.4605 41.5477ZM39.1583 40.8248L40.0855 40.5764L42.006 47.7435L41.0787 47.992L39.1583 40.8248ZM42.4048 42.1497L43.332 41.9012L44.7038 47.0206L43.7765 47.2691L42.4048 42.1497ZM42.6044 41.0402C42.4241 41.0885 42.2572 41.0711 42.1038 40.988C41.9569 40.9032 41.8609 40.777 41.8161 40.6096C41.7712 40.4422 41.7912 40.285 41.8761 40.138C41.9656 39.9829 42.1006 39.8811 42.2809 39.8328C42.4612 39.7845 42.6248 39.8028 42.7718 39.8876C42.9235 39.9643 43.0218 40.0864 43.0666 40.2538C43.1132 40.4277 43.0917 40.5922 43.0021 40.7473C42.9173 40.8943 42.7847 40.9919 42.6044 41.0402ZM47.8232 40.6461C48.4736 40.4718 49.0396 40.5237 49.5214 40.8019C50.0078 41.0718 50.3485 41.5706 50.5435 42.2983L51.3329 45.2444L50.4056 45.4928L49.6447 42.653C49.5118 42.1572 49.2926 41.8156 48.9871 41.6283C48.6815 41.441 48.3066 41.4069 47.8622 41.526C47.36 41.6605 47.0036 41.9148 46.7932 42.2886C46.5811 42.656 46.5483 43.1134 46.695 43.6608L47.4016 46.2978L46.4743 46.5462L45.1026 41.4268L45.9912 41.1887L46.1983 41.9615C46.3143 41.6474 46.5111 41.3773 46.7886 41.151C47.0726 40.9231 47.4175 40.7548 47.8232 40.6461ZM56.6028 38.3454L57.7882 42.7693C58.028 43.6644 57.9827 44.384 57.6523 44.928C57.3236 45.4785 56.7181 45.872 55.8359 46.1084C55.3529 46.2378 54.8744 46.2935 54.4003 46.2756C53.9279 46.2642 53.5237 46.1723 53.1876 46.0001L53.4404 45.1663C53.7339 45.3085 54.07 45.391 54.4488 45.4137C54.8358 45.4411 55.216 45.4048 55.5895 45.3047C56.1884 45.1443 56.5915 44.8844 56.7989 44.5252C57.0128 44.1642 57.0421 43.6939 56.8868 43.1143L56.7781 42.7087C56.6299 43.0313 56.4129 43.3034 56.1272 43.5249C55.8462 43.7383 55.5189 43.895 55.1454 43.9951C54.656 44.1262 54.1841 44.1422 53.7296 44.0431C53.2799 43.9359 52.8922 43.7257 52.5668 43.4126C52.2396 43.0931 52.0113 42.6918 51.8819 42.2089C51.7525 41.7259 51.7504 41.2675 51.8757 40.8336C51.9993 40.3933 52.2299 40.0174 52.5675 39.7061C52.9115 39.3931 53.3283 39.171 53.8177 39.0399C54.204 38.9363 54.5804 38.9114 54.9468 38.9651C55.3196 39.017 55.6494 39.153 55.936 39.3729L55.7238 38.5809L56.6028 38.3454ZM55.0342 43.1552C55.3691 43.0655 55.6496 42.9144 55.8756 42.702C56.1081 42.4879 56.2648 42.2354 56.3456 41.9446C56.4311 41.6456 56.4307 41.3351 56.3445 41.0131C56.2116 40.5173 55.9404 40.162 55.5309 39.9474C55.1197 39.7263 54.6565 39.6847 54.1413 39.8228C53.6197 39.9625 53.2361 40.231 52.9905 40.6281C52.7432 41.0187 52.686 41.462 52.8188 41.9578C52.9051 42.2798 53.0568 42.5497 53.2739 42.7676C53.4958 42.9773 53.7577 43.1177 54.0597 43.1886C54.3681 43.2578 54.693 43.2467 55.0342 43.1552ZM63.67 36.4C64.1658 36.2671 64.6395 36.2575 65.0909 36.3712C65.5424 36.4849 65.9302 36.7088 66.2544 37.0429C66.5851 37.3754 66.8194 37.7992 66.9574 38.3143C67.0955 38.8295 67.1053 39.3169 66.9869 39.7765C66.8732 40.228 66.6493 40.6158 66.3151 40.94C65.981 41.2642 65.566 41.4927 65.0702 41.6256C64.7031 41.724 64.3461 41.7437 63.999 41.6849C63.6584 41.6243 63.3456 41.4872 63.0606 41.2737L63.7698 43.9204L62.8425 44.1688L60.9686 37.1755L61.8573 36.9374L62.0747 37.7488C62.2048 37.4102 62.4087 37.1279 62.6863 36.9016C62.9621 36.669 63.29 36.5018 63.67 36.4ZM64.7755 40.8349C65.1039 40.7469 65.3771 40.5944 65.5949 40.3772C65.8176 40.152 65.9667 39.8842 66.0423 39.5741C66.1227 39.2558 66.1154 38.9195 66.0205 38.5654C65.9256 38.2112 65.7646 37.9196 65.5376 37.6905C65.3153 37.4533 65.0523 37.296 64.7486 37.2187C64.4513 37.1396 64.1385 37.144 63.8101 37.232C63.4881 37.3183 63.2158 37.4741 62.9932 37.6994C62.7753 37.9165 62.6253 38.181 62.5433 38.4929C62.4676 38.803 62.4772 39.1352 62.5721 39.4894C62.667 39.8435 62.8256 40.1392 63.0479 40.3764C63.2685 40.6072 63.5315 40.7645 63.837 40.8483C64.1407 40.9257 64.4535 40.9212 64.7755 40.8349ZM68.6718 36.0329C68.7534 35.6935 68.9313 35.4043 69.2054 35.1652C69.4795 34.9261 69.842 34.7462 70.2927 34.6254L70.5334 35.5237C70.4802 35.5311 70.4085 35.5468 70.3183 35.571C69.8161 35.7056 69.4606 35.963 69.2519 36.3433C69.0479 36.7154 69.0201 37.1784 69.1685 37.7322L69.8518 40.2823L68.9245 40.5307L67.5528 35.4113L68.4414 35.1732L68.6718 36.0329ZM71.4486 34.3674L72.3759 34.119L73.7476 39.2384L72.8203 39.4869L71.4486 34.3674ZM71.6482 33.258C71.4679 33.3063 71.301 33.2889 71.1476 33.2057C71.0007 33.1209 70.9048 32.9948 70.8599 32.8273C70.815 32.6599 70.835 32.5027 70.9199 32.3557C71.0094 32.2006 71.1444 32.0989 71.3247 32.0506C71.505 32.0022 71.6686 32.0205 71.8156 32.1054C71.9673 32.1821 72.0656 32.3041 72.1104 32.4715C72.157 32.6454 72.1355 32.8099 72.0459 32.965C71.9611 33.112 71.8285 33.2097 71.6482 33.258ZM77.7649 38.2241C77.2433 38.3638 76.7463 38.3762 76.2737 38.2613C75.8077 38.1446 75.4061 37.9209 75.069 37.5902C74.7302 37.2531 74.4935 36.8334 74.3589 36.3311C74.2243 35.8288 74.2203 35.3502 74.3469 34.8953C74.4717 34.4339 74.7077 34.0394 75.0547 33.7118C75.4064 33.376 75.8431 33.1382 76.3647 32.9984C76.8284 32.8742 77.2655 32.8571 77.6762 32.9472C78.0932 33.0356 78.4491 33.2302 78.7436 33.5308L78.1601 34.1738C77.9335 33.9722 77.6847 33.8422 77.4137 33.7837C77.1426 33.7252 76.8622 33.7347 76.5725 33.8124C76.2376 33.9021 75.9548 34.0572 75.724 34.2778C75.4997 34.4967 75.3473 34.7653 75.267 35.0836C75.1913 35.3937 75.201 35.7259 75.2959 36.08C75.3925 36.4407 75.552 36.7396 75.7743 36.9768C76.0013 37.2058 76.2666 37.359 76.5704 37.4364C76.8805 37.512 77.203 37.505 77.5379 37.4153C77.8276 37.3376 78.0753 37.2057 78.2807 37.0195C78.4862 36.8333 78.6367 36.5963 78.7321 36.3085L79.5563 36.5639C79.4515 36.9715 79.2415 37.3211 78.9262 37.6127C78.6157 37.896 78.2286 38.0998 77.7649 38.2241ZM84.9095 33.5351C84.9285 33.606 84.9471 33.7011 84.9653 33.8204L80.8118 34.9333C80.9905 35.3686 81.2844 35.6798 81.6935 35.867C82.1072 36.046 82.5653 36.0682 83.0676 35.9336C83.6793 35.7697 84.1167 35.4316 84.3798 34.9194L85.0522 35.3811C84.8928 35.7137 84.6583 35.9974 84.3485 36.2322C84.0452 36.4654 83.681 36.6389 83.256 36.7527C82.7151 36.8977 82.206 36.9167 81.7288 36.81C81.2498 36.6967 80.8409 36.4716 80.5021 36.1344C80.1698 35.7956 79.9363 35.375 79.8017 34.8727C79.6688 34.3769 79.6584 33.9 79.7704 33.4421C79.8888 32.9824 80.1118 32.5914 80.4395 32.2689C80.7719 31.9383 81.1828 31.7074 81.6722 31.5763C82.1616 31.4451 82.6265 31.4413 83.0668 31.5649C83.5119 31.6803 83.8941 31.9092 84.2136 32.2515C84.5395 32.5921 84.7715 33.02 84.9095 33.5351ZM81.8819 32.3587C81.4376 32.4777 81.1003 32.713 80.8701 33.0646C80.6464 33.4144 80.5674 33.8152 80.6332 34.2669L83.9174 33.3869C83.7502 32.9692 83.4791 32.6657 83.104 32.4764C82.7336 32.2788 82.3262 32.2396 81.8819 32.3587Z" fill="white" fill-opacity="0.3"/>
  <path d="M45.413 56.3004C45.5493 56.8091 45.4717 57.2923 45.1802 57.75C44.8952 58.206 44.3966 58.5604 43.6845 58.8134L43.977 59.9049L43.3588 60.0705L43.0663 58.979C42.5893 59.0792 42.1185 59.1122 41.6538 59.078C41.1938 59.0356 40.8072 58.9321 40.4939 58.7676L40.6494 57.9184C40.9382 58.0688 41.2787 58.1674 41.6708 58.2141C42.0612 58.2545 42.453 58.2358 42.8463 58.158L42.2458 55.917C41.7657 55.9284 41.3571 55.9102 41.02 55.8625C40.6892 55.813 40.3872 55.6904 40.1138 55.4944C39.8469 55.2968 39.6591 54.9951 39.5504 54.5894C39.4141 54.0807 39.482 53.6001 39.7542 53.1476C40.0327 52.6933 40.5217 52.3415 41.2209 52.092L40.9259 50.9908L41.5441 50.8252L41.8365 51.9167C42.207 51.8312 42.5767 51.7943 42.9456 51.8058C43.321 51.8157 43.6575 51.8739 43.9552 51.9805L43.8435 52.8386C43.2339 52.65 42.6383 52.6163 42.0565 52.7377L42.6596 54.9883C43.1607 54.9783 43.5799 54.9971 43.917 55.0448C44.2525 55.086 44.5569 55.2046 44.8302 55.4006C45.1083 55.5883 45.3026 55.8883 45.413 56.3004ZM40.4866 54.2972C40.5608 54.5741 40.7249 54.7613 40.9788 54.8589C41.2327 54.9565 41.5731 55.0034 42 54.9994L41.4409 52.913C41.0426 53.075 40.7663 53.2801 40.612 53.5285C40.456 53.7705 40.4142 54.0267 40.4866 54.2972ZM43.4619 57.9827C43.883 57.8284 44.1756 57.6327 44.3398 57.3955C44.5087 57.15 44.5561 56.8889 44.4819 56.612C44.406 56.3286 44.2355 56.1431 43.9704 56.0554C43.7101 55.9595 43.3551 55.9097 42.9055 55.9059L43.4619 57.9827ZM48.2398 53.3171C48.9203 53.2038 49.481 53.2744 49.9219 53.529C50.3611 53.7771 50.6523 54.1684 50.7955 54.7029C50.899 55.0892 50.8965 55.4661 50.7878 55.8334C50.6775 56.1942 50.4541 56.5198 50.1178 56.8101C49.7862 57.0922 49.3435 57.3074 48.7897 57.4558C48.3067 57.5852 47.8241 57.6386 47.3418 57.616C46.8578 57.587 46.4396 57.4816 46.0872 57.2999L46.3271 56.4178C46.6176 56.5746 46.9613 56.6723 47.3581 56.7109C47.7532 56.7431 48.1536 56.7048 48.5593 56.5961C49.0616 56.4615 49.4227 56.2509 49.6427 55.9642C49.8691 55.6758 49.9322 55.3448 49.8322 54.9713C49.7321 54.5978 49.516 54.3452 49.1839 54.2133C48.8518 54.0814 48.4056 54.0905 47.8453 54.2407L47.3044 54.3856L47.1233 53.7095L48.2642 51.1675L45.0091 52.0398L44.7839 51.1994L49.2465 50.0037L49.4225 50.6605L48.2398 53.3171ZM52.5139 49.1282L54.3256 55.8896L53.3693 56.1459L51.7828 50.2247L50.2566 50.6337L50.0314 49.7933L52.5139 49.1282ZM61.2419 52.2557L59.9572 52.6L60.4024 54.2614L59.4655 54.5124L59.0203 52.851L55.2628 53.8578L55.0817 53.1817L57.3543 47.8312L58.3975 47.5516L56.2283 52.7088L58.8267 52.0126L58.4333 50.5444L59.3412 50.3011L59.7346 51.7693L61.0193 51.425L61.2419 52.2557ZM65.5447 49.084C65.9708 49.1286 66.3239 49.2617 66.6042 49.4834C66.8845 49.7051 67.0764 50.0091 67.1799 50.3955C67.2886 50.8012 67.274 51.1847 67.1362 51.546C66.9966 51.9009 66.7455 52.2132 66.383 52.4829C66.0204 52.7526 65.5655 52.9607 65.0181 53.1074C64.4772 53.2523 63.9823 53.2987 63.5335 53.2464C63.0911 53.1924 62.7208 53.0466 62.4225 52.809C62.1224 52.5651 61.918 52.2402 61.8093 51.8345C61.7058 51.4482 61.7168 51.0898 61.8422 50.7594C61.9741 50.4273 62.2133 50.1354 62.56 49.8838C62.2112 49.8185 61.9236 49.6851 61.697 49.4835C61.4705 49.2819 61.3123 49.0137 61.2226 48.6789C61.1225 48.3054 61.1352 47.9534 61.2606 47.623C61.3925 47.2909 61.6221 47.0016 61.9495 46.7552C62.2769 46.5087 62.682 46.3208 63.165 46.1914C63.6544 46.0602 64.1025 46.0196 64.5092 46.0693C64.9224 46.1173 65.2659 46.2531 65.5397 46.4765C65.8199 46.6982 66.0101 46.9957 66.1102 47.3692C66.1982 47.6977 66.1921 48.0099 66.092 48.3059C65.9966 48.5937 65.8141 48.8531 65.5447 49.084ZM63.3746 46.9738C62.9174 47.0963 62.5835 47.2927 62.373 47.5631C62.1608 47.827 62.0995 48.1264 62.1892 48.4613C62.2789 48.7961 62.4785 49.0256 62.7878 49.1498C63.1036 49.2722 63.4933 49.2713 63.957 49.1471C64.427 49.0212 64.7682 48.8262 64.9805 48.5623C65.1992 48.2966 65.2637 47.9964 65.1739 47.6615C65.0842 47.3267 64.875 47.0997 64.5464 46.9807C64.2224 46.8536 63.8318 46.8513 63.3746 46.9738ZM64.8085 52.325C65.343 52.1818 65.7354 51.9593 65.9858 51.6575C66.2345 51.3493 66.308 51.0053 66.2062 50.6253C66.1061 50.2518 65.8731 50.0003 65.507 49.8706C65.1393 49.7345 64.6881 49.738 64.1537 49.8812C63.6192 50.0244 63.23 50.2461 62.986 50.5461C62.7402 50.8397 62.6674 51.1732 62.7675 51.5467C62.8693 51.9267 63.1017 52.1888 63.4648 52.3331C63.8261 52.4709 64.274 52.4682 64.8085 52.325Z" fill="#D95164"/>
  <g filter="url(#filter0_d_3401_21327)">
    <path d="M35.0809 57.9365C33.902 56.28 31.4339 56.835 31.3068 54.0023C31.2973 53.7921 31.051 53.6938 30.9128 53.842C29.5859 55.2321 28.9644 57.4725 30.6002 59.7511C30.7344 59.9375 30.5505 60.1946 30.3439 60.105C29.3878 59.6989 29.0667 58.8325 28.9662 58.1778C28.9295 57.9363 28.6023 57.9031 28.5276 58.131C28.3563 58.6797 28.258 59.5182 28.5637 60.6593C29.4065 63.1407 31.6803 63.3629 32.4494 63.2632C33.5482 63.1186 34.6426 62.6079 35.259 61.6064C35.9342 60.4924 35.8939 59.0143 35.0809 57.9365ZM31.6355 61.2914C32.2222 60.965 32.4197 60.4093 32.3958 59.9709C32.3672 59.2873 31.6345 58.8068 31.7414 57.6856C32.1115 58.4904 33.537 58.6741 33.7836 59.5942C34.1243 60.726 33.1898 62.0254 31.6355 61.2914Z" fill="#D95164"/>
  </g>
  <rect x="31.2822" y="94.0029" width="100" height="32" rx="4" transform="rotate(15 31.2822 94.0029)" fill="#49BC74"/>
  <path d="M66.1719 124.65C65.4417 124.455 64.7618 124.161 64.1321 123.77C63.5116 123.382 63.0488 122.963 62.7439 122.514L63.7185 121.312C64.024 121.722 64.4296 122.101 64.9354 122.449C65.4527 122.791 65.9953 123.038 66.5632 123.19C67.2664 123.378 67.8195 123.406 68.2225 123.272C68.6345 123.141 68.89 122.891 68.989 122.521C69.0615 122.25 69.0215 122.003 68.8691 121.779C68.7281 121.548 68.5221 121.343 68.2512 121.164C67.9802 120.985 67.6048 120.763 67.1247 120.5C66.4494 120.135 65.9093 119.807 65.5044 119.515C65.1086 119.225 64.7967 118.856 64.5687 118.409C64.3522 117.955 64.3273 117.416 64.494 116.794C64.6341 116.272 64.9007 115.836 65.2937 115.487C65.6981 115.131 66.2182 114.904 66.8538 114.803C67.4984 114.705 68.2354 114.768 69.0648 114.99C69.6418 115.145 70.1904 115.369 70.7107 115.663C71.231 115.957 71.6578 116.293 71.991 116.673L71.0706 117.89C70.7211 117.535 70.3379 117.235 69.9209 116.988C69.504 116.741 69.0837 116.56 68.6599 116.447C67.9658 116.261 67.416 116.239 67.0106 116.382C66.6142 116.527 66.3641 116.793 66.2602 117.181C66.1877 117.451 66.2232 117.697 66.3666 117.919C66.5191 118.144 66.7308 118.346 67.0017 118.524C67.2726 118.703 67.6481 118.925 68.1282 119.189C68.7879 119.539 69.319 119.865 69.7214 120.166C70.1263 120.458 70.4382 120.827 70.6571 121.272C70.885 121.72 70.9169 122.25 70.7526 122.863C70.6125 123.386 70.3414 123.821 69.9394 124.167C69.5464 124.516 69.0276 124.739 68.383 124.837C67.7383 124.935 67.0013 124.873 66.1719 124.65ZM79.3612 124.213C79.3298 124.33 79.2761 124.495 79.2001 124.706L73.534 123.188C73.4906 123.746 73.634 124.239 73.9642 124.666C74.3057 125.086 74.7876 125.379 75.4096 125.546C76.203 125.758 76.9266 125.672 77.5806 125.287L78.2076 126.571C77.7792 126.872 77.2905 127.055 76.7415 127.12C76.1925 127.186 75.607 127.135 74.985 126.968C74.1916 126.756 73.5352 126.411 73.0157 125.933C72.4962 125.456 72.1446 124.893 71.9608 124.245C71.7885 123.59 71.7977 122.906 71.9885 122.194C72.1769 121.491 72.5038 120.902 72.9691 120.428C73.4458 119.947 74.0105 119.625 74.663 119.461C75.3155 119.298 75.9979 119.312 76.7101 119.502C77.4133 119.691 77.9975 120.017 78.4629 120.479C78.9398 120.936 79.2553 121.489 79.4097 122.139C79.5754 122.782 79.5593 123.474 79.3612 124.213ZM76.3477 120.855C75.8068 120.71 75.3035 120.749 74.8379 120.972C74.3838 121.188 74.0448 121.552 73.8212 122.062L77.9186 123.16C77.9866 122.618 77.8793 122.135 77.5966 121.711C77.314 121.288 76.8977 121.002 76.3477 120.855ZM82.7169 118.184L84.4073 118.637L81.7187 128.671L80.0283 128.218L82.7169 118.184ZM86.6259 119.232L88.3163 119.685L85.6277 129.719L83.9373 129.266L86.6259 119.232Z" fill="white"/>
  <path d="M116.055 87.6157C116.797 87.9498 117.313 88.3996 117.604 88.9652C117.897 89.5223 117.954 90.1337 117.776 90.7993C117.638 91.3133 117.376 91.7532 116.989 92.119C116.604 92.4765 116.099 92.7113 115.473 92.8235C114.855 92.9379 114.146 92.8879 113.346 92.6734C112.722 92.5064 112.129 92.2615 111.565 91.9389C111.012 91.6101 110.565 91.2376 110.225 90.8215L111.441 89.4677C111.711 89.8108 112.045 90.1126 112.445 90.3732C112.855 90.6277 113.292 90.817 113.756 90.9411C114.27 91.0789 114.7 91.0903 115.047 90.9756C115.396 90.8524 115.619 90.6096 115.716 90.2473C115.91 89.5228 115.455 89.0126 114.352 88.7169L113.416 88.4663L113.779 87.114L116.151 85.5417L112.384 84.5326L112.825 82.8896L119.017 84.5489L118.662 85.8759L116.055 87.6157ZM121.011 90.2032C120.362 90.0294 119.89 89.6681 119.595 89.1194C119.31 88.5645 119.267 87.9163 119.465 87.1749C119.664 86.4335 120.024 85.8979 120.546 85.5681C121.079 85.2322 121.669 85.1512 122.318 85.325C122.967 85.4988 123.433 85.8632 123.718 86.4181C124.005 86.9646 124.049 87.6085 123.851 88.3499C123.652 89.0914 123.291 89.6312 122.767 89.9693C122.245 90.2991 121.66 90.3771 121.011 90.2032ZM127.561 86.8382L129.065 87.2412L120.653 94.469L119.15 94.0661L127.561 86.8382ZM121.289 89.1669C121.575 89.2437 121.83 89.1855 122.053 88.9925C122.285 88.8018 122.463 88.4747 122.587 88.0113C122.711 87.5479 122.721 87.1757 122.615 86.8946C122.518 86.6158 122.327 86.4381 122.04 86.3613C121.762 86.2868 121.506 86.3491 121.272 86.5483C121.041 86.7391 120.864 87.0619 120.742 87.5169C120.62 87.9719 120.61 88.3441 120.714 88.6336C120.819 88.9146 121.01 89.0924 121.289 89.1669ZM125.896 95.9822C125.475 95.8693 125.122 95.6709 124.837 95.3868C124.562 95.0965 124.382 94.7412 124.296 94.3208C124.21 93.9005 124.233 93.4459 124.364 92.9573C124.494 92.4686 124.702 92.0638 124.987 91.7427C125.272 91.4217 125.604 91.2083 125.985 91.1025C126.376 90.9906 126.782 90.9911 127.203 91.104C127.852 91.2778 128.319 91.6422 128.604 92.1971C128.899 92.7458 128.948 93.3909 128.749 94.1323C128.55 94.8737 128.185 95.4124 127.652 95.7483C127.13 96.0781 126.545 96.156 125.896 95.9822ZM126.174 94.9459C126.46 95.0227 126.715 94.9645 126.939 94.7715C127.173 94.5723 127.351 94.2453 127.472 93.7903C127.594 93.3353 127.603 92.9673 127.497 92.6863C127.403 92.3991 127.212 92.2171 126.926 92.1403C126.648 92.0658 126.393 92.1239 126.161 92.3147C125.929 92.5054 125.751 92.8325 125.627 93.2959C125.503 93.7593 125.494 94.1315 125.599 94.4126C125.704 94.6936 125.896 94.8714 126.174 94.9459Z" fill="#8DD294"/>
  <defs>
    <filter id="filter0_d_3401_21327" x="18.3662" y="43.771" width="27.3652" height="29.5107" filterUnits="userSpaceOnUse" color-interpolation-filters="sRGB">
      <feFlood flood-opacity="0" result="BackgroundImageFix"/>
      <feColorMatrix in="SourceAlpha" type="matrix" values="0 0 0 0 0 0 0 0 0 0 0 0 0 0 0 0 0 0 127 0" result="hardAlpha"/>
      <feOffset/>
      <feGaussianBlur stdDeviation="5"/>
      <feColorMatrix type="matrix" values="0 0 0 0 0 0 0 0 0 0 0 0 0 0 0 0 0 0 0.3 0"/>
      <feBlend mode="normal" in2="BackgroundImageFix" result="effect1_dropShadow_3401_21327"/>
      <feBlend mode="normal" in="SourceGraphic" in2="effect1_dropShadow_3401_21327" result="shape"/>
    </filter>
    <linearGradient id="paint0_linear_3401_21327" x1="146.878" y1="21.7346" x2="82.1945" y2="170.507" gradientUnits="userSpaceOnUse">
      <stop stop-color="#252627"/>
      <stop offset="1" stop-color="#18191B"/>
    </linearGradient>
  </defs>
</svg>
