<svg width="160" height="160" viewBox="0 0 160 160" fill="none" xmlns="http://www.w3.org/2000/svg">
  <rect x="0.277344" width="159.723" height="160" rx="79.8613" fill="white" fill-opacity="0.03"/>
  <path d="M30.5095 65.1986V96.1047C30.5095 101.841 35.3251 106.402 41.0531 106.09L93.3322 103.244C98.636 102.955 102.789 98.5701 102.789 93.2585V51.5369C102.789 44.9873 96.5971 40.2059 90.2603 41.8618L37.9812 55.5235C33.5799 56.6737 30.5095 60.6495 30.5095 65.1986Z" fill="url(#paint0_linear)"/>
  <g filter="url(#filter0_d)">
    <path d="M123.256 38.9036L63.8202 66.293C63.3108 66.5278 63.0942 67.1357 63.3404 67.6398L79.1985 100.117C79.4325 100.596 80.0012 100.807 80.4913 100.597L142.108 74.1824C142.648 73.951 142.873 73.306 142.594 72.7888L124.555 39.3373C124.305 38.8726 123.736 38.6826 123.256 38.9036Z" fill="#49BC74"/>
    <path d="M123.256 38.9036L63.8202 66.293C63.3108 66.5278 63.0942 67.1357 63.3404 67.6398L79.1985 100.117C79.4325 100.596 80.0012 100.807 80.4913 100.597L142.108 74.1824C142.648 73.951 142.873 73.306 142.594 72.7888L124.555 39.3373C124.305 38.8726 123.736 38.6826 123.256 38.9036Z" stroke="#79E1A0" stroke-width="3"/>
  </g>
  <g filter="url(#filter1_d)">
    <path d="M111.008 35.1184L54.181 67.5928C53.6939 67.8711 53.5311 68.4956 53.8202 68.9764L72.4436 99.945C72.7184 100.402 73.3034 100.563 73.7733 100.311L132.858 68.6171C133.376 68.3394 133.543 67.6773 133.221 67.1864L112.34 35.4371C112.05 34.996 111.466 34.8564 111.008 35.1184Z" fill="#49BC74"/>
    <path d="M111.008 35.1184L54.181 67.5928C53.6939 67.8711 53.5311 68.4956 53.8202 68.9764L72.4436 99.945C72.7184 100.402 73.3034 100.563 73.7733 100.311L132.858 68.6171C133.376 68.3394 133.543 67.6773 133.221 67.1864L112.34 35.4371C112.05 34.996 111.466 34.8564 111.008 35.1184Z" stroke="#79E1A0" stroke-width="3"/>
  </g>
  <g filter="url(#filter2_d)">
    <path d="M94.2357 36.295L47.7354 82.3964C47.3368 82.7915 47.3409 83.4371 47.7444 83.8266L73.7346 108.911C74.118 109.282 74.7245 109.285 75.1132 108.92L123.996 62.9875C124.424 62.585 124.415 61.9018 123.976 61.5112L95.6041 36.2576C95.2099 35.9068 94.6108 35.9231 94.2357 36.295Z" fill="#49BC74"/>
    <path d="M94.2357 36.295L47.7354 82.3964C47.3368 82.7915 47.3409 83.4371 47.7444 83.8266L73.7346 108.911C74.118 109.282 74.7245 109.285 75.1132 108.92L123.996 62.9875C124.424 62.585 124.415 61.9018 123.976 61.5112L95.6041 36.2576C95.2099 35.9068 94.6108 35.9231 94.2357 36.295Z" stroke="#79E1A0" stroke-width="3"/>
  </g>
  <rect x="30" y="56" width="88.7776" height="66.1085" rx="8" fill="url(#paint1_linear)"/>
  <path d="M77.5529 100.656H65.1948C65.187 100.656 65.1792 100.656 65.1714 100.656L68.5408 94.7411H74.2135C74.5221 94.7411 74.8074 94.5731 74.962 94.2996C75.3672 93.5811 76.1948 92.1161 76.8907 90.8828C77.2575 90.2333 77.5877 89.6482 77.8016 89.2698C77.8784 89.1334 77.9173 88.9806 77.9173 88.8284C77.9173 88.6756 77.8784 88.5228 77.8016 88.3863C77.5877 88.008 77.2575 87.4228 76.8907 86.7734C76.1948 85.5401 75.3672 84.0751 74.962 83.3571C74.8074 83.0837 74.5221 82.9151 74.2135 82.9151H68.5408L65.1714 77.0006C65.1792 77 65.187 77 65.1948 77H77.5529C77.8616 77 78.1469 77.1686 78.3015 77.442L84.4806 88.3863C84.5573 88.5228 84.5962 88.6756 84.5962 88.8284C84.5962 88.9806 84.5573 89.1334 84.4806 89.2698L78.3015 100.215C78.1469 100.488 77.8616 100.656 77.5529 100.656Z" fill="#49BC74"/>
  <path d="M64.072 88.825C64.0732 88.671 64.0349 88.5164 63.9563 88.3775C63.3372 87.2812 61.7346 84.4422 61.1155 83.3459C60.9615 83.0724 60.9615 82.7359 61.1155 82.463L63.9743 77.3993C64.0624 77.2665 64.1667 77.178 64.268 77.1191L70.6059 88.3775C70.6844 88.517 70.7228 88.6722 70.7216 88.8281C70.7228 88.9833 70.6844 89.1385 70.6059 89.278L64.268 100.536C64.1667 100.478 64.0624 100.389 63.9743 100.256L61.1155 95.1925C60.9615 94.9196 60.9615 94.5831 61.1155 94.3102C61.7346 93.2133 63.3372 90.3743 63.9563 89.278C64.0349 89.1397 64.0732 88.9851 64.072 88.8305V88.8281V88.825Z" fill="#49BC74"/>
  <rect x="97.0759" y="77.1504" width="24.3549" height="23.6102" rx="4" fill="#2F3133"/>
  <rect x="109.645" y="85.0215" width="7.85642" height="7.87006" rx="3.92821" fill="#4C4F52"/>
  <defs>
    <filter id="filter0_d" x="59.7383" y="35.3105" width="90.4766" height="72.8672" filterUnits="userSpaceOnUse" color-interpolation-filters="sRGB">
      <feFlood flood-opacity="0" result="BackgroundImageFix"/>
      <feColorMatrix in="SourceAlpha" type="matrix" values="0 0 0 0 0 0 0 0 0 0 0 0 0 0 0 0 0 0 127 0"/>
      <feOffset dx="2" dy="2"/>
      <feGaussianBlur stdDeviation="2"/>
      <feColorMatrix type="matrix" values="0 0 0 0 0 0 0 0 0 0 0 0 0 0 0 0 0 0 0.2 0"/>
      <feBlend mode="normal" in2="BackgroundImageFix" result="effect1_dropShadow"/>
      <feBlend mode="normal" in="SourceGraphic" in2="effect1_dropShadow" result="shape"/>
    </filter>
    <filter id="filter1_d" x="50.1768" y="31.4863" width="90.7088" height="76.4436" filterUnits="userSpaceOnUse" color-interpolation-filters="sRGB">
      <feFlood flood-opacity="0" result="BackgroundImageFix"/>
      <feColorMatrix in="SourceAlpha" type="matrix" values="0 0 0 0 0 0 0 0 0 0 0 0 0 0 0 0 0 0 127 0"/>
      <feOffset dx="2" dy="2"/>
      <feGaussianBlur stdDeviation="2"/>
      <feColorMatrix type="matrix" values="0 0 0 0 0 0 0 0 0 0 0 0 0 0 0 0 0 0 0.2 0"/>
      <feBlend mode="normal" in2="BackgroundImageFix" result="effect1_dropShadow"/>
      <feBlend mode="normal" in="SourceGraphic" in2="effect1_dropShadow" result="shape"/>
    </filter>
    <filter id="filter2_d" x="43.9395" y="32.5039" width="87.8716" height="84.1873" filterUnits="userSpaceOnUse" color-interpolation-filters="sRGB">
      <feFlood flood-opacity="0" result="BackgroundImageFix"/>
      <feColorMatrix in="SourceAlpha" type="matrix" values="0 0 0 0 0 0 0 0 0 0 0 0 0 0 0 0 0 0 127 0"/>
      <feOffset dx="2" dy="2"/>
      <feGaussianBlur stdDeviation="2"/>
      <feColorMatrix type="matrix" values="0 0 0 0 0 0 0 0 0 0 0 0 0 0 0 0 0 0 0.2 0"/>
      <feBlend mode="normal" in2="BackgroundImageFix" result="effect1_dropShadow"/>
      <feBlend mode="normal" in="SourceGraphic" in2="effect1_dropShadow" result="shape"/>
    </filter>
    <linearGradient id="paint0_linear" x1="95.9573" y1="35.6822" x2="40.754" y2="119.936" gradientUnits="userSpaceOnUse">
      <stop stop-color="#313234"/>
      <stop offset="1" stop-color="#18191B"/>
    </linearGradient>
    <linearGradient id="paint1_linear" x1="110.387" y1="53.1783" x2="62.6249" y2="145.38" gradientUnits="userSpaceOnUse">
      <stop stop-color="#252627"/>
      <stop offset="1" stop-color="#18191B"/>
    </linearGradient>
  </defs>
</svg>
