<svg width="179" height="32" viewBox="0 0 179 32" fill="none" xmlns="http://www.w3.org/2000/svg">
<rect width="32" height="32" rx="2" fill="#107E4F"/>
<path d="M16.573 5.71094L19.0105 13.213H26.8987L20.5171 17.8496L22.9546 25.3517L16.573 20.7151L10.1913 25.3517L12.6289 17.8496L6.24721 13.213H14.1354L16.573 5.71094Z" fill="white"/>
<rect x="36.5693" width="32" height="32" rx="2" fill="#107E4F"/>
<path d="M53.1433 5.71094L55.5809 13.213H63.469L57.0874 17.8496L59.5249 25.3517L53.1433 20.7151L46.7616 25.3517L49.1992 17.8496L42.8175 13.213H50.7057L53.1433 5.71094Z" fill="white"/>
<rect x="73.1436" width="32" height="32" rx="2" fill="#107E4F"/>
<path d="M89.7165 5.71094L92.1541 13.213H100.042L93.6606 17.8496L96.0982 25.3517L89.7165 20.7151L83.3348 25.3517L85.7724 17.8496L79.3908 13.213H87.2789L89.7165 5.71094Z" fill="white"/>
<rect x="109.714" width="32" height="32" rx="2" fill="#107E4F"/>
<path d="M126.287 5.71094L128.724 13.213H136.613L130.231 17.8496L132.668 25.3517L126.287 20.7151L119.905 25.3517L122.343 17.8496L115.961 13.213H123.849L126.287 5.71094Z" fill="white"/>
<rect x="146.287" width="32" height="32" rx="2" fill="#47474D"/>
<path d="M146 2C146 0.895431 146.895 0 148 0H163V32H148C146.895 32 146 31.1046 146 30V2Z" fill="#107E4F"/>
<path d="M162.86 5.71094L165.298 13.213H173.186L166.804 17.8496L169.242 25.3517L162.86 20.7151L156.478 25.3517L158.916 17.8496L152.534 13.213H160.422L162.86 5.71094Z" fill="white"/>
</svg>
