<svg width="120" height="30" viewBox="0 0 120 30" fill="none" xmlns="http://www.w3.org/2000/svg">
<g clip-path="url(#clip0)">
<path d="M31.536 10.3477H43.6864V12.593H38.9089V25.215H36.2817V12.593H31.5254V10.3477H31.536ZM43.1673 14.4501H45.4131V16.5275H45.4555C45.5296 16.2338 45.6673 15.9505 45.8686 15.6777C46.0699 15.4049 46.3135 15.1426 46.5995 14.9222C46.8856 14.6914 47.2034 14.513 47.5529 14.3662C47.9025 14.2298 48.2627 14.1563 48.6228 14.1563C48.8983 14.1563 49.0995 14.1668 49.2055 14.1773C49.3114 14.1878 49.4173 14.2088 49.5339 14.2193V16.5066C49.3644 16.4751 49.1949 16.4541 49.0148 16.4331C48.8347 16.4121 48.6652 16.4016 48.4957 16.4016C48.0932 16.4016 47.7118 16.4856 47.3517 16.643C46.9915 16.8003 46.6843 17.0417 46.4195 17.3459C46.1546 17.6607 45.9428 18.0384 45.7839 18.5001C45.625 18.9617 45.5508 19.4863 45.5508 20.0844V25.2046H43.1567V14.4501H43.1673ZM60.5402 25.215H58.1885V23.7147H58.1462C57.8495 24.2603 57.4152 24.6904 56.8326 25.0157C56.25 25.341 55.6567 25.5088 55.0529 25.5088C53.6229 25.5088 52.5847 25.1626 51.9491 24.4596C51.3135 23.7566 50.9957 22.6969 50.9957 21.2805V14.4501H53.3898V21.0497C53.3898 21.994 53.5699 22.6655 53.9406 23.0537C54.3008 23.4419 54.8199 23.6412 55.4767 23.6412C55.9851 23.6412 56.3983 23.5678 56.7373 23.4104C57.0762 23.253 57.3517 23.0537 57.5529 22.7914C57.7648 22.5395 57.9131 22.2248 58.0084 21.868C58.1038 21.5113 58.1462 21.1231 58.1462 20.7034V14.4606H60.5402V25.215ZM64.6186 21.7631C64.6928 22.4556 64.9576 22.9382 65.4131 23.2215C65.8792 23.4943 66.4301 23.6412 67.0762 23.6412C67.2987 23.6412 67.5529 23.6202 67.839 23.5888C68.125 23.5573 68.4004 23.4838 68.644 23.3894C68.8983 23.295 69.0995 23.1481 69.269 22.9592C69.4279 22.7704 69.5021 22.5291 69.4915 22.2248C69.4809 21.9205 69.3644 21.6687 69.1525 21.4798C68.9406 21.2805 68.6758 21.1336 68.3474 21.0077C68.019 20.8923 67.6483 20.7874 67.2245 20.7034C66.8008 20.6195 66.3771 20.5251 65.9428 20.4306C65.4979 20.3362 65.0635 20.2103 64.6504 20.0739C64.2373 19.9375 63.8665 19.7486 63.5381 19.5073C63.2097 19.2765 62.9449 18.9722 62.7542 18.605C62.5529 18.2378 62.4576 17.7866 62.4576 17.241C62.4576 16.6534 62.6059 16.1708 62.8919 15.7721C63.1779 15.3734 63.5487 15.0586 63.983 14.8173C64.4279 14.576 64.9152 14.4081 65.4555 14.3032C65.9957 14.2088 66.5148 14.1563 67.0021 14.1563C67.5635 14.1563 68.1038 14.2193 68.6123 14.3347C69.1207 14.4501 69.5868 14.6389 70 14.9117C70.4131 15.174 70.7521 15.5203 71.0275 15.94C71.3029 16.3597 71.4724 16.8738 71.5466 17.4718H69.0466C68.9301 16.9053 68.6758 16.517 68.2627 16.3282C67.8495 16.1288 67.3729 16.0344 66.8432 16.0344C66.6737 16.0344 66.4724 16.0449 66.2394 16.0764C66.0063 16.1079 65.7945 16.1603 65.5826 16.2338C65.3813 16.3072 65.2118 16.4226 65.0635 16.5695C64.9258 16.7164 64.8517 16.9053 64.8517 17.1466C64.8517 17.4404 64.9576 17.6712 65.1589 17.8496C65.3601 18.0279 65.625 18.1748 65.9534 18.3007C66.2817 18.4161 66.6525 18.521 67.0762 18.605C67.5 18.6889 67.9343 18.7834 68.3792 18.8778C68.8135 18.9722 69.2373 19.0981 69.661 19.2345C70.0847 19.3709 70.4555 19.5598 70.7839 19.8011C71.1123 20.0424 71.3771 20.3362 71.5784 20.6929C71.7796 21.0497 71.8856 21.5008 71.8856 22.0254C71.8856 22.6655 71.7373 23.2006 71.4407 23.6517C71.144 24.0924 70.7627 24.4596 70.2966 24.7324C69.8305 25.0052 69.3008 25.215 68.7288 25.341C68.1567 25.4669 67.5847 25.5298 67.0233 25.5298C66.3347 25.5298 65.6991 25.4564 65.1165 25.299C64.5339 25.1416 64.0254 24.9108 63.6017 24.6065C63.1779 24.2917 62.839 23.9035 62.5953 23.4419C62.3517 22.9802 62.2245 22.4241 62.2034 21.7841H64.6186V21.7631ZM72.5212 14.4501H74.3326V11.2185H76.7267V14.4501H78.8877V16.2233H76.7267V21.973C76.7267 22.2248 76.7373 22.4346 76.7584 22.6235C76.7796 22.8018 76.8326 22.9592 76.9067 23.0851C76.9809 23.211 77.0974 23.3055 77.2563 23.3684C77.4152 23.4314 77.6165 23.4629 77.8919 23.4629C78.0614 23.4629 78.2309 23.4629 78.4004 23.4524C78.5699 23.4419 78.7394 23.4209 78.9089 23.3789V25.215C78.644 25.2465 78.3792 25.2675 78.1356 25.299C77.8813 25.3305 77.6271 25.341 77.3623 25.341C76.7267 25.341 76.2182 25.278 75.8368 25.1626C75.4555 25.0472 75.1483 24.8688 74.9364 24.638C74.714 24.4072 74.5762 24.1239 74.4915 23.7776C74.4173 23.4314 74.3644 23.0327 74.3538 22.592V16.2442H72.5423V14.4501H72.5212ZM80.5826 14.4501H82.8495V15.9085H82.8919C83.2309 15.279 83.697 14.8383 84.3008 14.5655C84.9046 14.2927 85.5508 14.1563 86.2606 14.1563C87.1186 14.1563 87.8601 14.3032 88.4957 14.6075C89.1313 14.9013 89.661 15.3104 90.0847 15.8351C90.5085 16.3597 90.8156 16.9682 91.0275 17.6607C91.2394 18.3532 91.3453 19.0981 91.3453 19.885C91.3453 20.609 91.25 21.312 91.0593 21.9835C90.8686 22.6655 90.5826 23.2635 90.2012 23.7881C89.8199 24.3127 89.3326 24.7219 88.7394 25.0367C88.1462 25.3514 87.4576 25.5088 86.6525 25.5088C86.3029 25.5088 85.9534 25.4773 85.6038 25.4144C85.2542 25.3514 84.9152 25.2465 84.5974 25.1101C84.2796 24.9737 83.9724 24.7954 83.7076 24.575C83.4322 24.3547 83.2097 24.1029 83.019 23.8196H82.9767V29.1916H80.5826V14.4501ZM88.9512 19.8431C88.9512 19.3604 88.8877 18.8883 88.7606 18.4266C88.6335 17.965 88.4428 17.5663 88.1885 17.2095C87.9343 16.8528 87.6165 16.5695 87.2457 16.3597C86.8644 16.1498 86.43 16.0344 85.9428 16.0344C84.9364 16.0344 84.1737 16.3806 83.6652 17.0731C83.1567 17.7656 82.9025 18.6889 82.9025 19.8431C82.9025 20.3887 82.9661 20.8923 83.1038 21.3539C83.2415 21.8156 83.4322 22.2143 83.7076 22.55C83.9724 22.8858 84.2902 23.1481 84.661 23.3369C85.0318 23.5363 85.4661 23.6307 85.9534 23.6307C86.5042 23.6307 86.9597 23.5153 87.3411 23.295C87.7224 23.0746 88.0296 22.7809 88.2733 22.4346C88.5169 22.0779 88.697 21.6792 88.8029 21.228C88.8983 20.7769 88.9512 20.3152 88.9512 19.8431ZM93.1779 10.3477H95.572V12.593H93.1779V10.3477ZM93.1779 14.4501H95.572V25.215H93.1779V14.4501ZM97.7118 10.3477H100.106V25.215H97.7118V10.3477ZM107.447 25.5088C106.578 25.5088 105.805 25.3619 105.127 25.0786C104.449 24.7954 103.877 24.3967 103.4 23.9035C102.934 23.3999 102.574 22.8018 102.33 22.1094C102.087 21.4169 101.96 20.651 101.96 19.8221C101.96 19.0037 102.087 18.2483 102.33 17.5558C102.574 16.8633 102.934 16.2652 103.4 15.7616C103.867 15.258 104.449 14.8698 105.127 14.5865C105.805 14.3032 106.578 14.1563 107.447 14.1563C108.316 14.1563 109.089 14.3032 109.767 14.5865C110.445 14.8698 111.017 15.2685 111.494 15.7616C111.96 16.2652 112.32 16.8633 112.564 17.5558C112.807 18.2483 112.934 19.0037 112.934 19.8221C112.934 20.651 112.807 21.4169 112.564 22.1094C112.32 22.8018 111.96 23.3999 111.494 23.9035C111.028 24.4072 110.445 24.7954 109.767 25.0786C109.089 25.3619 108.316 25.5088 107.447 25.5088ZM107.447 23.6307C107.977 23.6307 108.443 23.5153 108.835 23.295C109.227 23.0746 109.544 22.7809 109.799 22.4241C110.053 22.0674 110.233 21.6582 110.36 21.207C110.477 20.7559 110.54 20.2942 110.54 19.8221C110.54 19.3604 110.477 18.9093 110.36 18.4476C110.244 17.9859 110.053 17.5872 109.799 17.2305C109.544 16.8738 109.227 16.5905 108.835 16.3702C108.443 16.1498 107.977 16.0344 107.447 16.0344C106.917 16.0344 106.451 16.1498 106.059 16.3702C105.667 16.5905 105.35 16.8843 105.095 17.2305C104.841 17.5872 104.661 17.9859 104.534 18.4476C104.417 18.9093 104.354 19.3604 104.354 19.8221C104.354 20.2942 104.417 20.7559 104.534 21.207C104.65 21.6582 104.841 22.0674 105.095 22.4241C105.35 22.7809 105.667 23.0746 106.059 23.295C106.451 23.5258 106.917 23.6307 107.447 23.6307ZM113.633 14.4501H115.445V11.2185H117.839V14.4501H120V16.2233H117.839V21.973C117.839 22.2248 117.85 22.4346 117.871 22.6235C117.892 22.8018 117.945 22.9592 118.019 23.0851C118.093 23.211 118.21 23.3055 118.369 23.3684C118.528 23.4314 118.729 23.4629 119.004 23.4629C119.174 23.4629 119.343 23.4629 119.513 23.4524C119.682 23.4419 119.852 23.4209 120.021 23.3789V25.215C119.756 25.2465 119.492 25.2675 119.248 25.299C118.994 25.3305 118.739 25.341 118.475 25.341C117.839 25.341 117.33 25.278 116.949 25.1626C116.568 25.0472 116.261 24.8688 116.049 24.638C115.826 24.4072 115.689 24.1239 115.604 23.7776C115.53 23.4314 115.477 23.0327 115.466 22.592V16.2442H113.655V14.4501H113.633Z" fill="white"/>
<path d="M28.7394 10.3453H17.7648L14.375 0L10.9746 10.3453L0 10.3348L8.88771 16.735L5.48729 27.0698L14.375 20.68L23.2521 27.0698L19.8623 16.735L28.7394 10.3453Z" fill="#00B67A"/>
<path d="M20.625 19.0741L19.8623 16.7344L14.375 20.6794L20.625 19.0741Z" fill="#005128"/>
</g>
<defs>
<clipPath id="clip0">
<rect width="120" height="29.1892" fill="white"/>
</clipPath>
</defs>
</svg>
