<svg xmlns="http://www.w3.org/2000/svg" width="157" height="61" viewBox="0 0 157 61" fill="none">
	<rect width="156.923" height="60" fill="white"/>

	<path d="M3.78619 12.7373V11.3535C3.78619 10.8346 3.78619 10.4886 3.78619 9.96967C3.78619 8.75883 3.95535 7.54799 4.29367 6.16418C4.63199 4.78036 5.13946 3.7425 6.15442 2.70463C6.83105 2.01272 7.50769 1.49379 8.35348 1.14784C9.19928 0.974861 10.3834 0.801883 12.075 0.628906V0.974862C11.3983 1.14784 10.5525 1.49379 10.0451 1.83975C9.19928 2.01272 8.6918 2.53165 8.01517 3.22356C7.33853 3.91547 7.00021 4.95334 6.83105 6.16418C6.66189 7.37502 6.49273 8.75883 6.49273 10.6616V16.5428V19.6564C6.49273 20.6943 6.49273 21.7321 6.32358 22.77C6.32358 23.6349 6.15442 24.4998 5.98526 25.3646C5.8161 26.2295 5.47778 27.0944 4.97031 27.9593C4.63199 28.4782 4.12451 28.8242 3.78619 29.1701C3.44788 29.5161 2.77124 29.6891 2.26376 29.862C3.10956 30.208 3.61703 30.5539 3.95535 30.7269C4.29367 30.8999 4.80115 31.4188 5.30862 32.1107C5.98526 33.1486 6.32358 34.1865 6.49273 35.2243C6.49273 36.4352 6.66189 37.473 6.66189 38.6839V40.5866V42.4894V49.0625V51.6572C6.66189 52.3491 6.83105 53.041 6.83105 53.7329C7.00021 54.2518 7.16937 54.9437 7.33853 55.2897C7.50769 55.6356 7.84601 56.1546 8.18432 56.6735C8.6918 57.3654 9.36844 57.8843 9.87591 58.0573C10.5525 58.4033 11.2292 58.5762 11.9058 58.7492V59.0952C11.06 59.0952 10.2142 58.9222 9.36844 58.7492C8.52264 58.5762 7.67685 58.2303 6.83105 57.5384C6.66189 57.3654 6.49274 57.1924 6.15442 57.0194C5.98526 56.8465 5.64694 56.5005 5.30862 56.1546C4.9703 55.6356 4.63199 54.9437 4.46283 54.2518C4.29367 53.5599 4.12451 52.868 3.95535 52.1761C3.95535 51.4842 3.78619 50.7923 3.78619 49.9274C3.78619 49.0625 3.78619 48.5436 3.78619 48.0246V40.2407C3.78619 37.992 3.61703 36.0892 3.61703 34.7054C3.61703 33.3216 2.9404 32.1107 2.0946 31.2459C1.75629 30.8999 1.41797 30.5539 1.07965 30.381C0.741333 30.208 0.572174 30.208 0.0646973 30.035V29.6891C0.741333 29.5161 1.24881 29.3431 1.75629 28.9972C2.26376 28.6512 2.60208 28.3052 2.9404 27.4404C3.44788 26.7485 3.61703 25.8836 3.61703 24.6727C3.61703 23.4619 3.78619 22.0781 3.78619 20.3483V12.7373Z" fill="black"/>
	<path d="M153.153 49.0628C153.153 51.3115 152.815 53.0412 152.477 54.2521C152.138 55.4629 151.462 56.5008 150.616 57.3657C149.77 58.2305 148.924 58.7495 147.91 58.9224C147.064 59.0954 146.049 59.2684 145.034 59.2684V58.9224C145.203 58.9224 145.372 58.7495 145.71 58.7495C146.049 58.5765 146.387 58.5765 146.725 58.4035C147.064 58.2305 147.571 58.0576 147.91 57.7116C148.248 57.3657 148.755 57.0197 149.094 56.5008C149.601 55.6359 149.939 54.771 150.109 53.5602C150.278 52.3493 150.278 50.9655 150.447 49.0628V43.1815V39.895C150.447 38.8571 150.447 37.6463 150.616 36.6084C150.616 35.7435 150.785 35.0516 150.954 34.1867C151.124 33.3218 151.293 32.6299 151.631 31.938C152.138 31.0731 152.815 30.5542 153.323 30.2082C153.999 29.8623 154.338 29.6893 154.676 29.6893C154.168 29.5163 153.661 29.3434 153.323 28.9974C152.984 28.6514 152.477 28.3055 151.969 27.7866C151.124 26.7487 150.785 25.7108 150.616 24.327C150.447 22.9432 150.447 21.7324 150.447 20.5215C150.447 19.8296 150.447 19.3107 150.447 18.7918V17.062V10.4889C150.447 8.58611 150.278 7.02931 150.109 5.81847C149.939 4.60763 149.432 3.74275 148.755 2.87786C148.248 2.18595 147.571 1.66702 147.064 1.49404C146.556 1.32107 145.71 0.975111 145.034 0.629157V0.283203C145.203 0.283203 145.541 0.283204 145.71 0.456181C145.88 0.629158 146.218 0.45618 146.556 0.629157C146.725 0.629157 147.064 0.802135 147.402 0.802135C147.74 0.975112 148.248 0.975112 148.755 1.14809C149.263 1.32107 149.77 1.66702 150.109 2.01297C150.447 2.35893 151.124 2.70488 151.462 3.39679C151.8 3.91572 152.138 4.43465 152.308 4.95358C152.477 5.47252 152.646 6.16443 152.815 6.85633C152.984 7.54824 152.984 8.24015 153.153 9.10503C153.323 9.96992 153.153 10.8348 153.153 12.0456V19.6566V22.4243C153.153 23.2892 153.153 23.9811 153.323 24.673C153.492 25.3649 153.492 25.8838 153.661 26.4027C153.83 26.9217 154.168 27.4406 154.507 27.9595C154.845 28.3055 155.014 28.6514 155.353 28.8244C155.691 28.9974 156.198 29.3434 156.875 29.6893V30.2082C156.367 30.3812 155.86 30.5542 155.353 30.9002C155.014 31.0731 154.507 31.4191 154.168 32.111C153.83 32.4569 153.661 32.9759 153.661 33.3218C153.492 33.6678 153.492 34.0137 153.492 34.1867C153.323 34.5327 153.323 35.0516 153.323 35.5705C153.323 36.0895 153.153 36.6084 153.153 37.1273V38.6841V40.0679V49.0628Z" fill="black"/>
	<path d="M31.8665 43.009L37.2796 29.3438H39.817L32.0357 48.7172L24.2544 29.3438H26.7918L31.8665 43.009Z" fill="black"/>
	<path d="M48.4442 29.3438H58.0862V31.4195H50.6432V36.6088H57.7479V38.8575H50.4741V45.7766H57.9171V47.8523H48.275L48.4442 29.3438Z" fill="black"/>
	<path d="M84.3058 38.5108V39.2027C84.3058 44.2191 80.7535 48.1975 75.8478 48.1975C70.9422 48.1975 66.7133 43.7001 66.7133 38.6838C66.7133 33.3215 70.9422 28.9971 76.017 28.9971C78.8927 28.9971 81.5992 30.3809 83.2908 32.6296L81.7684 34.1864C80.4151 32.4566 78.3852 31.2458 76.1862 31.2458C72.1263 31.2458 69.0815 34.5323 69.0815 38.6838C69.0815 42.4893 72.1263 46.1218 76.017 46.1218C78.8927 46.1218 81.7684 43.7001 81.9376 40.5865H77.2011V38.5108H84.3058Z" fill="black"/>
	<path d="M96.3161 43.1814L94.2862 47.8518H91.918L100.545 28.6514L109.172 47.8518H106.804L104.774 43.1814H96.3161ZM100.376 33.6677L97.1619 41.1057H103.59L100.376 33.6677Z" fill="black"/>
	<path d="M117.461 28.4785L130.994 43.0086V29.3434H133.193V48.5439L119.66 34.0138V47.679H117.461V28.4785Z" fill="black"/>
	<path d="M27.8067 12.9109H25.946L24.0852 20.1759H25.6076L26.2843 17.7543C27.2992 17.7543 29.6674 17.9272 30.0058 15.1596C30.3441 12.7379 27.8067 12.9109 27.8067 12.9109ZM27.9759 16.0245C27.4684 16.5434 26.6226 16.3704 26.6226 16.3704L26.7917 15.5056L27.1301 14.4677H28.145C28.4833 14.6407 28.3142 15.6785 27.9759 16.0245ZM41.6777 12.9109L38.2945 20.1759H39.9861L40.4936 18.9651H42.016V20.1759H43.5385V12.9109H41.6777ZM42.1852 17.5813H41.1703L42.016 15.5056L42.1852 17.5813ZM34.2347 13.0839C32.8815 12.565 31.6974 13.7758 31.0207 14.6407C30.1749 15.6785 29.8366 16.8894 29.6674 18.2732C29.6674 19.1381 29.8366 20.003 30.6824 20.3489C32.0357 20.6949 32.8815 19.484 33.5581 18.6191C33.5581 18.4462 33.7273 18.4462 33.7273 18.2732H33.5581C33.3889 18.4462 33.2198 18.6192 33.0506 18.9651C32.5431 19.484 32.0357 19.83 31.359 19.657C30.6824 19.3111 30.6824 18.4462 30.6824 17.7543C30.6824 17.4083 30.6824 17.2353 30.8516 16.8894L31.359 16.7164C32.374 16.3704 33.7273 16.3704 34.4039 15.1596C34.5731 14.8137 34.9114 14.1217 34.5731 13.6028C34.7422 13.2569 34.4039 13.0839 34.2347 13.0839ZM32.374 16.0245C30.8516 16.5434 31.359 16.3704 31.359 16.3704C31.359 16.3704 32.5431 12.9109 33.5581 13.4298C34.7422 13.6028 33.8964 15.5056 32.374 16.0245ZM39.9861 14.6407L40.3245 13.0839H35.588L35.2497 14.6407H36.603L35.0805 20.3489H36.7721L38.2945 14.6407H39.9861Z" fill="black"/>
	<path d="M48.7825 16.7158H50.9815V17.7537H48.7825V16.7158Z" fill="black"/>
	<path d="M57.4096 18.7914L56.9021 20.3482H55.5488L58.2554 12.9102H59.2703L61.9769 20.3482H60.4544L59.947 18.7914H57.4096ZM58.5937 14.9859L57.7479 17.5805H59.4395L58.5937 14.9859Z" fill="black"/>
	<path d="M68.4049 20.3489H67.0516V13.2568H68.9124C70.4348 13.2568 71.2806 13.9487 71.2806 15.5055C71.2806 17.0623 70.4348 17.7542 69.0815 17.7542H68.4049V20.3489ZM68.4049 16.3704H68.7432C69.589 16.3704 69.9273 16.1974 69.9273 15.3326C69.9273 14.4677 69.4199 14.2947 68.5741 14.2947H68.4049V16.3704Z" fill="black"/>
	<path d="M77.8778 20.3489H76.5245V13.2568H78.3853C79.9077 13.2568 80.7535 13.9487 80.7535 15.5055C80.7535 17.0623 79.9077 17.7542 78.5544 17.7542H77.8778V20.3489ZM77.8778 16.3704H78.2161C79.0619 16.3704 79.4002 16.1974 79.4002 15.3326C79.4002 14.4677 78.8928 14.2947 78.047 14.2947L77.8778 16.3704Z" fill="black"/>
	<path d="M90.9031 20.349H89.2115L87.5199 17.4084V20.349H86.1666V13.084H88.0274C89.3806 13.084 90.3956 13.7759 90.3956 15.1597C90.3956 16.0246 89.8881 17.0625 89.0423 17.0625L90.9031 20.349ZM87.5199 16.3705H87.6891C88.5349 16.3705 89.0423 16.1976 89.0423 15.3327C89.0423 14.4678 88.5349 14.2948 87.6891 14.2948H87.5199V16.3705Z" fill="black"/>
	<path d="M99.1918 20.5211C96.9927 20.5211 95.8086 18.7914 95.8086 16.7157C95.8086 14.6399 97.1619 12.9102 99.1918 12.9102C101.222 12.9102 102.575 14.6399 102.575 16.7157C102.575 18.7914 101.222 20.5211 99.1918 20.5211ZM99.1918 14.294C97.8385 14.294 97.1619 15.5048 97.1619 16.7157C97.1619 17.7535 97.6693 19.1373 99.1918 19.1373C100.714 19.1373 101.222 17.7535 101.222 16.7157C101.222 15.5048 100.376 14.294 99.1918 14.294Z" fill="black"/>
	<path d="M110.525 17.9273L112.048 13.084H113.57L110.864 20.522H110.018L107.311 13.084H108.834L110.525 17.9273Z" fill="black"/>
	<path d="M119.998 14.2948V15.8516H122.197V17.0625H119.998V18.9652H122.197V20.176H118.476V13.084H122.197V14.2948H119.998Z" fill="black"/>
	<path d="M127.78 13.084H129.81C131.839 13.084 133.193 14.6408 133.193 16.7165C133.193 18.7922 131.839 20.349 129.81 20.349H127.78V13.084ZM129.133 19.1382H129.302C130.994 19.1382 131.67 18.2733 131.67 16.7165C131.67 15.1597 130.825 14.2948 129.302 14.2948H129.133V19.1382Z" fill="black"/>
</svg>