<svg xmlns="http://www.w3.org/2000/svg" width="48" height="48" viewBox="0 0 48 48">
  <g id="logo_arubadrive" transform="translate(-2346 -1368)">
    <rect id="griglia" width="48" height="48" transform="translate(2346 1368)" fill="none"/>
    <path id="logo_aruba_drive_bianco" data-name="logo aruba drive bianco" d="M184.575,188.6h-16.73a1.644,1.644,0,0,0-1.645,1.645V214.2a1.644,1.644,0,0,0,1.645,1.645h.37a1.186,1.186,0,0,0,.188-.014.217.217,0,0,1,.053,0h21.55a.181.181,0,0,1,.053,0,1.23,1.23,0,0,0,.188.014h.741a1.306,1.306,0,0,0,1.289-1.294v-.741a1.124,1.124,0,0,0-.014-.183.2.2,0,0,1,0-.053v-8.711c0-.029,0-.063,0-.091v-.024a1.272,1.272,0,0,0-.423-.837l-7.86-7.87h0l-.265-.265a1.646,1.646,0,0,0-2.323,0l-.265.265h0l-8.086,8.091a1.25,1.25,0,0,0-.37.9v2.569a1.644,1.644,0,0,0,1.645,1.645h0a1.644,1.644,0,0,0,1.645-1.645v-1.587a.376.376,0,0,1,.111-.265l6.229-6.229a.372.372,0,0,1,.524,0l6.066,6.066a.379.379,0,0,1,.111.265v5.1a1.581,1.581,0,0,1-1.583,1.583H171.1a1.612,1.612,0,0,1-1.611-1.611V193.478a1.591,1.591,0,0,1,1.592-1.592h13.5c8.413,0,14.349,5.835,14.349,13.435s-5.056,13.748-13.469,13.748H174.305a1.644,1.644,0,0,0-1.645,1.645h0a1.644,1.644,0,0,0,1.645,1.645h11.15c10.26,0,16.744-7.74,16.744-17.009S194.835,188.6,184.575,188.6Z" transform="translate(2185.8 1186.4)" fill="#222"/>
  </g>
</svg>
