<svg xmlns="http://www.w3.org/2000/svg" width="48" height="48" viewBox="0 0 48 48">
  <g id="logo_supersite" transform="translate(-2118 -1432)">
    <rect id="Rettangolo_2491" data-name="Rettangolo 2491" width="48" height="48" transform="translate(2118 1432)" fill="none"/>
    <g id="Raggruppa_4026" data-name="Raggruppa 4026" transform="translate(2089 1297)">
      <g id="logo_supersite-nero_1_" data-name="logo supersite-nero(1)" transform="translate(36 141)">
        <path id="Tracciato_932" data-name="Tracciato 932" d="M694.322,173.146a16.645,16.645,0,0,1-1.091-1.612c-2.4-3.862-1.974-8.123,1.024-10.949a7.016,7.016,0,0,1,1.392-1.048c2.4-1.343,4.763-2.777,7.252-3.948,5.113-2.415,10.176-1.355,14.02,2.973,1.716,1.937,3.721,5.07,5.284,7.142.846,1.2.619,1.937.043,2.268-1.183.717-2.44,1.41-3.7,2.139a16.2,16.2,0,0,1,1.005,2.06,10.747,10.747,0,0,1-3.96,12.69,81.734,81.734,0,0,1-7.706,4.322c-3.936,1.943-7.405,1.447-10.4-1.753-2.189-2.336-5.793-7.693-7.528-10.054a1.273,1.273,0,0,1,.123-1.772C691.122,174.9,692.98,173.918,694.322,173.146Zm8.233-5.4c.319.423.564.76.822,1.091,1.667,2.146,3.451,4.211,4.965,6.467a19.244,19.244,0,0,1,2.881,5.523,13.107,13.107,0,0,1,.386,2.477,7.706,7.706,0,0,0,3.782-11.384c-.913.527-2.188,1.275-2.759,1.594-.92.589-1.447.368-2.084-.509-1.287-1.784-3.819-5.07-5.217-6.86C704.376,166.691,703.511,167.193,702.555,167.745Zm16.239-1.655c-1.2-1.434-3.518-4.512-4.745-5.738-3.212-3.218-7.473-3.6-10.893-1.054,3.513,2.176,6.535,7.546,9.263,10.47,1.845-.987,2.667-1.6,4.469-2.581C717.127,167.059,718.4,166.347,718.794,166.09Zm-15.607-2.55c-1.275-1.263-2.562-2.078-4.316-1.759a4.668,4.668,0,0,0-3.206,7.185c2.317,3.69,5.1,7.087,7.706,10.648,1.067-.625,1.943-1.134,2.875-1.674-2.74-3.531-5.346-6.909-7.988-10.256-.546-.693-.515-1.067.3-1.5C700.091,165.379,701.568,164.472,703.187,163.54Zm-9.661,13.836c.6.834,3.384,4.371,3.9,5.033a19.634,19.634,0,0,0,1.876,2.213,11.911,11.911,0,0,0,2.544,1.974,4.586,4.586,0,0,0,5.315-1.116,3.765,3.765,0,0,0,.576-4.573c-1.667.956-3.335,1.907-5.1,2.918-1.386-1.765-5.033-6.3-6.394-8.031C695.315,176.352,694.469,176.824,693.525,177.376Z" transform="translate(-689.661 -154.321)"/>
      </g>
    </g>
  </g>
</svg>
