<svg xmlns="http://www.w3.org/2000/svg" viewBox="0 0 376 479"><path d="M1404.01 1524.26a7.725 7.725 0 1 0 7.73 7.72 7.725 7.725 0 0 0-7.73-7.72Zm51.51 0a7.725 7.725 0 1 0 7.73 7.72 7.718 7.718 0 0 0-7.73-7.72Zm-51.51-51.5a7.72 7.72 0 1 0 7.73 7.72 7.718 7.718 0 0 0-7.73-7.72Zm51.51 0a7.72 7.72 0 1 0 7.73 7.72 7.712 7.712 0 0 0-7.73-7.72Zm25.75 25.75a7.72 7.72 0 1 0 7.73 7.72 7.712 7.712 0 0 0-7.73-7.72Zm-51.5 0a7.72 7.72 0 1 0 7.72 7.72 7.72 7.72 0 0 0-7.72-7.72Zm51.5-51.51a7.725 7.725 0 1 0 7.73 7.72 7.718 7.718 0 0 0-7.73-7.72Zm-51.5 0a7.725 7.725 0 1 0 7.72 7.72 7.727 7.727 0 0 0-7.72-7.72ZM1301 1524.26a7.725 7.725 0 1 0 7.73 7.72 7.718 7.718 0 0 0-7.73-7.72Zm51.51 0a7.725 7.725 0 1 0 7.72 7.72 7.727 7.727 0 0 0-7.72-7.72Zm-51.51-51.5a7.72 7.72 0 1 0 7.73 7.72 7.712 7.712 0 0 0-7.73-7.72Zm51.51 0a7.72 7.72 0 1 0 7.72 7.72 7.72 7.72 0 0 0-7.72-7.72Zm25.75 25.75a7.72 7.72 0 1 0 7.73 7.72 7.712 7.712 0 0 0-7.73-7.72Zm-51.51 0a7.72 7.72 0 1 0 7.73 7.72 7.712 7.712 0 0 0-7.73-7.72Zm51.51-51.51a7.725 7.725 0 1 0 7.73 7.72 7.718 7.718 0 0 0-7.73-7.72Zm-51.51 0a7.725 7.725 0 1 0 7.73 7.72 7.718 7.718 0 0 0-7.73-7.72Zm-128.76 77.26a7.725 7.725 0 1 0 7.72 7.72 7.727 7.727 0 0 0-7.72-7.72Zm51.5 0a7.725 7.725 0 1 0 7.73 7.72 7.725 7.725 0 0 0-7.73-7.72Zm-51.5-51.5a7.72 7.72 0 1 0 7.72 7.72 7.72 7.72 0 0 0-7.72-7.72Zm51.5 0a7.72 7.72 0 1 0 7.73 7.72 7.718 7.718 0 0 0-7.73-7.72Zm25.76 25.75a7.72 7.72 0 1 0 7.72 7.72 7.72 7.72 0 0 0-7.72-7.72Zm-51.51 0a7.72 7.72 0 1 0 7.72 7.72 7.72 7.72 0 0 0-7.72-7.72Zm51.51-51.51a7.725 7.725 0 1 0 7.72 7.72 7.727 7.727 0 0 0-7.72-7.72Zm-51.51 0a7.725 7.725 0 1 0 7.72 7.72 7.727 7.727 0 0 0-7.72-7.72Zm-77.26 77.26a7.725 7.725 0 1 0 7.72 7.72 7.718 7.718 0 0 0-7.72-7.72Zm0-51.5a7.72 7.72 0 1 0 7.72 7.72 7.712 7.712 0 0 0-7.72-7.72Zm25.75 25.75a7.72 7.72 0 1 0 7.73 7.72 7.712 7.712 0 0 0-7.73-7.72Zm-51.5 0a7.72 7.72 0 1 0 7.72 7.72 7.72 7.72 0 0 0-7.72-7.72Zm51.5-51.51a7.725 7.725 0 1 0 7.73 7.72 7.718 7.718 0 0 0-7.73-7.72Zm-51.5 0a7.725 7.725 0 1 0 7.72 7.72 7.727 7.727 0 0 0-7.72-7.72Zm283.28 128.77a7.72 7.72 0 1 0 7.73 7.72 7.718 7.718 0 0 0-7.73-7.72Zm51.51 0a7.72 7.72 0 1 0 7.73 7.72 7.712 7.712 0 0 0-7.73-7.72Zm25.75-25.76a7.725 7.725 0 1 0 7.73 7.73 7.72 7.72 0 0 0-7.73-7.73Zm-51.5 0a7.725 7.725 0 1 0 7.72 7.73 7.729 7.729 0 0 0-7.72-7.73ZM1301 1575.77a7.72 7.72 0 1 0 7.73 7.72 7.712 7.712 0 0 0-7.73-7.72Zm51.51 0a7.72 7.72 0 1 0 7.72 7.72 7.72 7.72 0 0 0-7.72-7.72Zm25.75-25.76a7.725 7.725 0 1 0 7.73 7.73 7.72 7.72 0 0 0-7.73-7.73Zm-51.51 0a7.725 7.725 0 1 0 7.73 7.73 7.72 7.72 0 0 0-7.73-7.73Zm-128.76 25.76a7.72 7.72 0 1 0 7.72 7.72 7.72 7.72 0 0 0-7.72-7.72Zm51.5 0a7.72 7.72 0 1 0 7.73 7.72 7.718 7.718 0 0 0-7.73-7.72Zm25.76-25.76a7.725 7.725 0 1 0 7.72 7.73 7.729 7.729 0 0 0-7.72-7.73Zm-51.51 0a7.725 7.725 0 1 0 7.72 7.73 7.729 7.729 0 0 0-7.72-7.73Zm-77.26 25.76a7.72 7.72 0 1 0 7.72 7.72 7.712 7.712 0 0 0-7.72-7.72Zm25.75-25.76a7.725 7.725 0 1 0 7.73 7.73 7.72 7.72 0 0 0-7.73-7.73Zm-51.5 0a7.725 7.725 0 1 0 7.72 7.73 7.729 7.729 0 0 0-7.72-7.73Zm283.28 77.26a7.725 7.725 0 1 0 7.73 7.72 7.725 7.725 0 0 0-7.73-7.72Zm51.51 0a7.725 7.725 0 1 0 7.73 7.72 7.718 7.718 0 0 0-7.73-7.72Zm25.75-25.75a7.725 7.725 0 1 0 7.73 7.72 7.712 7.712 0 0 0-7.73-7.72Zm-51.5 0a7.725 7.725 0 1 0 7.72 7.72 7.72 7.72 0 0 0-7.72-7.72ZM1301 1627.27a7.725 7.725 0 1 0 7.73 7.72 7.718 7.718 0 0 0-7.73-7.72Zm51.51 0a7.725 7.725 0 1 0 7.72 7.72 7.727 7.727 0 0 0-7.72-7.72Zm25.75-25.75a7.725 7.725 0 1 0 7.73 7.72 7.712 7.712 0 0 0-7.73-7.72Zm-51.51 0a7.725 7.725 0 1 0 7.73 7.72 7.712 7.712 0 0 0-7.73-7.72Zm-128.76 25.75a7.725 7.725 0 1 0 7.72 7.72 7.727 7.727 0 0 0-7.72-7.72Zm51.5 0a7.725 7.725 0 1 0 7.73 7.72 7.725 7.725 0 0 0-7.73-7.72Zm25.76-25.75a7.725 7.725 0 1 0 7.72 7.72 7.72 7.72 0 0 0-7.72-7.72Zm-51.51 0a7.725 7.725 0 1 0 7.72 7.72 7.72 7.72 0 0 0-7.72-7.72Zm-77.26 25.75a7.725 7.725 0 1 0 7.72 7.72 7.718 7.718 0 0 0-7.72-7.72Zm25.75-25.75a7.725 7.725 0 1 0 7.73 7.72 7.712 7.712 0 0 0-7.73-7.72Zm-51.5 0a7.725 7.725 0 1 0 7.72 7.72 7.72 7.72 0 0 0-7.72-7.72Zm283.28 128.76a7.725 7.725 0 1 0 7.73 7.72 7.725 7.725 0 0 0-7.73-7.72Zm51.51 0a7.725 7.725 0 1 0 7.73 7.72 7.718 7.718 0 0 0-7.73-7.72Zm-51.51-51.5a7.725 7.725 0 1 0 7.73 7.72 7.725 7.725 0 0 0-7.73-7.72Zm51.51 0a7.725 7.725 0 1 0 7.73 7.72 7.718 7.718 0 0 0-7.73-7.72Zm25.75 25.75a7.725 7.725 0 1 0 7.73 7.72 7.718 7.718 0 0 0-7.73-7.72Zm-51.5 0a7.725 7.725 0 1 0 7.72 7.72 7.727 7.727 0 0 0-7.72-7.72Zm51.5-51.51a7.725 7.725 0 1 0 7.73 7.73 7.72 7.72 0 0 0-7.73-7.73Zm-51.5 0a7.725 7.725 0 1 0 7.72 7.73 7.729 7.729 0 0 0-7.72-7.73ZM1301 1730.28a7.725 7.725 0 1 0 7.73 7.72 7.718 7.718 0 0 0-7.73-7.72Zm51.51 0a7.725 7.725 0 1 0 7.72 7.72 7.727 7.727 0 0 0-7.72-7.72Zm-51.51-51.5a7.725 7.725 0 1 0 7.73 7.72 7.718 7.718 0 0 0-7.73-7.72Zm51.51 0a7.725 7.725 0 1 0 7.72 7.72 7.727 7.727 0 0 0-7.72-7.72Zm25.75 25.75a7.725 7.725 0 1 0 7.73 7.72 7.718 7.718 0 0 0-7.73-7.72Zm-51.51 0a7.725 7.725 0 1 0 7.73 7.72 7.718 7.718 0 0 0-7.73-7.72Zm51.51-51.51a7.725 7.725 0 1 0 7.73 7.73 7.72 7.72 0 0 0-7.73-7.73Zm-51.51 0a7.725 7.725 0 1 0 7.73 7.73 7.72 7.72 0 0 0-7.73-7.73Zm-128.76 77.26a7.725 7.725 0 1 0 7.72 7.72 7.727 7.727 0 0 0-7.72-7.72Zm51.5 0a7.725 7.725 0 1 0 7.73 7.72 7.725 7.725 0 0 0-7.73-7.72Zm-51.5-51.5a7.725 7.725 0 1 0 7.72 7.72 7.727 7.727 0 0 0-7.72-7.72Zm51.5 0a7.725 7.725 0 1 0 7.73 7.72 7.725 7.725 0 0 0-7.73-7.72Zm25.76 25.75a7.725 7.725 0 1 0 7.72 7.72 7.727 7.727 0 0 0-7.72-7.72Zm-51.51 0a7.725 7.725 0 1 0 7.72 7.72 7.727 7.727 0 0 0-7.72-7.72Zm51.51-51.51a7.725 7.725 0 1 0 7.72 7.73 7.729 7.729 0 0 0-7.72-7.73Zm-51.51 0a7.725 7.725 0 1 0 7.72 7.73 7.729 7.729 0 0 0-7.72-7.73Zm-77.26 77.26a7.725 7.725 0 1 0 7.72 7.72 7.718 7.718 0 0 0-7.72-7.72Zm0-51.5a7.725 7.725 0 1 0 7.72 7.72 7.718 7.718 0 0 0-7.72-7.72Zm25.75 25.75a7.725 7.725 0 1 0 7.73 7.72 7.718 7.718 0 0 0-7.73-7.72Zm-51.5 0a7.725 7.725 0 1 0 7.72 7.72 7.727 7.727 0 0 0-7.72-7.72Zm51.5-51.51a7.725 7.725 0 1 0 7.73 7.73 7.72 7.72 0 0 0-7.73-7.73Zm-51.5 0a7.725 7.725 0 1 0 7.72 7.73 7.729 7.729 0 0 0-7.72-7.73Zm283.28 128.77a7.725 7.725 0 1 0 7.73 7.72 7.725 7.725 0 0 0-7.73-7.72Zm51.51 0a7.725 7.725 0 1 0 7.73 7.72 7.718 7.718 0 0 0-7.73-7.72Zm25.75 25.75a7.725 7.725 0 1 0 7.73 7.72 7.718 7.718 0 0 0-7.73-7.72Zm-51.5 0a7.725 7.725 0 1 0 7.72 7.72 7.727 7.727 0 0 0-7.72-7.72Zm51.5-51.51a7.725 7.725 0 1 0 7.73 7.73 7.72 7.72 0 0 0-7.73-7.73Zm-51.5 0a7.725 7.725 0 1 0 7.72 7.73 7.729 7.729 0 0 0-7.72-7.73ZM1301 1781.79a7.725 7.725 0 1 0 7.73 7.72 7.718 7.718 0 0 0-7.73-7.72Zm51.51 0a7.725 7.725 0 1 0 7.72 7.72 7.727 7.727 0 0 0-7.72-7.72Zm25.75 25.75a7.725 7.725 0 1 0 7.73 7.72 7.718 7.718 0 0 0-7.73-7.72Zm-51.51 0a7.725 7.725 0 1 0 7.73 7.72 7.718 7.718 0 0 0-7.73-7.72Zm51.51-51.51a7.725 7.725 0 1 0 7.73 7.73 7.72 7.72 0 0 0-7.73-7.73Zm-51.51 0a7.725 7.725 0 1 0 7.73 7.73 7.72 7.72 0 0 0-7.73-7.73Zm-128.76 25.76a7.725 7.725 0 1 0 7.72 7.72 7.727 7.727 0 0 0-7.72-7.72Zm51.5 0a7.725 7.725 0 1 0 7.73 7.72 7.725 7.725 0 0 0-7.73-7.72Zm25.76 25.75a7.725 7.725 0 1 0 7.72 7.72 7.727 7.727 0 0 0-7.72-7.72Zm-51.51 0a7.725 7.725 0 1 0 7.72 7.72 7.727 7.727 0 0 0-7.72-7.72Zm51.51-51.51a7.725 7.725 0 1 0 7.72 7.73 7.729 7.729 0 0 0-7.72-7.73Zm-51.51 0a7.725 7.725 0 1 0 7.72 7.73 7.729 7.729 0 0 0-7.72-7.73Zm-77.26 25.76a7.725 7.725 0 1 0 7.72 7.72 7.718 7.718 0 0 0-7.72-7.72Zm25.75 25.75a7.725 7.725 0 1 0 7.73 7.72 7.718 7.718 0 0 0-7.73-7.72Zm-51.5 0a7.725 7.725 0 1 0 7.72 7.72 7.727 7.727 0 0 0-7.72-7.72Zm51.5-51.51a7.725 7.725 0 1 0 7.73 7.73 7.72 7.72 0 0 0-7.73-7.73Zm-51.5 0a7.725 7.725 0 1 0 7.72 7.73 7.729 7.729 0 0 0-7.72-7.73Zm283.28 77.26a7.725 7.725 0 1 0 7.73 7.73 7.727 7.727 0 0 0-7.73-7.73Zm-103.01 0a7.725 7.725 0 1 0 7.73 7.73 7.72 7.72 0 0 0-7.73-7.73Zm51.51 0a7.725 7.725 0 1 0 7.72 7.73 7.729 7.729 0 0 0-7.72-7.73Zm-154.52 0a7.725 7.725 0 1 0 7.72 7.73 7.729 7.729 0 0 0-7.72-7.73Zm51.5 0a7.725 7.725 0 1 0 7.73 7.73 7.727 7.727 0 0 0-7.73-7.73Zm-103.01 0a7.725 7.725 0 1 0 7.72 7.73 7.72 7.72 0 0 0-7.72-7.73Zm309.04 0a7.725 7.725 0 1 0 7.73 7.73 7.72 7.72 0 0 0-7.73-7.73Zm-51.51 51.51a7.725 7.725 0 1 0 7.73 7.72 7.725 7.725 0 0 0-7.73-7.72Zm51.51 0a7.725 7.725 0 1 0 7.73 7.72 7.718 7.718 0 0 0-7.73-7.72Zm25.75 25.75a7.725 7.725 0 1 0 7.73 7.72 7.718 7.718 0 0 0-7.73-7.72Zm-51.5 0a7.725 7.725 0 1 0 7.72 7.72 7.727 7.727 0 0 0-7.72-7.72Zm51.5-51.51a7.725 7.725 0 1 0 7.73 7.73 7.72 7.72 0 0 0-7.73-7.73Zm-51.5 0a7.725 7.725 0 1 0 7.72 7.73 7.729 7.729 0 0 0-7.72-7.73ZM1301 1884.8a7.725 7.725 0 1 0 7.73 7.72 7.718 7.718 0 0 0-7.73-7.72Zm51.51 0a7.725 7.725 0 1 0 7.72 7.72 7.727 7.727 0 0 0-7.72-7.72Zm25.75 25.75a7.725 7.725 0 1 0 7.73 7.72 7.718 7.718 0 0 0-7.73-7.72Zm-51.51 0a7.725 7.725 0 1 0 7.73 7.72 7.718 7.718 0 0 0-7.73-7.72Zm51.51-51.51a7.725 7.725 0 1 0 7.73 7.73 7.72 7.72 0 0 0-7.73-7.73Zm-51.51 0a7.725 7.725 0 1 0 7.73 7.73 7.72 7.72 0 0 0-7.73-7.73Zm-128.76 25.76a7.725 7.725 0 1 0 7.72 7.72 7.727 7.727 0 0 0-7.72-7.72Zm51.5 0a7.725 7.725 0 1 0 7.73 7.72 7.725 7.725 0 0 0-7.73-7.72Zm25.76 25.75a7.725 7.725 0 1 0 7.72 7.72 7.727 7.727 0 0 0-7.72-7.72Zm-51.51 0a7.725 7.725 0 1 0 7.72 7.72 7.727 7.727 0 0 0-7.72-7.72Zm51.51-51.51a7.725 7.725 0 1 0 7.72 7.73 7.729 7.729 0 0 0-7.72-7.73Zm-51.51 0a7.725 7.725 0 1 0 7.72 7.73 7.729 7.729 0 0 0-7.72-7.73Zm-77.26 25.76a7.725 7.725 0 1 0 7.72 7.72 7.718 7.718 0 0 0-7.72-7.72Zm25.75 25.75a7.725 7.725 0 1 0 7.73 7.72 7.718 7.718 0 0 0-7.73-7.72Zm-51.5 0a7.725 7.725 0 1 0 7.72 7.72 7.727 7.727 0 0 0-7.72-7.72Zm51.5-51.51a7.725 7.725 0 1 0 7.73 7.73 7.72 7.72 0 0 0-7.73-7.73Zm-51.5 0a7.725 7.725 0 1 0 7.72 7.73 7.729 7.729 0 0 0-7.72-7.73Z" transform="translate(-1113 -1447)" fill="#9fb7d8" fill-rule="evenodd"/></svg>