<?xml version="1.0" standalone="no"?>
<!DOCTYPE svg PUBLIC "-//W3C//DTD SVG 20010904//EN"
 "http://www.w3.org/TR/2001/REC-SVG-20010904/DTD/svg10.dtd">
<svg version="1.0" xmlns="http://www.w3.org/2000/svg"
 width="116.000000pt" height="116.000000pt" viewBox="0 0 116.000000 116.000000"
 preserveAspectRatio="xMidYMid meet">
<metadata>
Created by potrace 1.11, written by Peter Selinger 2001-2013
</metadata>
<g transform="translate(0.000000,116.000000) scale(0.100000,-0.100000)"
fill="#000000" stroke="none">
<path d="M1007 1014 c-1 -1 -41 -4 -89 -5 -194 -4 -426 -53 -555 -116 -229
-112 -269 -289 -113 -499 l38 -51 -139 -67 c-105 -51 -139 -72 -139 -86 0 -16
16 -11 107 37 60 31 123 66 142 78 l35 22 58 -63 c78 -83 150 -119 238 -118
87 0 144 29 229 114 80 80 148 193 218 360 54 130 131 376 120 386 -6 6 -144
13 -150 8z"/>
</g>
</svg>
