<?xml version="1.0" encoding="UTF-8"?>
<svg id="_レイヤー_1" data-name="レイヤー 1" xmlns="http://www.w3.org/2000/svg" viewBox="0 0 196 196">
  <defs>
    <style>
      .cls-1 {
        fill: #4a4a4a;
      }
    </style>
  </defs>
  <path class="cls-1" d="M116.18,98l28.28-28.28c4.88-4.88,4.88-12.8,0-17.68h0c-4.88-4.88-12.8-4.88-17.68,0l-28.28,28.28-28.28-28.28c-4.88-4.88-12.8-4.88-17.68,0h0c-4.88,4.88-4.88,12.8,0,17.68l28.28,28.28-28.28,28.28c-4.88,4.88-4.88,12.8,0,17.68h0c4.88,4.88,12.8,4.88,17.68,0l28.28-28.28,28.28,28.28c4.88,4.88,12.8,4.88,17.68,0h0c4.88-4.88,4.88-12.8,0-17.68l-28.28-28.28Z"/>
</svg>