<svg width="514" height="180" viewBox="0 0 514 180" fill="none" xmlns="http://www.w3.org/2000/svg">
<path d="M105.877 16.4179L132.075 153.945L100.247 160.008L89.5062 103.622L27.0296 115.523L37.7705 171.909L5.94279 177.972L-20.2546 40.4446L11.5731 34.3818L21.9024 88.6068L84.3789 76.7057L74.0497 22.4807L105.877 16.4179ZM255.998 75.9788C256.073 76.3717 256.4 79.1597 256.98 84.3427L177.018 99.5746C179.706 105.849 184.097 110.374 190.191 113.149C196.285 115.925 203.326 116.552 211.316 115.03C216.817 113.982 221.513 112.273 225.405 109.903C229.403 107.377 232.899 103.996 235.893 99.761L255.568 114.337C247.784 127.628 234.331 136.095 215.208 139.738C203.289 142.008 192.309 141.725 182.267 138.887C172.2 135.918 163.893 130.782 157.344 123.478C150.795 116.175 146.522 107.284 144.526 96.8058C142.555 86.4585 143.207 76.6975 146.481 67.5227C149.861 58.192 155.372 50.4236 163.012 44.2177C170.758 37.8558 179.936 33.6643 190.545 31.6434C200.893 29.6724 210.682 30.1151 219.913 32.9715C229.144 35.828 236.915 40.9984 243.227 48.4828C249.645 55.8113 253.902 64.9766 255.998 75.9788ZM195.158 54.7891C188.216 56.1115 182.762 59.1864 178.795 64.0139C174.828 68.8415 172.97 74.7605 173.219 81.7709L225.283 71.8534C222.963 65.3731 219.071 60.6174 213.607 57.5862C208.119 54.4241 201.969 53.4917 195.158 54.7891ZM258.626 -21.2301L289.275 -27.0683L317.044 118.71L286.395 124.549L258.626 -21.2301ZM317.72 -32.4867L348.369 -38.325L376.138 107.454L345.489 113.292L317.72 -32.4867ZM455.178 94.0263C444.044 96.147 433.588 95.7635 423.808 92.8759C414.134 89.8323 406.023 84.6588 399.474 77.3553C392.925 70.0517 388.653 61.1608 386.657 50.6826C384.661 40.2043 385.365 30.3653 388.771 21.1656C392.176 11.9659 397.83 4.23809 405.732 -2.01779C413.74 -8.42959 423.311 -12.6959 434.444 -14.8166C445.577 -16.9373 455.981 -16.4759 465.655 -13.4324C475.303 -10.5198 483.402 -5.4117 489.951 1.89182C496.5 9.19536 500.773 18.0862 502.769 28.5645C504.765 39.0428 504.06 48.8817 500.655 58.0815C497.249 67.2812 491.608 75.0745 483.731 81.4613C475.828 87.7172 466.311 91.9055 455.178 94.0263ZM450.387 68.8784C458.246 67.3815 464.165 63.5393 468.144 57.3521C472.229 51.009 473.423 43.3841 471.727 34.4776C470.03 25.5711 466.129 18.9848 460.023 14.7187C454.023 10.2967 447.093 8.83421 439.235 10.3312C431.376 11.8282 425.404 15.7483 421.319 22.0914C417.209 28.3036 416.002 35.8629 417.698 44.7695C419.395 53.676 423.309 60.3278 429.44 64.7248C435.546 68.9909 442.528 70.3754 450.387 68.8784Z" fill="#003E51" fill-opacity="0.1"/>
</svg>
