<svg width="97" height="164" viewBox="0 0 97 164" fill="none" xmlns="http://www.w3.org/2000/svg">
<g clip-path="url(#clip0_4158_259)">
<path d="M28.27 47.9199H48.25C53.11 47.9199 59.52 47.9199 62.83 49.9299C66.46 52.0899 69.31 56.0199 69.31 61.4299C69.31 67.2899 66.23 71.6899 61.13 73.7699V73.9299C67.92 75.3199 71.62 80.4099 71.62 87.1999C71.62 95.2999 65.83 103.02 54.88 103.02H28.27V47.9199ZM35.6 71.5999H50.27C58.6 71.5999 62 68.5899 62 62.7999C62 55.1599 56.6 54.0799 50.27 54.0799H35.6V71.5999ZM35.6 96.8299H53.97C60.29 96.8299 64.31 92.9699 64.31 86.9599C64.31 79.7799 58.52 77.7799 52.35 77.7799H35.6V96.8299Z" fill="black"/>
<path d="M90.37 75.4802C90.37 98.6202 71.61 117.38 48.46 117.38C25.32 117.38 6.56002 98.6202 6.56002 75.4802C6.56002 52.3402 25.32 33.5802 48.46 33.5802C71.61 33.5902 90.37 52.3502 90.37 75.4802ZM48.47 27.2002C21.82 27.2002 0.210022 48.8102 0.210022 75.4602C0.210022 102.11 21.82 123.72 48.47 123.72C75.13 123.72 96.74 102.11 96.74 75.4602C96.74 48.8102 75.13 27.2002 48.47 27.2002Z" fill="black"/>
<path d="M96.63 133.91H0.300018V140.24H96.63V133.91Z" fill="black"/>
<path d="M93.62 126.94C93.74 126.94 93.85 126.93 93.96 126.93C94.06 126.92 94.16 126.9 94.24 126.87C94.33 126.83 94.39 126.77 94.44 126.7C94.49 126.62 94.51 126.52 94.51 126.39C94.51 126.28 94.49 126.18 94.45 126.12C94.41 126.05 94.35 126 94.28 125.97C94.21 125.93 94.14 125.91 94.04 125.89C93.95 125.88 93.87 125.88 93.77 125.88H93.08V126.95H93.62V126.94ZM93.85 125.44C94.25 125.44 94.54 125.52 94.74 125.68C94.93 125.84 95.03 126.08 95.03 126.41C95.03 126.72 94.94 126.93 94.78 127.08C94.61 127.22 94.4 127.3 94.14 127.33L95.1 128.81H94.54L93.62 127.36H93.07V128.81H92.54V125.45H93.85V125.44ZM91.49 128.09C91.6 128.39 91.77 128.66 91.99 128.88C92.2 129.1 92.45 129.27 92.74 129.4C93.02 129.52 93.34 129.58 93.67 129.58C94.01 129.58 94.32 129.52 94.6 129.4C94.89 129.27 95.14 129.1 95.35 128.88C95.56 128.66 95.73 128.4 95.84 128.09C95.96 127.79 96.03 127.47 96.03 127.12C96.03 126.77 95.97 126.45 95.84 126.15C95.72 125.85 95.55 125.59 95.35 125.37C95.13 125.15 94.88 124.98 94.6 124.86C94.32 124.74 94 124.67 93.67 124.67C93.34 124.67 93.02 124.74 92.74 124.86C92.45 124.99 92.19 125.16 91.99 125.37C91.77 125.59 91.61 125.85 91.49 126.15C91.37 126.45 91.31 126.76 91.31 127.12C91.3 127.46 91.36 127.79 91.49 128.09ZM91.01 125.98C91.16 125.63 91.37 125.34 91.63 125.08C91.89 124.82 92.2 124.63 92.55 124.48C92.9 124.33 93.28 124.26 93.66 124.26C94.06 124.26 94.43 124.33 94.79 124.48C95.13 124.63 95.44 124.82 95.69 125.08C95.95 125.34 96.17 125.64 96.31 125.98C96.47 126.33 96.54 126.71 96.54 127.12C96.54 127.53 96.47 127.91 96.31 128.26C96.16 128.62 95.95 128.92 95.69 129.18C95.43 129.45 95.13 129.64 94.79 129.79C94.43 129.93 94.06 130 93.66 130C93.27 130 92.9 129.93 92.55 129.79C92.2 129.64 91.89 129.45 91.63 129.18C91.37 128.92 91.16 128.62 91.01 128.26C90.85 127.91 90.79 127.53 90.79 127.12C90.78 126.71 90.85 126.33 91.01 125.98Z" fill="black"/>
<path d="M11.98 5.97992C11.75 5.60992 11.47 5.28992 11.13 5.01992C10.79 4.73992 10.4 4.52992 9.97002 4.36992C9.54002 4.21992 9.09002 4.13992 8.62002 4.13992C7.76002 4.13992 7.03002 4.30992 6.42002 4.63992C5.82002 4.96992 5.33002 5.41992 4.96002 5.97992C4.59002 6.53992 4.31002 7.17992 4.14002 7.89992C3.97002 8.61992 3.88002 9.35992 3.88002 10.1199C3.88002 10.8499 3.96002 11.5599 4.14002 12.2499C4.31002 12.9399 4.58002 13.5599 4.96002 14.1199C5.33002 14.6699 5.82002 15.1199 6.42002 15.4499C7.02002 15.7799 7.75002 15.9499 8.62002 15.9499C9.79002 15.9499 10.71 15.5899 11.36 14.8799C12.02 14.1599 12.42 13.2199 12.57 12.0499H16.28C16.18 13.1399 15.93 14.1199 15.52 14.9999C15.11 15.8799 14.58 16.6299 13.91 17.2399C13.24 17.8599 12.46 18.3299 11.57 18.6599C10.68 18.9799 9.69002 19.1499 8.62002 19.1499C7.29002 19.1499 6.09002 18.9199 5.02002 18.4499C3.95002 17.9899 3.06002 17.3499 2.32002 16.5299C1.59002 15.7199 1.03002 14.7599 0.640018 13.6599C0.250018 12.5599 0.0500183 11.3799 0.0500183 10.1099C0.0500183 8.80992 0.240018 7.59992 0.640018 6.48992C1.03002 5.37992 1.59002 4.39992 2.32002 3.57992C3.05002 2.74992 3.95002 2.09992 5.02002 1.62992C6.08002 1.15992 7.28002 0.919922 8.62002 0.919922C9.58002 0.919922 10.49 1.05992 11.34 1.32992C12.19 1.60992 12.96 2.00992 13.63 2.53992C14.3 3.06992 14.86 3.71992 15.3 4.49992C15.74 5.27992 16.02 6.17992 16.13 7.17992H12.42C12.35 6.73992 12.21 6.33992 11.98 5.97992Z" fill="black"/>
<path d="M21.27 15.7203C21.79 16.2203 22.54 16.4803 23.51 16.4803C24.21 16.4803 24.81 16.3103 25.32 15.9603C25.82 15.6103 26.13 15.2403 26.25 14.8503H29.3C28.81 16.3603 28.06 17.4503 27.05 18.1003C26.04 18.7503 24.82 19.0803 23.39 19.0803C22.4 19.0803 21.5 18.9203 20.71 18.6003C19.91 18.2803 19.24 17.8303 18.68 17.2503C18.13 16.6703 17.7 15.9703 17.4 15.1503C17.1 14.3403 16.95 13.4403 16.95 12.4703C16.95 11.5303 17.1 10.6503 17.41 9.84031C17.72 9.03031 18.16 8.32031 18.73 7.73031C19.3 7.14031 19.98 6.67031 20.77 6.33031C21.56 5.99031 22.43 5.82031 23.39 5.82031C24.46 5.82031 25.4 6.03031 26.2 6.44031C27 6.86031 27.65 7.41031 28.16 8.11031C28.67 8.81031 29.04 9.61031 29.27 10.5003C29.5 11.3903 29.58 12.3303 29.51 13.3103H20.41C20.46 14.4003 20.74 15.2203 21.27 15.7203ZM25.18 9.09031C24.76 8.64031 24.13 8.41031 23.29 8.41031C22.74 8.41031 22.28 8.50031 21.91 8.69031C21.54 8.88031 21.25 9.11031 21.03 9.38031C20.81 9.66031 20.66 9.95031 20.57 10.2603C20.48 10.5703 20.43 10.8403 20.41 11.0903H26.05C25.89 10.2103 25.6 9.54031 25.18 9.09031Z" fill="black"/>
<path d="M34.37 6.13004V8.47004H34.42C34.58 8.08004 34.8 7.72004 35.08 7.38004C35.36 7.05004 35.67 6.76004 36.03 6.53004C36.39 6.30004 36.77 6.11004 37.18 5.98004C37.59 5.85004 38.01 5.79004 38.45 5.79004C38.68 5.79004 38.93 5.83004 39.21 5.91004V9.13004C39.05 9.10004 38.85 9.07004 38.62 9.05004C38.39 9.03004 38.17 9.01004 37.96 9.01004C37.33 9.01004 36.79 9.12004 36.35 9.33004C35.91 9.54004 35.56 9.83004 35.29 10.2C35.02 10.57 34.83 10.99 34.72 11.48C34.61 11.97 34.55 12.5 34.55 13.07V18.76H31.09V6.13004H34.37Z" fill="black"/>
<path d="M48.47 6.13035V8.45035H45.93V14.7004C45.93 15.2904 46.03 15.6803 46.22 15.8703C46.41 16.0603 46.81 16.1604 47.39 16.1604C47.59 16.1604 47.77 16.1504 47.95 16.1404C48.13 16.1204 48.3 16.1004 48.46 16.0704V18.7504C48.17 18.8004 47.84 18.8303 47.48 18.8503C47.12 18.8703 46.77 18.8804 46.43 18.8804C45.89 18.8804 45.38 18.8404 44.91 18.7704C44.43 18.7004 44.01 18.5604 43.64 18.3404C43.27 18.1304 42.99 17.8303 42.77 17.4403C42.56 17.0503 42.45 16.5404 42.45 15.9004V8.46035H40.35V6.14035H42.45V2.36035H45.91V6.14035H48.47V6.13035Z" fill="black"/>
<path d="M50.49 4.18031V1.32031H53.95V4.18031H50.49ZM53.95 6.13031V18.7403H50.49V6.13031H53.95Z" fill="black"/>
<path d="M55.33 8.45031V6.13031H57.4V5.15031C57.4 4.03031 57.75 3.11031 58.45 2.39031C59.15 1.67031 60.21 1.32031 61.62 1.32031C61.93 1.32031 62.24 1.33031 62.55 1.36031C62.86 1.38031 63.16 1.41031 63.45 1.42031V4.01031C63.04 3.96031 62.62 3.94031 62.18 3.94031C61.71 3.94031 61.37 4.05031 61.17 4.27031C60.97 4.49031 60.87 4.86031 60.87 5.38031V6.14031H63.26V8.46031H60.87V18.7603H57.4V8.46031H55.33V8.45031Z" fill="black"/>
<path d="M65.6 4.18031V1.32031H69.06V4.18031H65.6ZM69.07 6.13031V18.7403H65.6V6.13031H69.07Z" fill="black"/>
<path d="M74.53 15.7198C75.05 16.2198 75.8 16.4798 76.77 16.4798C77.47 16.4798 78.07 16.3098 78.58 15.9598C79.08 15.6098 79.39 15.2398 79.51 14.8498H82.56C82.07 16.3598 81.32 17.4498 80.32 18.0998C79.31 18.7498 78.09 19.0798 76.66 19.0798C75.67 19.0798 74.77 18.9198 73.98 18.5998C73.18 18.2798 72.51 17.8298 71.95 17.2498C71.4 16.6698 70.97 15.9698 70.67 15.1498C70.37 14.3398 70.22 13.4398 70.22 12.4698C70.22 11.5298 70.38 10.6498 70.68 9.83981C70.99 8.99981 71.43 8.2998 72 7.7098C72.57 7.1198 73.25 6.6498 74.04 6.3098C74.83 5.9698 75.7 5.7998 76.66 5.7998C77.73 5.7998 78.67 6.00981 79.47 6.41981C80.27 6.83981 80.92 7.38981 81.43 8.08981C81.94 8.78981 82.31 9.58981 82.54 10.4798C82.77 11.3698 82.85 12.3098 82.79 13.2898H73.69C73.73 14.3998 74.01 15.2198 74.53 15.7198ZM78.45 9.08981C78.04 8.63981 77.4 8.40981 76.56 8.40981C76.01 8.40981 75.55 8.49981 75.18 8.68981C74.81 8.87981 74.52 9.1098 74.3 9.3798C74.08 9.6598 73.93 9.94981 73.84 10.2598C73.75 10.5698 73.7 10.8398 73.68 11.0898H79.31C79.15 10.2098 78.86 9.53981 78.45 9.08981Z" fill="black"/>
<path d="M93.3 17.1401C92.89 17.8201 92.36 18.3201 91.7 18.6201C91.04 18.9201 90.3 19.0701 89.47 19.0701C88.53 19.0701 87.7 18.8901 86.98 18.5201C86.26 18.1501 85.67 17.6601 85.21 17.0301C84.75 16.4001 84.4 15.6801 84.16 14.8701C83.92 14.0601 83.81 13.2101 83.81 12.3301C83.81 11.4801 83.93 10.6701 84.16 9.88008C84.39 9.09008 84.75 8.40008 85.21 7.79008C85.67 7.19008 86.26 6.70008 86.95 6.34008C87.65 5.97008 88.46 5.79008 89.39 5.79008C90.14 5.79008 90.85 5.95008 91.52 6.27008C92.2 6.59008 92.73 7.05008 93.12 7.67008H93.17V1.33008H96.63V18.7501H93.34V17.1401H93.3ZM93.15 10.9001C93.05 10.4201 92.89 10.0001 92.65 9.63008C92.41 9.26008 92.11 8.97008 91.73 8.74008C91.36 8.51008 90.88 8.40008 90.32 8.40008C89.76 8.40008 89.27 8.51008 88.88 8.74008C88.49 8.97008 88.18 9.27008 87.94 9.64008C87.71 10.0101 87.54 10.4401 87.43 10.9201C87.32 11.4001 87.27 11.9001 87.27 12.4201C87.27 12.9101 87.33 13.4001 87.44 13.8801C87.55 14.3701 87.74 14.8001 87.99 15.1901C88.24 15.5701 88.56 15.8801 88.94 16.1201C89.32 16.3601 89.78 16.4701 90.32 16.4701C90.89 16.4701 91.36 16.3601 91.75 16.1301C92.13 15.9001 92.44 15.6001 92.67 15.2101C92.9 14.8301 93.06 14.3901 93.16 13.9101C93.26 13.4201 93.31 12.9201 93.31 12.4001C93.3 11.8801 93.25 11.3801 93.15 10.9001Z" fill="black"/>
<path d="M8.75001 152.67C8.58001 151.45 7.41001 150.52 6.07001 150.52C3.65001 150.52 2.74001 152.58 2.74001 154.73C2.74001 156.77 3.65001 158.83 6.07001 158.83C7.72001 158.83 8.65001 157.7 8.85001 156.08H11.47C11.19 159.14 9.08001 161.1 6.07001 161.1C2.27001 161.1 0.0400085 158.26 0.0400085 154.73C0.0400085 151.09 2.27001 148.25 6.07001 148.25C8.77001 148.25 11.03 149.83 11.36 152.67H8.75001Z" fill="black"/>
<path d="M17.1 151.69C19.9 151.69 21.7 153.54 21.7 156.38C21.7 159.2 19.9 161.05 17.1 161.05C14.32 161.05 12.51 159.19 12.51 156.38C12.51 153.55 14.32 151.69 17.1 151.69ZM17.1 159.22C18.77 159.22 19.26 157.79 19.26 156.39C19.26 154.96 18.76 153.54 17.1 153.54C15.45 153.54 14.95 154.97 14.95 156.39C14.95 157.79 15.45 159.22 17.1 159.22Z" fill="black"/>
<path d="M23.21 151.92H25.53V153.57H25.57C26.01 152.45 27.22 151.68 28.41 151.68C28.58 151.68 28.79 151.71 28.94 151.76V154.03C28.71 153.98 28.35 153.95 28.06 153.95C26.27 153.95 25.65 155.24 25.65 156.8V160.8H23.21V151.92Z" fill="black"/>
<path d="M29.89 151.93H32.21V153.06H32.24C32.82 152.12 33.78 151.69 34.88 151.69C37.67 151.69 38.92 153.94 38.92 156.46C38.92 158.83 37.62 161.05 35.02 161.05C33.96 161.05 32.94 160.59 32.36 159.71H32.32V163.94H29.88V151.93H29.89ZM36.48 156.4C36.48 154.99 35.91 153.53 34.35 153.53C32.75 153.53 32.24 154.96 32.24 156.4C32.24 157.84 32.79 159.22 34.37 159.22C35.97 159.22 36.48 157.84 36.48 156.4Z" fill="black"/>
<path d="M44.27 151.69C47.07 151.69 48.88 153.54 48.88 156.38C48.88 159.2 47.07 161.05 44.27 161.05C41.49 161.05 39.69 159.19 39.69 156.38C39.69 153.55 41.49 151.69 44.27 151.69ZM44.27 159.22C45.94 159.22 46.44 157.79 46.44 156.39C46.44 154.96 45.94 153.54 44.27 153.54C42.62 153.54 42.12 154.97 42.12 156.39C42.13 157.79 42.63 159.22 44.27 159.22Z" fill="black"/>
<path d="M50.39 151.92H52.71V153.57H52.75C53.19 152.45 54.4 151.68 55.58 151.68C55.75 151.68 55.96 151.71 56.11 151.76V154.03C55.89 153.98 55.53 153.95 55.23 153.95C53.44 153.95 52.82 155.24 52.82 156.8V160.8H50.38V151.92H50.39Z" fill="black"/>
<path d="M56.83 154.66C56.97 152.37 59.01 151.69 61.01 151.69C62.78 151.69 64.91 152.08 64.91 154.21V158.83C64.91 159.64 64.99 160.44 65.22 160.81H62.74C62.66 160.53 62.58 160.24 62.57 159.95C61.8 160.76 60.67 161.05 59.58 161.05C57.9 161.05 56.56 160.21 56.56 158.39C56.56 156.38 58.07 155.9 59.58 155.69C61.08 155.47 62.47 155.52 62.47 154.52C62.47 153.47 61.74 153.32 60.89 153.32C59.96 153.32 59.36 153.7 59.27 154.66H56.83ZM62.46 156.47C62.04 156.83 61.19 156.85 60.43 156.99C59.67 157.14 58.99 157.4 58.99 158.3C58.99 159.21 59.69 159.43 60.49 159.43C62.39 159.43 62.47 157.92 62.47 157.39V156.47H62.46Z" fill="black"/>
<path d="M69.83 151.93H71.62V153.56H69.83V157.96C69.83 158.79 70.04 158.99 70.86 158.99C71.12 158.99 71.36 158.97 71.62 158.92V160.83C71.21 160.9 70.67 160.92 70.19 160.92C68.7 160.92 67.39 160.57 67.39 158.81V153.57H65.91V151.94H67.39V149.28H69.83V151.93Z" fill="black"/>
<path d="M75.9 150.56H73.46V148.55H75.9V150.56ZM73.46 151.93H75.9V160.81H73.46V151.93Z" fill="black"/>
<path d="M82.12 151.69C84.92 151.69 86.73 153.54 86.73 156.38C86.73 159.2 84.92 161.05 82.12 161.05C79.34 161.05 77.54 159.19 77.54 156.38C77.54 153.55 79.34 151.69 82.12 151.69ZM82.12 159.22C83.79 159.22 84.29 157.79 84.29 156.39C84.29 154.96 83.79 153.54 82.12 153.54C80.47 153.54 79.97 154.97 79.97 156.39C79.97 157.79 80.47 159.22 82.12 159.22Z" fill="black"/>
<path d="M88.3 151.93H90.62V153.17H90.67C91.29 152.17 92.35 151.69 93.39 151.69C95.98 151.69 96.64 153.15 96.64 155.35V160.81H94.2V155.79C94.2 154.33 93.77 153.61 92.64 153.61C91.31 153.61 90.75 154.35 90.75 156.16V160.82H88.31V151.93H88.3Z" fill="black"/>
</g>
<defs>
<clipPath id="clip0_4158_259">
<rect width="97" height="164" fill="white"/>
</clipPath>
</defs>
</svg>
