<?xml version="1.0" standalone="no"?>
<!DOCTYPE svg PUBLIC "-//W3C//DTD SVG 20010904//EN"
 "http://www.w3.org/TR/2001/REC-SVG-20010904/DTD/svg10.dtd">
<svg version="1.0" xmlns="http://www.w3.org/2000/svg"
 width="700.000000pt" height="700.000000pt" viewBox="0 0 700.000000 700.000000"
 preserveAspectRatio="xMidYMid meet">
<metadata>
Created by potrace 1.11, written by Peter Selinger 2001-2013
</metadata>
<g transform="translate(0.000000,700.000000) scale(0.100000,-0.100000)"
fill="#000000" stroke="none">
<path d="M2227 6285 c-21 -8 -57 -27 -79 -42 -81 -54 -96 -86 -212 -439 -60
-181 -119 -352 -132 -380 -38 -81 -131 -153 -218 -168 -17 -3 -242 -6 -500 -7
-451 -1 -475 -2 -556 -23 -265 -69 -452 -264 -515 -536 -13 -56 -14 -285 -14
-1710 1 -1804 -2 -1731 62 -1863 95 -200 229 -317 447 -390 l65 -22 2905 0
c1598 0 2923 3 2945 7 135 23 258 90 367 198 72 73 93 102 132 181 80 166 75
32 72 1909 -2 1861 4 1700 -69 1853 -88 185 -264 327 -465 376 -70 17 -124 19
-559 20 -496 1 -514 3 -584 43 -37 21 -88 70 -109 102 -10 17 -71 189 -135
381 -64 193 -126 365 -137 383 -30 49 -112 109 -171 127 -45 13 -205 15 -1277
14 -1017 0 -1231 -3 -1263 -14z m1490 -1399 c11 -2 43 -7 70 -11 26 -4 91 -18
143 -31 320 -83 580 -232 810 -464 262 -264 421 -575 487 -955 18 -101 24
-385 11 -473 -4 -31 -10 -70 -13 -87 -77 -487 -383 -944 -808 -1203 -187 -115
-446 -213 -627 -237 -25 -3 -72 -9 -105 -14 -58 -8 -343 -6 -395 2 -14 3 -47
8 -75 12 -76 10 -238 53 -313 81 -436 167 -766 464 -972 875 -48 94 -121 296
-119 329 0 3 -4 17 -9 31 -11 28 -16 56 -36 199 -13 87 -14 373 -3 425 2 11 8
43 11 70 11 77 44 200 81 307 169 481 572 883 1055 1054 149 52 244 74 400 91
30 3 57 7 58 8 6 5 325 -3 349 -9z m2448 -363 c86 -45 129 -116 129 -218 1
-58 -4 -78 -26 -115 -46 -79 -112 -121 -198 -126 -143 -9 -263 109 -256 252 4
94 55 171 140 210 62 29 152 28 211 -3z"/>
<path d="M3388 4195 c-1 -1 -25 -6 -52 -9 -136 -19 -297 -82 -431 -171 -89
-59 -215 -189 -278 -285 -56 -86 -107 -188 -107 -212 0 -8 -4 -18 -9 -24 -10
-11 -29 -84 -46 -179 -13 -69 -13 -276 0 -345 14 -79 68 -234 107 -307 130
-246 352 -431 614 -513 111 -34 162 -42 289 -45 182 -5 315 23 478 101 85 40
93 45 177 108 129 96 260 257 324 397 30 66 72 209 86 288 9 55 6 260 -5 334
-8 54 -51 187 -84 260 -98 214 -295 411 -508 508 -66 30 -181 69 -223 75 -19
3 -42 7 -50 11 -16 5 -276 14 -282 8z"/>
</g>
</svg>
